<svg width="486" height="486" viewBox="0 0 486 486" fill="none" xmlns="http://www.w3.org/2000/svg">
<g clip-path="url(#clip0)">
<path fill-rule="evenodd" clip-rule="evenodd" d="M440.438 91.125H45.5625C41.5345 91.125 37.6715 92.7251 34.8233 95.5733C31.9751 98.4215 30.375 102.285 30.375 106.312V379.688C30.375 383.715 31.9751 387.578 34.8233 390.427C37.6715 393.275 41.5345 394.875 45.5625 394.875H440.438C444.465 394.875 448.328 393.275 451.177 390.427C454.025 387.578 455.625 383.715 455.625 379.688V106.312C455.625 102.285 454.025 98.4215 451.177 95.5733C448.328 92.7251 444.465 91.125 440.438 91.125ZM45.5625 60.75C33.4786 60.75 21.8896 65.5503 13.3449 74.0949C4.80032 82.6396 0 94.2286 0 106.312L0 379.688C0 391.771 4.80032 403.36 13.3449 411.905C21.8896 420.45 33.4786 425.25 45.5625 425.25H440.438C452.521 425.25 464.11 420.45 472.655 411.905C481.2 403.36 486 391.771 486 379.688V106.312C486 94.2286 481.2 82.6396 472.655 74.0949C464.11 65.5503 452.521 60.75 440.438 60.75H45.5625Z" fill="#E6E6E6"/>
<path d="M323.432 232.246C325.688 229.996 328.594 228.513 331.74 228.006C334.885 227.499 338.11 227.994 340.958 229.421L455.685 288.561V394.874H30.4348V364.499L110.807 292.996C113.29 290.522 116.551 288.983 120.039 288.64C123.527 288.297 127.026 289.17 129.943 291.113L210.741 344.967L323.432 232.276V232.246Z" fill="#E6E6E6"/>
<path fill-rule="evenodd" clip-rule="evenodd" d="M136.747 212.625C142.731 212.625 148.655 211.446 154.183 209.157C159.711 206.867 164.734 203.511 168.965 199.28C173.196 195.049 176.552 190.026 178.842 184.499C181.131 178.971 182.31 173.046 182.31 167.062C182.31 161.079 181.131 155.154 178.842 149.626C176.552 144.099 173.196 139.076 168.965 134.845C164.734 130.614 159.711 127.258 154.183 124.968C148.655 122.679 142.731 121.5 136.747 121.5C124.663 121.5 113.074 126.3 104.53 134.845C95.9851 143.39 91.1848 154.979 91.1848 167.062C91.1848 179.146 95.9851 190.735 104.53 199.28C113.074 207.825 124.663 212.625 136.747 212.625Z" fill="#E6E6E6"/>
</g>
<defs>
<clipPath id="clip0">
<rect width="486" height="486" fill="white"/>
</clipPath>
</defs>
</svg>
