<svg width="500" height="400" viewBox="0 0 500 400" fill="none" xmlns="http://www.w3.org/2000/svg">
<g clip-path="url(#clip0)">
<rect width="500" height="400" fill="white"/>
<g clip-path="url(#clip1)">
<rect width="500" height="405.494" transform="translate(0 -1.43958)" fill="#F2F5F7"/>
<g clip-path="url(#clip2)">
<path fill-rule="evenodd" clip-rule="evenodd" d="M414.479 74.5904H85.015C81.6543 74.5904 78.4312 75.9254 76.0548 78.3018C73.6784 80.6782 72.3433 83.9013 72.3433 87.2621V315.353C72.3433 318.713 73.6784 321.937 76.0548 324.313C78.4312 326.689 81.6543 328.024 85.015 328.024H414.479C417.84 328.024 421.063 326.689 423.44 324.313C425.816 321.937 427.151 318.713 427.151 315.353V87.2621C427.151 83.9013 425.816 80.6782 423.44 78.3018C421.063 75.9254 417.84 74.5904 414.479 74.5904ZM85.015 49.2469C74.9328 49.2469 65.2635 53.2521 58.1343 60.3813C51.0051 67.5105 46.9999 77.1798 46.9999 87.2621L46.9999 315.353C46.9999 325.435 51.0051 335.104 58.1343 342.233C65.2635 349.363 74.9328 353.368 85.015 353.368H414.479C424.562 353.368 434.231 349.363 441.36 342.233C448.489 335.104 452.494 325.435 452.494 315.353V87.2621C452.494 77.1798 448.489 67.5105 441.36 60.3813C434.231 53.2521 424.562 49.2469 414.479 49.2469H85.015Z" fill="#E6E6E6"/>
<path d="M316.855 192.335C318.738 190.458 321.162 189.22 323.787 188.797C326.411 188.374 329.102 188.787 331.479 189.978L427.201 239.321V328.023H72.3929V302.68L139.452 243.022C141.523 240.958 144.244 239.674 147.154 239.387C150.064 239.101 152.984 239.83 155.418 241.45L222.831 286.384L316.855 192.36V192.335Z" fill="#E6E6E6"/>
<path fill-rule="evenodd" clip-rule="evenodd" d="M161.095 175.964C166.087 175.964 171.03 174.981 175.643 173.07C180.255 171.16 184.445 168.36 187.976 164.83C191.506 161.299 194.306 157.109 196.216 152.497C198.127 147.884 199.11 142.941 199.11 137.949C199.11 132.957 198.127 128.013 196.216 123.401C194.306 118.789 191.506 114.598 187.976 111.068C184.445 107.538 180.255 104.738 175.643 102.827C171.03 100.917 166.087 99.9337 161.095 99.9337C151.013 99.9337 141.343 103.939 134.214 111.068C127.085 118.197 123.08 127.867 123.08 137.949C123.08 148.031 127.085 157.7 134.214 164.83C141.343 171.959 151.013 175.964 161.095 175.964Z" fill="#E6E6E6"/>
</g>
</g>
</g>
<defs>
<clipPath id="clip0">
<rect width="500" height="400" fill="white"/>
</clipPath>
<clipPath id="clip1">
<rect width="500" height="405.494" fill="white" transform="translate(0 -1.43958)"/>
</clipPath>
<clipPath id="clip2">
<rect width="405.494" height="405.494" fill="white" transform="translate(47 -1.4397)"/>
</clipPath>
</defs>
</svg>
