<svg width="28" height="717" viewBox="0 0 28 717" fill="none" xmlns="http://www.w3.org/2000/svg">
<path d="M20.046 17.154L7.5 13.518V11.682L17.598 8.766L7.5 5.742L7.482 3.924L20.046 0.414V2.16L9.408 4.896L20.046 7.92V9.756L9.444 12.636L20.046 15.39V17.154ZM12.468 18.3345C13.476 18.3345 14.358 18.5385 15.114 18.9465C15.882 19.3545 16.476 19.9125 16.896 20.6205C17.316 21.3405 17.526 22.1385 17.526 23.0145C17.526 23.8785 17.34 24.6285 16.968 25.2645C16.596 25.9005 16.128 26.3745 15.564 26.6865H17.364V28.3425H7.5V26.6865H9.336C8.76 26.3625 8.28 25.8765 7.896 25.2285C7.524 24.5925 7.338 23.8485 7.338 22.9965C7.338 22.1205 7.554 21.3285 7.986 20.6205C8.418 19.9125 9.024 19.3545 9.804 18.9465C10.584 18.5385 11.472 18.3345 12.468 18.3345ZM12.45 26.6865C13.194 26.6865 13.842 26.5365 14.394 26.2365C14.946 25.9365 15.366 25.5285 15.654 25.0125C15.954 24.5085 16.104 23.9505 16.104 23.3385C16.104 22.7265 15.96 22.1685 15.672 21.6645C15.384 21.1605 14.964 20.7585 14.412 20.4585C13.86 20.1585 13.212 20.0085 12.468 20.0085C11.712 20.0085 11.052 20.1585 10.488 20.4585C9.936 20.7585 9.51 21.1605 9.21 21.6645C8.922 22.1685 8.778 22.7265 8.778 23.3385C8.778 23.9505 8.922 24.5085 9.21 25.0125C9.51 25.5285 9.936 25.9365 10.488 26.2365C11.052 26.5365 11.706 26.6865 12.45 26.6865ZM20.82 32.7486H7.5V31.1106H20.82V32.7486ZM7.5 41.0483L11.856 37.1783H7.5V35.5403H20.82V37.1783H12.99L17.364 40.9763V43.2623L12.45 38.6183L7.5 43.2803V41.0483ZM17.544 56.666C17.544 57.434 17.382 58.118 17.058 58.718C16.746 59.318 16.272 59.792 15.636 60.14C15 60.488 14.226 60.662 13.314 60.662H7.5V59.042H13.08C14.064 59.042 14.814 58.796 15.33 58.304C15.858 57.824 16.122 57.17 16.122 56.342C16.122 55.49 15.846 54.812 15.294 54.308C14.754 53.804 13.968 53.552 12.936 53.552H7.5V51.932H13.08C14.064 51.932 14.814 51.686 15.33 51.194C15.858 50.714 16.122 50.06 16.122 49.232C16.122 48.38 15.846 47.702 15.294 47.198C14.754 46.694 13.968 46.442 12.936 46.442H7.5V44.804H17.364V46.442H15.942C16.458 46.766 16.854 47.198 17.13 47.738C17.406 48.29 17.544 48.896 17.544 49.556C17.544 50.384 17.358 51.116 16.986 51.752C16.614 52.388 16.068 52.862 15.348 53.174C16.044 53.45 16.584 53.906 16.968 54.542C17.352 55.178 17.544 55.886 17.544 56.666ZM12.81 72.3489C12.498 72.3489 12.168 72.3309 11.82 72.2949V64.4109C10.848 64.4709 10.086 64.8009 9.534 65.4009C8.994 66.0129 8.724 66.7509 8.724 67.6149C8.724 68.3229 8.886 68.9109 9.21 69.3789C9.546 69.8589 9.99 70.1949 10.542 70.3869V72.1509C9.594 71.8869 8.82 71.3589 8.22 70.5669C7.632 69.7749 7.338 68.7909 7.338 67.6149C7.338 66.6789 7.548 65.8389 7.968 65.0949C8.388 64.3629 8.982 63.7869 9.75 63.3669C10.53 62.9469 11.43 62.7369 12.45 62.7369C13.47 62.7369 14.364 62.9409 15.132 63.3489C15.9 63.7569 16.488 64.3269 16.896 65.0589C17.316 65.8029 17.526 66.6549 17.526 67.6149C17.526 68.5509 17.322 69.3789 16.914 70.0989C16.506 70.8189 15.942 71.3709 15.222 71.7549C14.514 72.1509 13.71 72.3489 12.81 72.3489ZM13.152 70.6569C13.776 70.6569 14.31 70.5189 14.754 70.2429C15.21 69.9669 15.552 69.5889 15.78 69.1089C16.02 68.6409 16.14 68.1189 16.14 67.5429C16.14 66.7149 15.876 66.0069 15.348 65.4189C14.82 64.8429 14.088 64.5129 13.152 64.4289V70.6569ZM17.544 79.317C17.544 80.517 17.178 81.489 16.446 82.233C15.726 82.977 14.682 83.349 13.314 83.349H7.5V81.729H13.08C14.064 81.729 14.814 81.483 15.33 80.991C15.858 80.499 16.122 79.827 16.122 78.975C16.122 78.111 15.852 77.421 15.312 76.905C14.772 76.401 13.986 76.149 12.954 76.149H7.5V74.511H17.364V76.149H15.96C16.464 76.473 16.854 76.911 17.13 77.463C17.406 78.027 17.544 78.645 17.544 79.317ZM17.364 94.7727H7.5V93.1347H8.958C8.454 92.8227 8.058 92.3847 7.77 91.8207C7.494 91.2687 7.356 90.6567 7.356 89.9847C7.356 89.2167 7.512 88.5267 7.824 87.9147C8.148 87.3027 8.628 86.8167 9.264 86.4567C9.9 86.1087 10.674 85.9347 11.586 85.9347H17.364V87.5547H11.802C10.83 87.5547 10.08 87.8007 9.552 88.2927C9.036 88.7847 8.778 89.4567 8.778 90.3087C8.778 91.1847 9.048 91.8747 9.588 92.3787C10.128 92.8827 10.914 93.1347 11.946 93.1347H17.364V94.7727Z" fill="#191C2F"/>
<path d="M19.546 133.988H11.608C10.492 133.988 9.664 134.258 9.124 134.798C8.584 135.35 8.314 136.112 8.314 137.084C8.314 138.044 8.584 138.794 9.124 139.334C9.664 139.886 10.492 140.162 11.608 140.162H19.546V141.8H11.626C10.582 141.8 9.7 141.59 8.98 141.17C8.272 140.75 7.744 140.18 7.396 139.46C7.048 138.752 6.874 137.954 6.874 137.066C6.874 136.178 7.048 135.374 7.396 134.654C7.744 133.946 8.272 133.382 8.98 132.962C9.7 132.554 10.582 132.35 11.626 132.35H19.546V133.988ZM15.262 146.17C15.826 146.458 16.264 146.866 16.576 147.394C16.888 147.934 17.044 148.588 17.044 149.356H15.352V148.924C15.352 147.088 14.356 146.17 12.364 146.17H7V144.532H16.864V146.17H15.262ZM15.028 152.885C15.616 153.221 16.096 153.713 16.468 154.361C16.84 155.009 17.026 155.747 17.026 156.575C17.026 157.463 16.816 158.261 16.396 158.969C15.976 159.677 15.382 160.235 14.614 160.643C13.858 161.051 12.976 161.255 11.968 161.255C10.972 161.255 10.084 161.051 9.304 160.643C8.524 160.235 7.918 159.671 7.486 158.951C7.054 158.243 6.838 157.451 6.838 156.575C6.838 155.723 7.024 154.973 7.396 154.325C7.768 153.689 8.242 153.209 8.818 152.885H7V151.247H20.32V152.885H15.028ZM11.968 159.581C12.712 159.581 13.36 159.431 13.912 159.131C14.464 158.831 14.884 158.423 15.172 157.907C15.46 157.403 15.604 156.845 15.604 156.233C15.604 155.633 15.454 155.075 15.154 154.559C14.866 154.055 14.44 153.647 13.876 153.335C13.324 153.035 12.682 152.885 11.95 152.885C11.206 152.885 10.552 153.035 9.988 153.335C9.436 153.647 9.01 154.055 8.71 154.559C8.422 155.075 8.278 155.633 8.278 156.233C8.278 156.845 8.422 157.403 8.71 157.907C9.01 158.423 9.436 158.831 9.988 159.131C10.552 159.431 11.212 159.581 11.968 159.581ZM11.968 162.799C12.976 162.799 13.858 163.003 14.614 163.411C15.382 163.819 15.976 164.377 16.396 165.085C16.816 165.805 17.026 166.603 17.026 167.479C17.026 168.343 16.84 169.093 16.468 169.729C16.096 170.365 15.628 170.839 15.064 171.151H16.864V172.807H7V171.151H8.836C8.26 170.827 7.78 170.341 7.396 169.693C7.024 169.057 6.838 168.313 6.838 167.461C6.838 166.585 7.054 165.793 7.486 165.085C7.918 164.377 8.524 163.819 9.304 163.411C10.084 163.003 10.972 162.799 11.968 162.799ZM11.95 171.151C12.694 171.151 13.342 171.001 13.894 170.701C14.446 170.401 14.866 169.993 15.154 169.477C15.454 168.973 15.604 168.415 15.604 167.803C15.604 167.191 15.46 166.633 15.172 166.129C14.884 165.625 14.464 165.223 13.912 164.923C13.36 164.623 12.712 164.473 11.968 164.473C11.212 164.473 10.552 164.623 9.988 164.923C9.436 165.223 9.01 165.625 8.71 166.129C8.422 166.633 8.278 167.191 8.278 167.803C8.278 168.415 8.422 168.973 8.71 169.477C9.01 169.993 9.436 170.401 9.988 170.701C10.552 171.001 11.206 171.151 11.95 171.151ZM17.044 180.381C17.044 181.581 16.678 182.553 15.946 183.297C15.226 184.041 14.182 184.413 12.814 184.413H7V182.793H12.58C13.564 182.793 14.314 182.547 14.83 182.055C15.358 181.563 15.622 180.891 15.622 180.039C15.622 179.175 15.352 178.485 14.812 177.969C14.272 177.465 13.486 177.213 12.454 177.213H7V175.575H16.864V177.213H15.46C15.964 177.537 16.354 177.975 16.63 178.527C16.906 179.091 17.044 179.709 17.044 180.381ZM19.456 204.614H7V202.976H16.288L7 198.836V197.684L16.306 193.526H7V191.888H19.456V193.652L9.16 198.26L19.456 202.868V204.614ZM11.968 206.78C12.976 206.78 13.858 206.984 14.614 207.392C15.382 207.8 15.976 208.358 16.396 209.066C16.816 209.786 17.026 210.584 17.026 211.46C17.026 212.324 16.84 213.074 16.468 213.71C16.096 214.346 15.628 214.82 15.064 215.132H16.864V216.788H7V215.132H8.836C8.26 214.808 7.78 214.322 7.396 213.674C7.024 213.038 6.838 212.294 6.838 211.442C6.838 210.566 7.054 209.774 7.486 209.066C7.918 208.358 8.524 207.8 9.304 207.392C10.084 206.984 10.972 206.78 11.968 206.78ZM11.95 215.132C12.694 215.132 13.342 214.982 13.894 214.682C14.446 214.382 14.866 213.974 15.154 213.458C15.454 212.954 15.604 212.396 15.604 211.784C15.604 211.172 15.46 210.614 15.172 210.11C14.884 209.606 14.464 209.204 13.912 208.904C13.36 208.604 12.712 208.454 11.968 208.454C11.212 208.454 10.552 208.604 9.988 208.904C9.436 209.204 9.01 209.606 8.71 210.11C8.422 210.614 8.278 211.172 8.278 211.784C8.278 212.396 8.422 212.954 8.71 213.458C9.01 213.974 9.436 214.382 9.988 214.682C10.552 214.982 11.206 215.132 11.95 215.132ZM15.514 221.554H9.7C9.22 221.554 8.878 221.656 8.674 221.86C8.482 222.064 8.386 222.418 8.386 222.922V224.128H7V222.652C7 221.74 7.21 221.056 7.63 220.6C8.05 220.144 8.74 219.916 9.7 219.916H15.514V218.638H16.864V219.916H19.348V221.554H16.864V224.128H15.514V221.554ZM11.95 225.501C12.97 225.501 13.858 225.705 14.614 226.113C15.382 226.521 15.976 227.085 16.396 227.805C16.816 228.537 17.026 229.371 17.026 230.307C17.026 231.519 16.732 232.515 16.144 233.295C15.556 234.087 14.74 234.609 13.696 234.861V233.097C14.296 232.929 14.77 232.599 15.118 232.107C15.466 231.627 15.64 231.027 15.64 230.307C15.64 229.371 15.316 228.615 14.668 228.039C14.032 227.463 13.126 227.175 11.95 227.175C10.762 227.175 9.844 227.463 9.196 228.039C8.548 228.615 8.224 229.371 8.224 230.307C8.224 231.027 8.392 231.627 8.728 232.107C9.064 232.587 9.544 232.917 10.168 233.097V234.861C9.16 234.597 8.35 234.069 7.738 233.277C7.138 232.485 6.838 231.495 6.838 230.307C6.838 229.371 7.048 228.537 7.468 227.805C7.888 227.085 8.482 226.521 9.25 226.113C10.018 225.705 10.918 225.501 11.95 225.501ZM17.044 241.942C17.044 242.686 16.882 243.358 16.558 243.958C16.246 244.558 15.772 245.026 15.136 245.362C14.5 245.71 13.726 245.884 12.814 245.884H7V244.264H12.58C13.564 244.264 14.314 244.018 14.83 243.526C15.358 243.034 15.622 242.362 15.622 241.51C15.622 240.646 15.352 239.956 14.812 239.44C14.272 238.936 13.486 238.684 12.454 238.684H7V237.046H20.32V238.684H15.46C15.964 239.008 16.354 239.452 16.63 240.016C16.906 240.592 17.044 241.234 17.044 241.942Z" fill="#191C2F"/>
<path d="M6.874 290.364C6.874 289.536 7.018 288.792 7.306 288.132C7.606 287.484 8.014 286.974 8.53 286.602C9.058 286.23 9.664 286.038 10.348 286.026V287.772C9.76 287.832 9.262 288.072 8.854 288.492C8.458 288.924 8.26 289.548 8.26 290.364C8.26 291.144 8.452 291.756 8.836 292.2C9.232 292.656 9.736 292.884 10.348 292.884C10.828 292.884 11.218 292.752 11.518 292.488C11.818 292.224 12.046 291.894 12.202 291.498C12.358 291.102 12.526 290.568 12.706 289.896C12.922 289.068 13.138 288.402 13.354 287.898C13.57 287.406 13.906 286.98 14.362 286.62C14.83 286.272 15.454 286.098 16.234 286.098C16.918 286.098 17.524 286.272 18.052 286.62C18.58 286.968 18.988 287.454 19.276 288.078C19.564 288.714 19.708 289.44 19.708 290.256C19.708 291.432 19.414 292.392 18.826 293.136C18.238 293.892 17.458 294.318 16.486 294.414V292.614C16.966 292.554 17.386 292.302 17.746 291.858C18.118 291.414 18.304 290.826 18.304 290.094C18.304 289.41 18.124 288.852 17.764 288.42C17.416 287.988 16.924 287.772 16.288 287.772C15.832 287.772 15.46 287.898 15.172 288.15C14.884 288.414 14.662 288.732 14.506 289.104C14.362 289.488 14.194 290.022 14.002 290.706C13.774 291.534 13.546 292.2 13.318 292.704C13.102 293.208 12.76 293.64 12.292 294C11.836 294.36 11.212 294.54 10.42 294.54C9.808 294.54 9.232 294.378 8.692 294.054C8.152 293.73 7.714 293.25 7.378 292.614C7.042 291.978 6.874 291.228 6.874 290.364ZM15.514 298.948H9.7C9.22 298.948 8.878 299.05 8.674 299.254C8.482 299.458 8.386 299.812 8.386 300.316V301.522H7V300.046C7 299.134 7.21 298.45 7.63 297.994C8.05 297.538 8.74 297.31 9.7 297.31H15.514V296.032H16.864V297.31H19.348V298.948H16.864V301.522H15.514V298.948ZM11.968 302.895C12.976 302.895 13.858 303.099 14.614 303.507C15.382 303.915 15.976 304.473 16.396 305.181C16.816 305.901 17.026 306.699 17.026 307.575C17.026 308.439 16.84 309.189 16.468 309.825C16.096 310.461 15.628 310.935 15.064 311.247H16.864V312.903H7V311.247H8.836C8.26 310.923 7.78 310.437 7.396 309.789C7.024 309.153 6.838 308.409 6.838 307.557C6.838 306.681 7.054 305.889 7.486 305.181C7.918 304.473 8.524 303.915 9.304 303.507C10.084 303.099 10.972 302.895 11.968 302.895ZM11.95 311.247C12.694 311.247 13.342 311.097 13.894 310.797C14.446 310.497 14.866 310.089 15.154 309.573C15.454 309.069 15.604 308.511 15.604 307.899C15.604 307.287 15.46 306.729 15.172 306.225C14.884 305.721 14.464 305.319 13.912 305.019C13.36 304.719 12.712 304.569 11.968 304.569C11.212 304.569 10.552 304.719 9.988 305.019C9.436 305.319 9.01 305.721 8.71 306.225C8.422 306.729 8.278 307.287 8.278 307.899C8.278 308.511 8.422 309.069 8.71 309.573C9.01 310.089 9.436 310.497 9.988 310.797C10.552 311.097 11.206 311.247 11.95 311.247ZM15.262 317.309C15.826 317.597 16.264 318.005 16.576 318.533C16.888 319.073 17.044 319.727 17.044 320.495H15.352V320.063C15.352 318.227 14.356 317.309 12.364 317.309H7V315.671H16.864V317.309H15.262ZM15.514 324.384H9.7C9.22 324.384 8.878 324.486 8.674 324.69C8.482 324.894 8.386 325.248 8.386 325.752V326.958H7V325.482C7 324.57 7.21 323.886 7.63 323.43C8.05 322.974 8.74 322.746 9.7 322.746H15.514V321.468H16.864V322.746H19.348V324.384H16.864V326.958H15.514V324.384ZM16.864 337.691H7V336.053H8.458C7.954 335.741 7.558 335.303 7.27 334.739C6.994 334.187 6.856 333.575 6.856 332.903C6.856 332.135 7.012 331.445 7.324 330.833C7.648 330.221 8.128 329.735 8.764 329.375C9.4 329.027 10.174 328.853 11.086 328.853H16.864V330.473H11.302C10.33 330.473 9.58 330.719 9.052 331.211C8.536 331.703 8.278 332.375 8.278 333.227C8.278 334.103 8.548 334.793 9.088 335.297C9.628 335.801 10.414 336.053 11.446 336.053H16.864V337.691ZM15.046 342.094C15.61 342.418 16.078 342.898 16.45 343.534C16.834 344.182 17.026 344.932 17.026 345.784C17.026 346.66 16.816 347.452 16.396 348.16C15.976 348.88 15.382 349.444 14.614 349.852C13.858 350.26 12.976 350.464 11.968 350.464C10.972 350.464 10.084 350.26 9.304 349.852C8.524 349.444 7.918 348.88 7.486 348.16C7.054 347.452 6.838 346.66 6.838 345.784C6.838 344.944 7.024 344.2 7.396 343.552C7.78 342.916 8.254 342.43 8.818 342.094H2.32V340.456H16.864V342.094H15.046ZM11.968 348.79C12.712 348.79 13.36 348.64 13.912 348.34C14.464 348.04 14.884 347.632 15.172 347.116C15.46 346.612 15.604 346.054 15.604 345.442C15.604 344.842 15.454 344.284 15.154 343.768C14.866 343.264 14.44 342.856 13.876 342.544C13.324 342.244 12.682 342.094 11.95 342.094C11.206 342.094 10.552 342.244 9.988 342.544C9.436 342.856 9.01 343.264 8.71 343.768C8.422 344.284 8.278 344.842 8.278 345.442C8.278 346.054 8.422 346.612 8.71 347.116C9.01 347.632 9.436 348.04 9.988 348.34C10.552 348.64 11.212 348.79 11.968 348.79ZM19.456 370.145H7V368.507H16.288L7 364.367V363.215L16.306 359.057H7V357.419H19.456V359.183L9.16 363.791L19.456 368.399V370.145ZM6.874 378.611C6.874 377.447 7.144 376.385 7.684 375.425C8.236 374.465 8.998 373.703 9.97 373.139C10.954 372.587 12.058 372.311 13.282 372.311C14.506 372.311 15.604 372.587 16.576 373.139C17.56 373.703 18.322 374.465 18.862 375.425C19.414 376.385 19.69 377.447 19.69 378.611C19.69 379.787 19.414 380.855 18.862 381.815C18.322 382.775 17.566 383.531 16.594 384.083C15.622 384.635 14.518 384.911 13.282 384.911C12.046 384.911 10.942 384.635 9.97 384.083C8.998 383.531 8.236 382.775 7.684 381.815C7.144 380.855 6.874 379.787 6.874 378.611ZM8.296 378.611C8.296 379.487 8.5 380.273 8.908 380.969C9.316 381.677 9.898 382.229 10.654 382.625C11.41 383.033 12.286 383.237 13.282 383.237C14.29 383.237 15.166 383.033 15.91 382.625C16.666 382.229 17.248 381.683 17.656 380.987C18.064 380.291 18.268 379.499 18.268 378.611C18.268 377.723 18.064 376.931 17.656 376.235C17.248 375.539 16.666 374.987 15.91 374.579C15.166 374.183 14.29 373.985 13.282 373.985C12.286 373.985 11.41 374.183 10.654 374.579C9.898 374.987 9.316 375.539 8.908 376.235C8.5 376.943 8.296 377.735 8.296 378.611ZM17.044 391.88C17.044 393.08 16.678 394.052 15.946 394.796C15.226 395.54 14.182 395.912 12.814 395.912H7V394.292H12.58C13.564 394.292 14.314 394.046 14.83 393.554C15.358 393.062 15.622 392.39 15.622 391.538C15.622 390.674 15.352 389.984 14.812 389.468C14.272 388.964 13.486 388.712 12.454 388.712H7V387.074H16.864V388.712H15.46C15.964 389.036 16.354 389.474 16.63 390.026C16.906 390.59 17.044 391.208 17.044 391.88ZM7 404.095L11.356 400.225H7V398.587H20.32V400.225H12.49L16.864 404.023V406.309L11.95 401.665L7 406.327V404.095Z" fill="#191C2F"/>
<path d="M19.546 461.154L7 457.518V455.682L17.098 452.766L7 449.742L6.982 447.924L19.546 444.414V446.16L8.908 448.896L19.546 451.92V453.756L8.944 456.636L19.546 459.39V461.154ZM6.874 468.635C6.874 467.471 7.144 466.409 7.684 465.449C8.236 464.489 8.998 463.727 9.97 463.163C10.954 462.611 12.058 462.335 13.282 462.335C14.506 462.335 15.604 462.611 16.576 463.163C17.56 463.727 18.322 464.489 18.862 465.449C19.414 466.409 19.69 467.471 19.69 468.635C19.69 469.811 19.414 470.879 18.862 471.839C18.322 472.799 17.566 473.555 16.594 474.107C15.622 474.659 14.518 474.935 13.282 474.935C12.046 474.935 10.942 474.659 9.97 474.107C8.998 473.555 8.236 472.799 7.684 471.839C7.144 470.879 6.874 469.811 6.874 468.635ZM8.296 468.635C8.296 469.511 8.5 470.297 8.908 470.993C9.316 471.701 9.898 472.253 10.654 472.649C11.41 473.057 12.286 473.261 13.282 473.261C14.29 473.261 15.166 473.057 15.91 472.649C16.666 472.253 17.248 471.707 17.656 471.011C18.064 470.315 18.268 469.523 18.268 468.635C18.268 467.747 18.064 466.955 17.656 466.259C17.248 465.563 16.666 465.011 15.91 464.603C15.166 464.207 14.29 464.009 13.282 464.009C12.286 464.009 11.41 464.207 10.654 464.603C9.898 465.011 9.316 465.563 8.908 466.259C8.5 466.967 8.296 467.759 8.296 468.635ZM19.456 489.823H7V488.185H16.288L7 484.045V482.893L16.306 478.735H7V477.097H19.456V478.861L9.16 483.469L19.456 488.077V489.823Z" fill="#191C2F"/>
<path d="M18.214 524.024H14.02V528.596H12.67V524.024H8.35V529.136H7V522.386H19.564V529.136H18.214V524.024ZM8.35 532.839V537.681H7V530.967H8.35L15.532 535.755V531.003H16.864V537.645H15.532L8.35 532.839ZM16.864 548.302L2.356 542.362V540.67L7.108 542.614L16.864 538.636V540.454L8.872 543.55L16.864 546.61V548.302ZM19.546 551.587H7V549.949H19.546V551.587ZM17.044 559.184C17.044 560.384 16.678 561.356 15.946 562.1C15.226 562.844 14.182 563.216 12.814 563.216H7V561.596H12.58C13.564 561.596 14.314 561.35 14.83 560.858C15.358 560.366 15.622 559.694 15.622 558.842C15.622 557.978 15.352 557.288 14.812 556.772C14.272 556.268 13.486 556.016 12.454 556.016H7V554.378H16.864V556.016H15.46C15.964 556.34 16.354 556.778 16.63 557.33C16.906 557.894 17.044 558.512 17.044 559.184ZM15.514 567.89H9.7C9.22 567.89 8.878 567.992 8.674 568.196C8.482 568.4 8.386 568.754 8.386 569.258V570.464H7V568.988C7 568.076 7.21 567.392 7.63 566.936C8.05 566.48 8.74 566.252 9.7 566.252H15.514V564.974H16.864V566.252H19.348V567.89H16.864V570.464H15.514V567.89ZM12.31 581.449C11.998 581.449 11.668 581.431 11.32 581.395V573.511C10.348 573.571 9.586 573.901 9.034 574.501C8.494 575.113 8.224 575.851 8.224 576.715C8.224 577.423 8.386 578.011 8.71 578.479C9.046 578.959 9.49 579.295 10.042 579.487V581.251C9.094 580.987 8.32 580.459 7.72 579.667C7.132 578.875 6.838 577.891 6.838 576.715C6.838 575.779 7.048 574.939 7.468 574.195C7.888 573.463 8.482 572.887 9.25 572.467C10.03 572.047 10.93 571.837 11.95 571.837C12.97 571.837 13.864 572.041 14.632 572.449C15.4 572.857 15.988 573.427 16.396 574.159C16.816 574.903 17.026 575.755 17.026 576.715C17.026 577.651 16.822 578.479 16.414 579.199C16.006 579.919 15.442 580.471 14.722 580.855C14.014 581.251 13.21 581.449 12.31 581.449ZM12.652 579.757C13.276 579.757 13.81 579.619 14.254 579.343C14.71 579.067 15.052 578.689 15.28 578.209C15.52 577.741 15.64 577.219 15.64 576.643C15.64 575.815 15.376 575.107 14.848 574.519C14.32 573.943 13.588 573.613 12.652 573.529V579.757ZM15.262 585.249C15.826 585.537 16.264 585.945 16.576 586.473C16.888 587.013 17.044 587.667 17.044 588.435H15.352V588.003C15.352 586.167 14.356 585.249 12.364 585.249H7L7 583.611H16.864V585.249H15.262ZM17.044 595.131C17.044 596.331 16.678 597.303 15.946 598.047C15.226 598.791 14.182 599.163 12.814 599.163H7V597.543H12.58C13.564 597.543 14.314 597.297 14.83 596.805C15.358 596.313 15.622 595.641 15.622 594.789C15.622 593.925 15.352 593.235 14.812 592.719C14.272 592.215 13.486 591.963 12.454 591.963H7V590.325H16.864V591.963H15.46C15.964 592.287 16.354 592.725 16.63 593.277C16.906 593.841 17.044 594.459 17.044 595.131Z" fill="#191C2F"/>
<path d="M13.462 641.668C13.39 642.124 13.204 642.538 12.904 642.91C12.604 643.294 12.232 643.594 11.788 643.81C11.344 644.038 10.87 644.152 10.366 644.152C9.73 644.152 9.154 643.99 8.638 643.666C8.134 643.342 7.732 642.868 7.432 642.244C7.144 641.632 7 640.906 7 640.066V635.386H19.546V639.886C19.546 640.738 19.402 641.464 19.114 642.064C18.838 642.664 18.46 643.114 17.98 643.414C17.5 643.714 16.96 643.864 16.36 643.864C15.616 643.864 14.998 643.66 14.506 643.252C14.026 642.856 13.678 642.328 13.462 641.668ZM14.128 637.024V639.778C14.128 640.546 14.308 641.14 14.668 641.56C15.028 641.98 15.526 642.19 16.162 642.19C16.798 642.19 17.296 641.98 17.656 641.56C18.016 641.14 18.196 640.534 18.196 639.742V637.024H14.128ZM8.35 639.922C8.35 640.738 8.542 641.374 8.926 641.83C9.31 642.286 9.844 642.514 10.528 642.514C11.224 642.514 11.77 642.274 12.166 641.794C12.574 641.314 12.778 640.672 12.778 639.868V637.024H8.35V639.922ZM6.838 650.727C6.838 649.803 7.048 648.963 7.468 648.207C7.888 647.463 8.482 646.875 9.25 646.443C10.03 646.023 10.93 645.813 11.95 645.813C12.958 645.813 13.846 646.029 14.614 646.461C15.394 646.905 15.988 647.505 16.396 648.261C16.816 649.017 17.026 649.863 17.026 650.799C17.026 651.735 16.816 652.581 16.396 653.337C15.988 654.093 15.4 654.687 14.632 655.119C13.864 655.563 12.97 655.785 11.95 655.785C10.93 655.785 10.03 655.557 9.25 655.101C8.482 654.657 7.888 654.051 7.468 653.283C7.048 652.515 6.838 651.663 6.838 650.727ZM8.278 650.727C8.278 651.315 8.416 651.867 8.692 652.383C8.968 652.899 9.382 653.313 9.934 653.625C10.486 653.949 11.158 654.111 11.95 654.111C12.742 654.111 13.414 653.955 13.966 653.643C14.518 653.331 14.926 652.923 15.19 652.419C15.466 651.915 15.604 651.369 15.604 650.781C15.604 650.181 15.466 649.629 15.19 649.125C14.926 648.633 14.518 648.237 13.966 647.937C13.414 647.637 12.742 647.487 11.95 647.487C11.146 647.487 10.468 647.631 9.916 647.919C9.364 648.219 8.95 648.615 8.674 649.107C8.41 649.599 8.278 650.139 8.278 650.727ZM6.838 662.241C6.838 661.317 7.048 660.477 7.468 659.721C7.888 658.977 8.482 658.389 9.25 657.957C10.03 657.537 10.93 657.327 11.95 657.327C12.958 657.327 13.846 657.543 14.614 657.975C15.394 658.419 15.988 659.019 16.396 659.775C16.816 660.531 17.026 661.377 17.026 662.313C17.026 663.249 16.816 664.095 16.396 664.851C15.988 665.607 15.4 666.201 14.632 666.633C13.864 667.077 12.97 667.299 11.95 667.299C10.93 667.299 10.03 667.071 9.25 666.615C8.482 666.171 7.888 665.565 7.468 664.797C7.048 664.029 6.838 663.177 6.838 662.241ZM8.278 662.241C8.278 662.829 8.416 663.381 8.692 663.897C8.968 664.413 9.382 664.827 9.934 665.139C10.486 665.463 11.158 665.625 11.95 665.625C12.742 665.625 13.414 665.469 13.966 665.157C14.518 664.845 14.926 664.437 15.19 663.933C15.466 663.429 15.604 662.883 15.604 662.295C15.604 661.695 15.466 661.143 15.19 660.639C14.926 660.147 14.518 659.751 13.966 659.451C13.414 659.151 12.742 659.001 11.95 659.001C11.146 659.001 10.468 659.145 9.916 659.433C9.364 659.733 8.95 660.129 8.674 660.621C8.41 661.113 8.278 661.653 8.278 662.241ZM7 674.96L11.356 671.09H7V669.452H20.32V671.09H12.49L16.864 674.888V677.174L11.95 672.53L7 677.192V674.96ZM7 684.224L11.356 680.354H7V678.716H20.32V680.354H12.49L16.864 684.152V686.438L11.95 681.794L7 686.456V684.224ZM11.968 687.368C12.976 687.368 13.858 687.572 14.614 687.98C15.382 688.388 15.976 688.946 16.396 689.654C16.816 690.374 17.026 691.172 17.026 692.048C17.026 692.912 16.84 693.662 16.468 694.298C16.096 694.934 15.628 695.408 15.064 695.72H16.864V697.376H7V695.72H8.836C8.26 695.396 7.78 694.91 7.396 694.262C7.024 693.626 6.838 692.882 6.838 692.03C6.838 691.154 7.054 690.362 7.486 689.654C7.918 688.946 8.524 688.388 9.304 687.98C10.084 687.572 10.972 687.368 11.968 687.368ZM11.95 695.72C12.694 695.72 13.342 695.57 13.894 695.27C14.446 694.97 14.866 694.562 15.154 694.046C15.454 693.542 15.604 692.984 15.604 692.372C15.604 691.76 15.46 691.202 15.172 690.698C14.884 690.194 14.464 689.792 13.912 689.492C13.36 689.192 12.712 689.042 11.968 689.042C11.212 689.042 10.552 689.192 9.988 689.492C9.436 689.792 9.01 690.194 8.71 690.698C8.422 691.202 8.278 691.76 8.278 692.372C8.278 692.984 8.422 693.542 8.71 694.046C9.01 694.562 9.436 694.97 9.988 695.27C10.552 695.57 11.206 695.72 11.95 695.72ZM15.262 701.782C15.826 702.07 16.264 702.478 16.576 703.006C16.888 703.546 17.044 704.2 17.044 704.968H15.352V704.536C15.352 702.7 14.356 701.782 12.364 701.782H7V700.144H16.864V701.782H15.262ZM6.838 711.161C6.838 710.237 7.048 709.397 7.468 708.641C7.888 707.897 8.482 707.309 9.25 706.877C10.03 706.457 10.93 706.247 11.95 706.247C12.958 706.247 13.846 706.463 14.614 706.895C15.394 707.339 15.988 707.939 16.396 708.695C16.816 709.451 17.026 710.297 17.026 711.233C17.026 712.169 16.816 713.015 16.396 713.771C15.988 714.527 15.4 715.121 14.632 715.553C13.864 715.997 12.97 716.219 11.95 716.219C10.93 716.219 10.03 715.991 9.25 715.535C8.482 715.091 7.888 714.485 7.468 713.717C7.048 712.949 6.838 712.097 6.838 711.161ZM8.278 711.161C8.278 711.749 8.416 712.301 8.692 712.817C8.968 713.333 9.382 713.747 9.934 714.059C10.486 714.383 11.158 714.545 11.95 714.545C12.742 714.545 13.414 714.389 13.966 714.077C14.518 713.765 14.926 713.357 15.19 712.853C15.466 712.349 15.604 711.803 15.604 711.215C15.604 710.615 15.466 710.063 15.19 709.559C14.926 709.067 14.518 708.671 13.966 708.371C13.414 708.071 12.742 707.921 11.95 707.921C11.146 707.921 10.468 708.065 9.916 708.353C9.364 708.653 8.95 709.049 8.674 709.541C8.41 710.033 8.278 710.573 8.278 711.161Z" fill="#191C2F"/>
</svg>
