<svg width="741" height="620" viewBox="0 0 741 620" fill="none" xmlns="http://www.w3.org/2000/svg">
<rect width="620" height="620" rx="310" fill="white"/>
<rect x="601" y="119" width="140" height="140" rx="70" fill="#3FF81E"/>
<path d="M628.576 180.32V182.552H624.136V197H621.4V182.552H616.936V180.32H628.576ZM632.739 182.024C632.243 182.024 631.827 181.856 631.491 181.52C631.155 181.184 630.987 180.768 630.987 180.272C630.987 179.776 631.155 179.36 631.491 179.024C631.827 178.688 632.243 178.52 632.739 178.52C633.219 178.52 633.627 178.688 633.963 179.024C634.299 179.36 634.467 179.776 634.467 180.272C634.467 180.768 634.299 181.184 633.963 181.52C633.627 181.856 633.219 182.024 632.739 182.024ZM634.083 183.776V197H631.347V183.776H634.083ZM653.683 183.56C654.723 183.56 655.651 183.776 656.467 184.208C657.299 184.64 657.947 185.28 658.411 186.128C658.891 186.976 659.131 188 659.131 189.2V197H656.419V189.608C656.419 188.424 656.123 187.52 655.531 186.896C654.939 186.256 654.131 185.936 653.107 185.936C652.083 185.936 651.267 186.256 650.659 186.896C650.067 187.52 649.771 188.424 649.771 189.608V197H647.059V189.608C647.059 188.424 646.763 187.52 646.171 186.896C645.579 186.256 644.771 185.936 643.747 185.936C642.723 185.936 641.907 186.256 641.299 186.896C640.707 187.52 640.411 188.424 640.411 189.608V197H637.675V183.776H640.411V185.288C640.859 184.744 641.427 184.32 642.115 184.016C642.803 183.712 643.539 183.56 644.323 183.56C645.379 183.56 646.323 183.784 647.155 184.232C647.987 184.68 648.627 185.328 649.075 186.176C649.475 185.376 650.099 184.744 650.947 184.28C651.795 183.8 652.707 183.56 653.683 183.56ZM674.733 190.064C674.733 190.56 674.701 191.008 674.637 191.408H664.533C664.613 192.464 665.005 193.312 665.709 193.952C666.413 194.592 667.277 194.912 668.301 194.912C669.773 194.912 670.813 194.296 671.421 193.064H674.372C673.973 194.28 673.245 195.28 672.189 196.064C671.149 196.832 669.853 197.216 668.301 197.216C667.037 197.216 665.901 196.936 664.893 196.376C663.901 195.8 663.117 195 662.541 193.976C661.981 192.936 661.701 191.736 661.701 190.376C661.701 189.016 661.973 187.824 662.517 186.8C663.077 185.76 663.853 184.96 664.845 184.4C665.853 183.84 667.005 183.56 668.301 183.56C669.549 183.56 670.661 183.832 671.637 184.376C672.613 184.92 673.373 185.688 673.917 186.68C674.461 187.656 674.733 188.784 674.733 190.064ZM671.877 189.2C671.861 188.192 671.501 187.384 670.797 186.776C670.093 186.168 669.221 185.864 668.181 185.864C667.237 185.864 666.429 186.168 665.757 186.776C665.085 187.368 664.685 188.176 664.557 189.2H671.877ZM686.395 179.24V197H683.659V179.24H686.395ZM691.38 182.024C690.884 182.024 690.468 181.856 690.132 181.52C689.796 181.184 689.628 180.768 689.628 180.272C689.628 179.776 689.796 179.36 690.132 179.024C690.468 178.688 690.884 178.52 691.38 178.52C691.86 178.52 692.268 178.688 692.604 179.024C692.94 179.36 693.108 179.776 693.108 180.272C693.108 180.768 692.94 181.184 692.604 181.52C692.268 181.856 691.86 182.024 691.38 182.024ZM692.724 183.776V197H689.988V183.776H692.724ZM702.988 183.56C704.028 183.56 704.956 183.776 705.772 184.208C706.604 184.64 707.252 185.28 707.716 186.128C708.18 186.976 708.412 188 708.412 189.2V197H705.7V189.608C705.7 188.424 705.404 187.52 704.812 186.896C704.22 186.256 703.412 185.936 702.388 185.936C701.364 185.936 700.548 186.256 699.94 186.896C699.348 187.52 699.052 188.424 699.052 189.608V197H696.316V183.776H699.052V185.288C699.5 184.744 700.068 184.32 700.756 184.016C701.46 183.712 702.204 183.56 702.988 183.56ZM724.022 190.064C724.022 190.56 723.99 191.008 723.926 191.408H713.822C713.902 192.464 714.294 193.312 714.998 193.952C715.702 194.592 716.566 194.912 717.59 194.912C719.062 194.912 720.102 194.296 720.71 193.064H723.662C723.262 194.28 722.534 195.28 721.478 196.064C720.438 196.832 719.142 197.216 717.59 197.216C716.326 197.216 715.19 196.936 714.182 196.376C713.19 195.8 712.406 195 711.83 193.976C711.27 192.936 710.99 191.736 710.99 190.376C710.99 189.016 711.262 187.824 711.806 186.8C712.366 185.76 713.142 184.96 714.134 184.4C715.142 183.84 716.294 183.56 717.59 183.56C718.838 183.56 719.95 183.832 720.926 184.376C721.902 184.92 722.662 185.688 723.206 186.68C723.75 187.656 724.022 188.784 724.022 190.064ZM721.166 189.2C721.15 188.192 720.79 187.384 720.086 186.776C719.382 186.168 718.51 185.864 717.47 185.864C716.526 185.864 715.718 186.168 715.046 186.776C714.374 187.368 713.974 188.176 713.846 189.2H721.166Z" fill="black"/>
</svg>
