<svg width="593" height="539" viewBox="0 0 593 539" fill="none" xmlns="http://www.w3.org/2000/svg">
<g clip-path="url(#clip0)">
<path d="M155.556 401.98L153.665 401.861C147.474 401.374 143.322 404.536 138.106 407.595C131.9 411.244 124.807 413.254 118.764 417.081C117.862 417.657 116.858 418.721 117.404 419.637C117.774 420.243 118.616 420.332 119.34 420.346C134.633 420.642 149.882 420.701 165.146 420.701H442.2C452.301 420.66 462.389 419.974 472.402 418.647C473.121 418.625 473.808 418.342 474.333 417.85C474.858 417.359 475.186 416.692 475.255 415.976C475.323 415.26 475.129 414.544 474.707 413.961C474.285 413.378 473.665 412.969 472.964 412.811C464.374 409.855 455.744 407.092 447.076 404.521C425.044 397.901 400.309 400.798 377.628 401.27C353.749 401.788 329.827 402.379 305.963 400.842C288.779 399.734 275.288 400.842 258.044 401.403C245.469 401.773 233.028 402.881 220.409 402.689L175.593 402.142C168.914 402.187 162.191 402.379 155.556 401.98Z" fill="url(#paint0_linear)"/>
<path d="M243.755 403.664H356.335L336.417 332.059H260.556L243.755 403.664Z" fill="url(#paint1_linear)"/>
<path d="M243.755 403.664H356.335L336.417 332.059H260.556L243.755 403.664Z" fill="url(#paint2_linear)"/>
<path d="M468.678 140.737V325.439C468.647 330.782 466.499 335.895 462.704 339.656C458.909 343.417 453.778 345.521 448.435 345.505H156.724C151.372 345.505 146.238 343.381 142.451 339.599C138.664 335.818 136.532 330.688 136.524 325.336V140.737C136.524 135.38 138.653 130.242 142.441 126.454C146.229 122.666 151.366 120.538 156.724 120.538H448.435C451.088 120.532 453.715 121.049 456.168 122.058C458.621 123.068 460.851 124.551 462.731 126.422C464.611 128.294 466.103 130.517 467.124 132.966C468.144 135.414 468.673 138.04 468.678 140.692V140.737Z" fill="url(#paint3_linear)"/>
<path d="M468.678 140.751V302.654H136.524V140.751C136.524 135.393 138.652 130.254 142.44 126.463C146.227 122.673 151.365 120.542 156.724 120.538H448.435C451.091 120.536 453.722 121.057 456.177 122.072C458.632 123.087 460.863 124.575 462.743 126.452C464.623 128.329 466.114 130.558 467.133 133.011C468.151 135.465 468.676 138.095 468.678 140.751Z" fill="#DCE6FF"/>
<path d="M463.684 144.549V297.246H141.563V144.549C141.606 139.394 143.688 134.466 147.354 130.841C151.02 127.217 155.972 125.191 161.127 125.207H444.076C449.239 125.179 454.202 127.2 457.877 130.825C461.553 134.451 463.641 139.386 463.684 144.549Z" fill="white"/>
<path opacity="0.18" d="M463.684 144.549V297.246H141.563V144.549C141.606 139.394 143.688 134.466 147.354 130.841C151.02 127.217 155.972 125.191 161.127 125.207H444.076C449.239 125.179 454.202 127.2 457.877 130.825C461.553 134.451 463.641 139.386 463.684 144.549Z" fill="url(#paint4_linear)"/>
<path d="M462.15 105.271V168.395C462.15 170.723 461.225 172.956 459.579 174.602C457.933 176.248 455.7 177.172 453.373 177.172H357.608V125.456C357.62 120.104 359.752 114.974 363.538 111.191C367.324 107.408 372.455 105.279 377.807 105.271H462.15Z" fill="url(#paint5_linear)"/>
<path d="M446.709 76H349.792C344.936 76 341 79.9362 341 84.7918V160.889C341 165.745 344.936 169.681 349.792 169.681H446.709C451.564 169.681 455.501 165.745 455.501 160.889V84.7918C455.501 79.9362 451.564 76 446.709 76Z" fill="#EEFAFF"/>
<path d="M439.971 95.4014H356.012V100.676H439.971V95.4014Z" fill="#BBFFCA"/>
<path d="M408.291 111.212H356.012V116.487H408.291V111.212Z" fill="#80FFF7"/>
<path d="M439.971 127.022H356.012V132.298H439.971V127.022Z" fill="#FFBDBD"/>
<path d="M408.291 142.833H356.012V148.108H408.291V142.833Z" fill="#FFEE94"/>
<path d="M199.288 288.195H122.628C119.52 288.195 117 290.718 117 293.83V344.901C117 348.014 119.52 350.537 122.628 350.537H199.288C202.396 350.537 204.916 348.014 204.916 344.901V293.83C204.916 290.718 202.396 288.195 199.288 288.195Z" fill="#EEFAFF"/>
<path d="M196.984 366.169C196.984 366.169 179.497 399.262 176.223 409.663C172.95 420.064 173.252 450.712 173.252 450.712H182.77C182.77 450.712 182.77 419.787 186.811 414.58C190.853 409.373 213.376 382.798 213.376 382.798L196.984 366.169Z" fill="#473F47"/>
<path d="M195.045 370.191C195.045 370.191 205.646 413.055 211.135 422.649C216.624 432.243 231.631 449.527 231.631 449.527L239.714 445.19C239.714 445.19 218.928 417.883 220.086 409.89C221.245 401.898 224.191 371.313 224.191 371.313C224.191 371.313 209.549 363.358 195.045 370.191Z" fill="#473F47"/>
<path d="M230.989 308.593C230.989 308.593 239.437 312.917 236.29 323.318C233.142 333.719 223.183 357.142 224.266 364.076C225.349 371.01 224.191 371.237 224.191 371.237C224.191 371.237 201.969 379.255 195.045 370.153C195.045 370.153 208.264 323.318 211.072 317.468C213.88 311.619 221.899 305.139 230.989 308.593Z" fill="url(#paint6_linear)"/>
<path d="M226.608 331.714C225.787 334.274 224.636 336.715 223.184 338.976C222.451 340.328 221.573 341.597 220.565 342.758C217.707 345.834 213.426 347.007 209.599 348.696C208.914 348.965 208.28 349.349 207.723 349.831C207.154 350.478 206.702 351.22 206.389 352.024C204.311 356.575 201.516 361.189 196.959 363.244C198.835 356.071 200.736 348.898 202.876 341.812C203.125 340.499 203.656 339.255 204.432 338.166C205.208 337.078 206.211 336.171 207.371 335.509C212.155 331.992 216.901 328.411 221.736 324.957C223.385 323.772 225.11 322.435 226.507 324.579C227.729 326.457 227.175 329.748 226.608 331.714Z" fill="url(#paint7_linear)"/>
<path d="M215.277 290.313C214.798 290.805 214.182 291.309 214.182 291.99C214.262 292.502 214.475 292.984 214.798 293.389C216.259 295.91 214.924 299.44 216.687 301.722C217.344 302.503 218.222 303.066 219.205 303.336C220.204 303.471 221.172 303.783 222.063 304.256C222.738 304.922 223.123 305.829 223.133 306.778C223.234 307.912 223.032 309.047 223.133 310.182C223.108 310.562 223.18 310.942 223.343 311.286C223.506 311.631 223.755 311.927 224.065 312.148C224.378 312.286 224.718 312.351 225.059 312.337C227.022 312.426 228.988 312.274 230.914 311.883C231.19 311.847 231.454 311.743 231.682 311.581C231.905 311.32 232.049 311.001 232.097 310.661C232.928 306.878 233.784 303.096 234.615 299.314C235.103 297.954 235.714 296.642 236.441 295.393C237.103 293.506 237.327 291.493 237.095 289.506C236.881 288.018 236.376 286.588 235.61 285.295C234.981 284.076 234.065 283.028 232.941 282.244C232.111 281.755 231.217 281.386 230.284 281.148C227.061 280.152 222.025 278.815 219.23 281.589C216.939 283.909 217.694 287.905 215.277 290.313Z" fill="#FCBDBA"/>
<path d="M214.937 294.549C215.63 294.12 217.871 295.015 218.714 295.003C221.371 294.927 223.536 296.263 225.664 294.624C227.401 293.364 228.094 291.107 228.698 289.04C228.711 288.926 228.711 288.812 228.698 288.699C228.673 288.554 228.618 288.417 228.534 288.296C227.552 286.858 225.551 286.707 223.864 286.291C220.854 285.42 218.15 283.721 216.058 281.387C215.503 280.909 215.13 280.255 215 279.534C215.031 279.117 215.162 278.714 215.381 278.359C215.6 278.004 215.901 277.706 216.259 277.491C218.411 276.13 221.014 275.677 223.498 276.231C225.947 276.797 228.364 277.496 230.738 278.324C233.029 278.966 235.396 279.357 237.675 280.089C238.161 280.228 238.624 280.441 239.047 280.719C239.604 281.16 240.037 281.738 240.306 282.396C240.71 283.224 240.92 284.134 240.92 285.056C240.92 285.978 240.71 286.887 240.306 287.716C240.142 287.959 240.018 288.227 239.941 288.51C239.928 288.796 239.966 289.082 240.054 289.355C240.621 291.876 239.374 294.397 238.166 296.578L235.018 302.453C234.699 303.162 234.226 303.791 233.633 304.294C233.333 304.538 232.962 304.678 232.576 304.691C232.19 304.705 231.809 304.592 231.493 304.37C230.838 303.802 230.801 302.668 230.033 302.289C229.772 302.204 229.497 302.177 229.225 302.209C228.953 302.242 228.691 302.334 228.459 302.479C227.074 303.147 225.941 304.206 224.581 305C222.23 306.312 219.461 306.651 216.863 305.946C216.1 305.757 215.387 305.404 214.774 304.912C213.426 303.752 213.515 302.201 213.792 300.625C214.069 299.049 213.515 295.431 214.937 294.549Z" fill="#473F47"/>
<path d="M229.025 324.919C229.025 324.919 219.935 348.33 183.853 352.806L182.594 347.763C182.594 347.763 206.691 338.22 211.89 328.537C213.384 325.817 214.676 322.989 215.756 320.078C217.392 315.54 222.642 313.094 226.847 315.451C229.34 316.851 230.889 319.624 229.025 324.919Z" fill="url(#paint8_linear)"/>
<path d="M176.487 346.717C176.528 347.356 176.796 347.96 177.243 348.419C174.93 349.283 172.484 349.735 170.016 349.755C169.566 349.703 169.114 349.829 168.757 350.108C168.279 350.625 168.656 351.47 169.097 352.012C170.972 354.13 173.565 355.477 176.374 355.794C178.204 356.15 180.101 355.841 181.725 354.924C182.846 354.082 183.791 353.028 184.507 351.823C184.653 351.638 184.764 351.429 184.834 351.205C184.889 350.762 184.781 350.314 184.532 349.944C184.243 349.402 183.84 348.33 183.273 348.066C182.707 347.801 181.926 348.066 181.347 347.965C179.685 347.587 178.199 346.528 176.487 346.717Z" fill="#FCBDBA"/>
<path d="M246.412 450.144C246.594 450.275 246.742 450.447 246.844 450.647C246.947 450.846 247 451.067 247 451.292C247 451.516 246.947 451.737 246.844 451.936C246.742 452.136 246.594 452.308 246.412 452.439C242.504 456.654 237.824 460.078 232.626 462.525C231.191 463.193 229.214 463.672 228.232 462.424C227.25 461.176 228.295 459.285 229.126 457.847C230.248 455.918 230.936 453.767 231.14 451.544C231.142 450.783 231.291 450.029 231.581 449.325C232.601 447.447 237.612 445.543 239.689 445.543C242.446 445.518 244.725 448.228 246.412 450.144Z" fill="#5350B6"/>
<path d="M185.917 457.495C186.016 457.697 186.065 457.92 186.058 458.145C186.052 458.37 185.991 458.59 185.88 458.786C185.77 458.982 185.614 459.148 185.425 459.27C185.236 459.392 185.021 459.466 184.797 459.486C179.318 461.201 173.56 461.843 167.838 461.377C166.252 461.239 164.3 460.671 164.061 459.096C163.822 457.52 165.673 456.398 167.108 455.578C169.025 454.457 170.682 452.94 171.968 451.128C172.34 450.464 172.846 449.885 173.453 449.426C175.266 448.291 180.579 449.086 182.392 450.132C184.784 451.506 185.414 454.986 185.917 457.495Z" fill="#5350B6"/>
<path d="M591.464 461.408C591.884 461.608 592.265 461.881 592.589 462.216C592.974 462.59 593.22 463.084 593.289 463.616C593.357 464.149 593.242 464.689 592.964 465.148C592.366 465.746 591.56 466.09 590.714 466.109L560.91 470.744C555.7 471.551 550.45 472.359 545.191 472.099C542.704 471.974 540.235 471.61 537.817 471.013C533.327 469.907 529.049 468.003 524.511 467.167C519.973 466.331 515.455 466.879 510.917 466.59C505.494 466.254 500.341 464.033 495.063 462.745C487.708 461.014 479.988 462.35 472.883 460.389C465.445 458.386 457.805 457.229 450.107 456.938C442.3 456.582 434.484 456.813 426.677 456.822C422.764 456.822 418.851 456.822 414.938 456.601C412.131 456.466 406.709 454.794 404.142 455.64C415.525 451.871 427.668 451.544 439.608 451.304C450.126 451.105 460.641 450.951 471.152 450.842C484.18 450.717 497.322 450.679 510.061 453.476L492.4 457.562C501.507 459.661 510.829 460.684 520.175 460.61L532.01 460.408C536.404 460.341 540.798 460.408 545.191 460.408C547.047 460.408 549.095 460.091 550.96 460.226C552.825 460.36 554.854 461.35 556.728 462.033C557.776 462.529 558.938 462.738 560.093 462.639C561.131 462.324 562.106 461.832 562.977 461.187C566.669 458.985 571.159 458.899 575.418 459.014C580.28 459.014 585.123 459.611 589.839 460.793C590.4 460.945 590.944 461.151 591.464 461.408Z" fill="url(#paint9_linear)"/>
<path d="M488.929 248.387H421.37C413.671 248.387 407.43 254.628 407.43 262.327V424.941C407.43 432.641 413.671 438.882 421.37 438.882H488.929C496.628 438.882 502.87 432.641 502.87 424.941V262.327C502.87 254.628 496.628 248.387 488.929 248.387Z" fill="url(#paint10_linear)"/>
<path d="M487.506 250.781H422.793C415.349 250.781 409.314 256.816 409.314 264.26V422.682C409.314 430.127 415.349 436.161 422.793 436.161H487.506C494.95 436.161 500.985 430.127 500.985 422.682V264.26C500.985 256.816 494.95 250.781 487.506 250.781Z" fill="#473F47"/>
<path d="M498.495 266.029V419.019C498.505 420.71 498.182 422.386 497.545 423.952C496.907 425.517 495.967 426.942 494.779 428.145C493.591 429.347 492.177 430.304 490.619 430.96C489.061 431.617 487.389 431.96 485.699 431.97H424.706C422.471 431.972 420.275 431.382 418.342 430.258C416.376 429.114 414.745 427.474 413.613 425.502C412.481 423.529 411.887 421.294 411.891 419.019V266.029C411.875 262.613 413.216 259.33 415.619 256.902C418.022 254.474 421.29 253.099 424.706 253.079H435.022V255.001C435.036 256.224 435.407 257.415 436.09 258.429C436.774 259.442 437.74 260.233 438.868 260.703C439.618 261.001 440.417 261.154 441.224 261.155H469.566C471.216 261.144 472.795 260.481 473.957 259.31C475.119 258.139 475.77 256.555 475.767 254.905V253.079H485.747C489.051 253.081 492.223 254.371 494.592 256.674C495.837 257.892 496.825 259.347 497.495 260.954C498.166 262.562 498.506 264.287 498.495 266.029Z" fill="#EEFAFF"/>
<path d="M498.495 266.029V311.542H411.852V266.029C411.845 264.334 412.171 262.655 412.813 261.086C413.455 259.518 414.4 258.092 415.594 256.889C416.788 255.686 418.207 254.73 419.771 254.077C421.335 253.423 423.012 253.084 424.706 253.079H435.042V255.001C435.055 256.224 435.426 257.415 436.11 258.429C436.793 259.442 437.759 260.233 438.887 260.703C439.637 261.001 440.436 261.154 441.243 261.155H469.585C471.235 261.144 472.814 260.481 473.976 259.31C475.138 258.139 475.789 256.555 475.786 254.905V253.079H485.766C489.07 253.081 492.243 254.371 494.611 256.674C495.853 257.893 496.837 259.35 497.504 260.957C498.171 262.564 498.508 264.289 498.495 266.029Z" fill="#D6E2FF"/>
<path d="M555.786 448.89C555.786 448.89 558.728 451.659 558.151 453.63C557.574 455.601 554.93 456.909 554.565 459.312C554.2 461.716 552.777 463.023 551.489 463.023H545.335C545.335 463.023 544.374 461.331 546.681 460.822C548.989 460.312 549.835 457.485 549.691 454.861C549.634 452.82 549.708 450.778 549.912 448.746L554.786 447.573L555.786 448.89Z" fill="#FCBDBA"/>
<path d="M530.905 450.063C530.905 450.063 531.962 461.793 530.674 462.456H514.118C514.118 462.456 514.118 460.485 516.772 460.053C519.425 459.62 524.088 458.014 524.876 454.438C525.665 450.861 530.905 450.063 530.905 450.063Z" fill="#FCBDBA"/>
<path d="M542.672 365.911C539.278 358.037 537.202 355.787 537.596 353.335C537.894 351.518 536.692 319.455 536.692 319.455C536.288 319.32 535.481 319.205 535.039 319.109C534.345 318.947 533.704 318.613 533.175 318.138C532.645 317.662 532.245 317.06 532.01 316.388C531.276 314.047 530.928 311.601 530.981 309.148L530.549 309.235L523.232 310.735C523.232 310.735 523.396 313.109 523.396 315.35V315.407C523.414 316.342 523.128 317.258 522.58 318.016C522.032 318.774 521.252 319.333 520.358 319.609L518.627 320.118C516.948 325.333 515.874 330.723 515.426 336.183C514.916 344.317 520.319 347.855 515.426 364.122C510.359 380.716 544.557 370.247 542.672 365.911Z" fill="#FCBDBA"/>
<path d="M537.596 353.326C537.596 353.326 544.855 363.392 545.537 370.189C546.22 376.986 546.595 400.877 548.037 407.511C549.479 414.145 554.767 426.903 554.767 447.573C554.269 448.437 553.467 449.085 552.517 449.391C551.869 449.619 551.208 449.808 550.537 449.958C549.848 450.117 549.126 450.034 548.491 449.724C547.855 449.415 547.346 448.896 547.047 448.256C543.47 440.805 532.049 416.779 531.462 411.799C531.049 408.271 527.443 384.879 519.579 371.208C517.656 367.92 520.742 354.864 520.742 354.864L537.596 353.326Z" fill="#68E1FD"/>
<path d="M554.777 447.631C554.289 448.475 553.509 449.111 552.584 449.419H552.575C551.923 449.646 551.258 449.836 550.585 449.987C549.897 450.145 549.177 450.062 548.543 449.752C547.91 449.442 547.402 448.924 547.104 448.285C543.518 440.834 532.106 416.808 531.52 411.818C530.467 404.433 528.926 397.127 526.905 389.946C525.078 383.418 522.675 376.621 519.598 371.285C517.675 367.987 520.762 354.941 520.762 354.941L537.596 353.412C537.596 353.412 544.855 363.469 545.537 370.275C546.22 377.082 546.595 400.973 548.037 407.598C549.479 414.222 554.777 426.893 554.777 447.631Z" fill="url(#paint11_linear)"/>
<path d="M552.575 449.371C551.923 449.598 551.258 449.788 550.585 449.938C549.897 450.097 549.177 450.014 548.543 449.704C547.91 449.394 547.402 448.876 547.104 448.237C543.518 440.786 532.106 416.76 531.52 411.77C530.481 404.373 528.953 397.054 526.943 389.859C527.431 389.051 528.218 388.469 529.133 388.24C530.049 388.011 531.017 388.155 531.827 388.638H531.885C535.202 390.446 536.356 397.003 536.933 400.377C537.827 405.761 537.481 411.472 539.673 416.452C540.846 419.125 542.72 421.48 543.595 424.278C544.118 426.583 544.453 428.927 544.595 431.287C545.247 436.036 547.144 440.527 550.094 444.305C551.296 445.814 552.738 447.458 552.575 449.371Z" fill="url(#paint12_linear)"/>
<path d="M523.232 310.725C523.232 310.725 523.396 313.1 523.396 315.34C527.501 315.224 529.664 311.369 530.549 309.225L523.232 310.725Z" fill="#FCBDBA"/>
<path d="M521.935 312.763C521.993 312.828 522.061 312.883 522.136 312.927C522.342 313.04 522.575 313.093 522.809 313.081C523.738 313.062 524.656 312.879 525.521 312.542C526.853 312.167 528.116 311.579 529.261 310.802C530.414 309.934 531.214 308.677 531.51 307.264C531.67 305.989 531.715 304.702 531.645 303.418C531.645 301.64 531.885 299.429 530.857 297.871C529.895 296.458 528.174 296.112 526.636 296.025C524.482 295.891 521.771 295.919 520.079 297.535C519.592 298.017 519.223 298.606 519.002 299.255C518.694 300.513 518.609 301.815 518.752 303.101C518.748 304.148 518.69 305.194 518.579 306.235C518.55 306.427 518.55 306.621 518.579 306.812C518.689 307.098 518.871 307.35 519.108 307.543C520.377 308.927 520.598 311.033 521.723 312.542C521.783 312.625 521.855 312.699 521.935 312.763Z" fill="#FCBDBA"/>
<path d="M522.223 295.852C522.223 295.852 524.876 303.159 528.953 304.245C533.029 305.332 534.798 304.197 534.798 304.197C532.769 302.354 531.435 299.869 531.02 297.159C531.02 297.159 524.223 292.372 522.223 295.852Z" fill="#473F47"/>
<path d="M523.973 308.985C523.726 309.271 523.416 309.496 523.067 309.641C522.718 309.787 522.34 309.848 521.963 309.821C521.647 309.799 521.342 309.693 521.08 309.514C520.818 309.334 520.609 309.089 520.473 308.802C521.633 308.53 522.847 308.594 523.973 308.985Z" fill="#FCBDBA"/>
<path d="M518.925 352.508L516.839 351.864C516.839 351.864 516.781 351.71 516.685 351.422C517.367 351.905 518.124 352.272 518.925 352.508Z" fill="#FCBDBA"/>
<path d="M517.416 353.787C517.416 353.787 512.657 369.083 512.349 374.294C512.042 379.505 521.454 448.323 521.829 450.698C522.204 453.073 524.915 454.399 524.915 454.399C525.857 454.875 526.948 454.962 527.953 454.64C529.154 454.388 530.273 453.843 531.212 453.053C531.212 453.053 534.914 404.021 532.625 386.466C531.226 375.623 530.449 364.709 530.299 353.777L517.416 353.787Z" fill="#68E1FD"/>
<path d="M531.212 453.063C530.267 453.846 529.145 454.387 527.943 454.64C527.058 454.91 526.108 454.88 525.242 454.553C525.124 454.516 525.011 454.464 524.905 454.399C524.905 454.399 522.184 452.957 521.829 450.698C521.473 448.439 512.051 379.505 512.359 374.294C512.666 369.083 517.416 353.787 517.416 353.787H530.308C530.451 364.719 531.224 375.633 532.625 386.475C534.914 404.002 531.212 453.063 531.212 453.063Z" fill="url(#paint13_linear)"/>
<path d="M543.605 341.51C543.451 344.394 540.653 348.172 540.259 349.124C539.298 351.489 538.144 351.864 538.144 351.864C538.452 352.821 538.614 353.82 538.625 354.825C538.625 354.825 528.386 357.498 520.473 356.258C519.269 356.077 518.087 355.774 516.945 355.354C516.347 354.129 516.244 352.721 516.656 351.422C515.906 349.124 512.628 338.452 514.195 332.146C514.57 330.617 515.012 329.107 515.512 327.598C515.954 326.281 516.176 324.964 516.608 323.647C516.898 323.05 516.992 322.377 516.877 321.724C516.815 321.531 516.699 321.36 516.542 321.232C516.385 321.104 516.194 321.025 515.993 321.003C515.888 320.994 515.782 321.012 515.686 321.056C515.59 321.1 515.507 321.168 515.445 321.253C516.454 318.763 519.166 317.59 521.627 316.638C522.071 316.444 522.546 316.333 523.031 316.311C523.697 316.398 524.331 316.649 524.876 317.042C525.424 317.359 525.982 317.647 526.559 317.926C528.154 318.67 529.847 319.182 531.587 319.445C532.48 319.586 533.385 319.641 534.289 319.609C534.856 319.609 536.038 319.205 536.538 319.445C537.596 319.964 538.586 323.291 539.096 324.339C540.608 327.422 542.111 330.505 543.605 333.588C543.763 336.226 543.763 338.871 543.605 341.51Z" fill="#EE53FF"/>
<path d="M522.848 326.771C522.722 328.497 522.272 330.183 521.521 331.742C521.303 332.134 521.052 332.507 520.771 332.857C520.166 333.645 519.444 334.357 518.896 335.193C517.291 337.654 517.474 340.885 517.714 343.846C517.973 347.134 518.281 350.489 519.56 353.46C520.019 354.321 520.328 355.254 520.473 356.219C519.269 356.039 518.087 355.736 516.945 355.316C516.347 354.091 516.244 352.683 516.656 351.384C515.906 349.086 512.628 338.414 514.195 332.107C514.57 330.578 515.012 329.069 515.512 327.56C515.954 326.242 516.176 324.925 516.608 323.608C516.898 323.011 516.992 322.339 516.877 321.685C516.815 321.493 516.699 321.322 516.542 321.194C516.385 321.066 516.194 320.986 515.993 320.964C516.26 320.503 516.583 320.077 516.954 319.695C517.306 319.283 517.751 318.962 518.254 318.759C518.756 318.557 519.3 318.479 519.839 318.532C520.53 318.647 521.165 318.984 521.646 319.493C523.3 321.416 523.175 324.281 522.848 326.771Z" fill="url(#paint14_linear)"/>
<path d="M523.732 309.187C523.732 309.187 523.569 309.918 521.81 309.802C521.81 309.802 520.319 309.716 520.367 308.908C521.484 308.575 522.686 308.674 523.732 309.187Z" fill="#FCBDBA"/>
<path d="M500.658 324.166C497.015 323.878 493.414 323.195 489.919 322.128C488.275 321.657 486.631 321.041 484.978 320.743C484.241 320.648 483.532 320.396 482.901 320.005C482.269 319.614 481.728 319.092 481.315 318.474C480.545 317.301 480.113 315.696 478.815 315.225L478.921 317.013C478.958 317.218 478.921 317.429 478.815 317.609C478.555 317.945 478.036 317.744 477.69 317.513L473.143 314.513C473.115 314.915 473.189 315.317 473.357 315.683C473.525 316.049 473.782 316.368 474.104 316.609C474.769 317.068 475.292 317.704 475.613 318.445C474.341 317.686 472.994 317.058 471.595 316.571C471.575 316.938 471.653 317.303 471.822 317.63C471.991 317.956 472.245 318.231 472.556 318.426C473.184 318.791 473.744 319.263 474.21 319.82C473.042 319.473 471.845 319.234 470.633 319.109C470.354 319.724 471.124 320.253 471.749 320.464L474.421 321.368C473.349 321.347 472.277 321.389 471.21 321.493C471.797 322.281 472.979 322.041 473.921 322.262C474.88 322.638 475.768 323.174 476.546 323.849C477.747 324.501 479.046 324.955 480.392 325.195C481.308 325.586 482.158 326.118 482.911 326.771C485.469 328.272 488.148 329.558 490.919 330.617C492.275 331.184 493.64 331.751 495.044 332.194C499.447 333.578 504.139 333.655 508.744 333.405C512.27 333.324 515.723 332.38 518.8 330.655C521.502 329.136 522.531 325.002 522.079 322.003C522.019 321.333 521.773 320.693 521.367 320.157C520.952 319.719 520.405 319.429 519.81 319.33C517.618 318.878 515.503 320.205 513.522 321.253C509.598 323.425 505.136 324.436 500.658 324.166Z" fill="#FCBDBA"/>
<path d="M518.435 301.986L519.742 299.553C519.733 300.328 519.947 301.088 520.357 301.744C520.768 302.401 521.359 302.925 522.06 303.255C522.537 303.405 522.99 303.621 523.405 303.899C523.742 304.239 523.992 304.654 524.136 305.11C525.006 307.403 525.383 309.854 525.242 312.302C525.001 316.542 522.098 324.502 526.28 327.636C527.82 328.627 529.595 329.194 531.424 329.28C531.224 331 531.143 332.732 531.183 334.463C531.103 336.243 531.519 338.01 532.385 339.568C534.048 342.096 537.634 342.654 540.355 341.491C541.109 341.056 541.943 340.779 542.807 340.673C544.143 340.673 545.201 341.789 546.431 342.308C547.351 342.63 548.337 342.711 549.297 342.542C550.256 342.374 551.157 341.962 551.912 341.346C553.597 339.95 554.726 337.997 555.095 335.84C555.463 333.682 555.047 331.465 553.921 329.588C552.959 328.127 551.613 326.983 550.71 325.493C548.191 321.33 550.931 316.071 549.537 311.533C548.922 309.516 547.601 307.789 545.816 306.668C543.788 305.408 541.144 304.928 539.817 302.909C538.048 300.226 539.605 296.438 538.5 293.41C537.673 291.16 535.51 289.728 533.318 288.92C530.837 288.033 528.182 287.744 525.569 288.078C522.956 288.413 520.458 289.36 518.281 290.843C514.714 293.275 514.474 299.457 518.435 301.986Z" fill="#473F47"/>
<path d="M485.872 295.083H461.192C459.95 295.083 458.942 296.09 458.942 297.333V297.4C458.942 298.643 459.95 299.65 461.192 299.65H485.872C487.114 299.65 488.121 298.643 488.121 297.4V297.333C488.121 296.09 487.114 295.083 485.872 295.083Z" fill="white"/>
<path d="M526.482 451.371C526.396 452.532 525.964 453.64 525.242 454.553C525.124 454.516 525.011 454.464 524.905 454.399C524.905 454.399 522.184 452.957 521.829 450.698C521.473 448.439 512.051 379.505 512.359 374.294C512.666 369.083 517.416 353.787 517.416 353.787L516.945 355.354C517.329 355.508 518.868 355.941 519.704 356.123C523.636 356.969 518.223 359.575 517.108 362.555C516.003 366.063 515.503 369.734 515.628 373.41C515.503 376.56 515.732 379.713 516.31 382.812C516.983 385.966 518.233 388.965 518.925 392.119C520.29 398.637 518.925 405.502 520.108 412.068C520.415 413.799 520.887 415.481 521.194 417.212C521.678 420.667 521.855 424.157 521.723 427.643C521.723 432.556 521.877 437.584 523.646 442.141C524.8 445.179 526.684 448.112 526.482 451.371Z" fill="url(#paint15_linear)"/>
<path d="M526.732 460.754C525.827 460.723 524.927 460.594 524.05 460.37C523.695 460.297 523.35 460.184 523.021 460.033C522.242 459.62 521.665 458.754 520.79 458.639C520.416 458.61 520.039 458.659 519.685 458.783L517.858 459.264C516.981 459.465 516.129 459.765 515.32 460.158C514.477 460.559 513.798 461.238 513.397 462.081C513.253 462.408 513.022 463.946 513.263 464.196C513.449 464.356 513.69 464.439 513.936 464.427C519.333 464.712 524.743 464.613 530.126 464.129C530.424 464.132 530.719 464.059 530.981 463.917C531.395 463.658 531.693 461.994 531.77 461.543C531.972 460.302 531.703 459.043 530.328 459.802C529.232 460.427 527.993 460.755 526.732 460.754Z" fill="#473F47"/>
<path d="M555.459 453.572C554.971 455.235 553.921 456.676 552.488 457.649C552.172 457.914 551.795 458.097 551.391 458.182C550.987 458.268 550.568 458.253 550.171 458.139C549.951 458.017 549.723 457.908 549.489 457.812C549.212 457.769 548.929 457.797 548.666 457.895C548.403 457.993 548.17 458.156 547.989 458.37C547.595 458.774 547.297 459.264 546.874 459.629C546.083 460.152 545.222 460.559 544.316 460.841C543.461 461.245 542.624 462.081 542.788 463.033C542.99 464.263 544.537 464.59 545.749 464.59C548.327 464.58 550.9 464.351 553.44 463.908C553.845 463.87 554.23 463.713 554.546 463.456C554.835 463.063 555.008 462.596 555.046 462.11C555.256 460.836 555.778 459.634 556.565 458.61C557.815 457.034 559.872 455.803 559.92 453.803C559.92 452.505 558.661 450.371 557.382 449.958C556.103 449.544 555.748 452.438 555.459 453.572Z" fill="#473F47"/>
<path d="M492.198 335.193H458.683C457.647 335.193 456.808 336.033 456.808 337.068V337.135C456.808 338.171 457.647 339.01 458.683 339.01H492.198C493.233 339.01 494.073 338.171 494.073 337.135V337.068C494.073 336.033 493.233 335.193 492.198 335.193Z" fill="#E4E4E4"/>
<path d="M492.198 345.577H458.683C457.647 345.577 456.808 346.416 456.808 347.451V347.519C456.808 348.554 457.647 349.393 458.683 349.393H492.198C493.233 349.393 494.073 348.554 494.073 347.519V347.451C494.073 346.416 493.233 345.577 492.198 345.577Z" fill="#E4E4E4"/>
<path d="M492.198 355.95H458.683C457.647 355.95 456.808 356.79 456.808 357.825V357.892C456.808 358.928 457.647 359.767 458.683 359.767H492.198C493.233 359.767 494.073 358.928 494.073 357.892V357.825C494.073 356.79 493.233 355.95 492.198 355.95Z" fill="#E4E4E4"/>
<path d="M492.198 366.324H458.683C457.647 366.324 456.808 367.163 456.808 368.198V368.266C456.808 369.301 457.647 370.141 458.683 370.141H492.198C493.233 370.141 494.073 369.301 494.073 368.266V368.198C494.073 367.163 493.233 366.324 492.198 366.324Z" fill="#E4E4E4"/>
<path d="M492.198 376.698H458.683C457.647 376.698 456.808 377.537 456.808 378.573V378.64C456.808 379.675 457.647 380.515 458.683 380.515H492.198C493.233 380.515 494.073 379.675 494.073 378.64V378.573C494.073 377.537 493.233 376.698 492.198 376.698Z" fill="#E4E4E4"/>
<path d="M395 220H332C329.239 220 327 222.239 327 225V264C327 266.761 329.239 269 332 269H395C397.761 269 400 266.761 400 264V225C400 222.239 397.761 220 395 220Z" fill="#EEFAFF"/>
<g clip-path="url(#clip1)" filter="url(#filter0_i)">
<path fill-rule="evenodd" clip-rule="evenodd" d="M391.531 226.062H335.469C334.897 226.062 334.348 226.257 333.944 226.603C333.54 226.948 333.312 227.417 333.312 227.906V261.094C333.312 261.583 333.54 262.052 333.944 262.397C334.348 262.743 334.897 262.938 335.469 262.938H391.531C392.103 262.938 392.652 262.743 393.056 262.397C393.46 262.052 393.688 261.583 393.688 261.094V227.906C393.688 227.417 393.46 226.948 393.056 226.603C392.652 226.257 392.103 226.062 391.531 226.062ZM335.469 222.375C333.753 222.375 332.108 222.958 330.895 223.995C329.682 225.032 329 226.439 329 227.906V261.094C329 262.561 329.682 263.968 330.895 265.005C332.108 266.042 333.753 266.625 335.469 266.625H391.531C393.247 266.625 394.892 266.042 396.105 265.005C397.318 263.968 398 262.561 398 261.094V227.906C398 226.439 397.318 225.032 396.105 223.995C394.892 222.958 393.247 222.375 391.531 222.375H335.469Z" fill="white"/>
<path d="M374.919 243.194C375.24 242.921 375.652 242.741 376.099 242.68C376.545 242.618 377.003 242.678 377.408 242.852L393.696 250.031V262.937H333.321V259.25L344.732 250.569C345.084 250.269 345.547 250.082 346.043 250.041C346.538 249.999 347.035 250.105 347.449 250.341L358.92 256.879L374.919 243.198V243.194Z" fill="white"/>
<path fill-rule="evenodd" clip-rule="evenodd" d="M348.415 240.812C349.264 240.812 350.105 240.669 350.89 240.391C351.675 240.113 352.388 239.706 352.989 239.192C353.59 238.679 354.066 238.069 354.391 237.398C354.716 236.727 354.884 236.008 354.884 235.281C354.884 234.555 354.716 233.836 354.391 233.165C354.066 232.493 353.59 231.884 352.989 231.37C352.388 230.856 351.675 230.449 350.89 230.171C350.105 229.893 349.264 229.75 348.415 229.75C346.699 229.75 345.054 230.333 343.841 231.37C342.628 232.407 341.946 233.814 341.946 235.281C341.946 236.748 342.628 238.155 343.841 239.192C345.054 240.23 346.699 240.812 348.415 240.812Z" fill="white"/>
</g>
<path d="M301.5 221H205.5C204.119 221 203 222.119 203 223.5C203 224.881 204.119 226 205.5 226H301.5C302.881 226 304 224.881 304 223.5C304 222.119 302.881 221 301.5 221Z" fill="#94FF98"/>
<path d="M316.5 230H205.5C204.119 230 203 231.119 203 232.5C203 233.881 204.119 235 205.5 235H316.5C317.881 235 319 233.881 319 232.5C319 231.119 317.881 230 316.5 230Z" fill="#ACFFAF"/>
<path d="M299.5 239H205.5C204.119 239 203 240.119 203 241.5C203 242.881 204.119 244 205.5 244H299.5C300.881 244 302 242.881 302 241.5C302 240.119 300.881 239 299.5 239Z" fill="#BBFFCA"/>
<path d="M193.085 341.093H132V296H133.108V339.985H193.085V341.093Z" fill="#B0B0B0"/>
<path d="M180.181 318H173V339.477H180.181V318Z" fill="#1E75F8"/>
<path d="M164.061 308.144H156.879V338.985H164.061V308.144Z" fill="#FFEE94"/>
<path d="M148.181 302H141V339.513H148.181V302Z" fill="#FFBDBD"/>
<path d="M403 190H203V200H403V190Z" fill="#EEFAFF"/>
<path d="M403 204H203V214H403V204Z" fill="#EEFAFF"/>
</g>
<rect width="98" height="29" transform="translate(495 173)" fill="#20243E"/>
<path d="M510.865 188.506H508.003L507.454 190H506.788L509.083 183.79H509.794L512.08 190H511.414L510.865 188.506ZM510.676 187.984L509.434 184.582L508.192 187.984H510.676ZM513.712 186.166C513.868 185.836 514.114 185.563 514.45 185.347C514.792 185.125 515.197 185.014 515.665 185.014C516.109 185.014 516.508 185.119 516.862 185.329C517.222 185.533 517.501 185.827 517.699 186.211C517.903 186.589 518.005 187.03 518.005 187.534C518.005 188.038 517.903 188.482 517.699 188.866C517.501 189.25 517.222 189.547 516.862 189.757C516.508 189.967 516.109 190.072 515.665 190.072C515.203 190.072 514.801 189.964 514.459 189.748C514.117 189.526 513.868 189.25 513.712 188.92V192.322H513.091V185.086H513.712V186.166ZM517.366 187.534C517.366 187.126 517.285 186.775 517.123 186.481C516.967 186.181 516.751 185.953 516.475 185.797C516.199 185.641 515.887 185.563 515.539 185.563C515.203 185.563 514.894 185.644 514.612 185.806C514.336 185.968 514.117 186.199 513.955 186.499C513.793 186.799 513.712 187.147 513.712 187.543C513.712 187.939 513.793 188.287 513.955 188.587C514.117 188.887 514.336 189.118 514.612 189.28C514.894 189.442 515.203 189.523 515.539 189.523C515.887 189.523 516.199 189.445 516.475 189.289C516.751 189.127 516.967 188.896 517.123 188.596C517.285 188.29 517.366 187.936 517.366 187.534ZM519.785 186.166C519.941 185.836 520.187 185.563 520.523 185.347C520.865 185.125 521.27 185.014 521.738 185.014C522.182 185.014 522.581 185.119 522.935 185.329C523.295 185.533 523.574 185.827 523.772 186.211C523.976 186.589 524.078 187.03 524.078 187.534C524.078 188.038 523.976 188.482 523.772 188.866C523.574 189.25 523.295 189.547 522.935 189.757C522.581 189.967 522.182 190.072 521.738 190.072C521.276 190.072 520.874 189.964 520.532 189.748C520.19 189.526 519.941 189.25 519.785 188.92V192.322H519.164V185.086H519.785V186.166ZM523.439 187.534C523.439 187.126 523.358 186.775 523.196 186.481C523.04 186.181 522.824 185.953 522.548 185.797C522.272 185.641 521.96 185.563 521.612 185.563C521.276 185.563 520.967 185.644 520.685 185.806C520.409 185.968 520.19 186.199 520.028 186.499C519.866 186.799 519.785 187.147 519.785 187.543C519.785 187.939 519.866 188.287 520.028 188.587C520.19 188.887 520.409 189.118 520.685 189.28C520.967 189.442 521.276 189.523 521.612 189.523C521.96 189.523 522.272 189.445 522.548 189.289C522.824 189.127 523.04 188.896 523.196 188.596C523.358 188.29 523.439 187.936 523.439 187.534ZM527.419 187.534C527.419 187.03 527.521 186.589 527.725 186.211C527.929 185.827 528.208 185.533 528.562 185.329C528.922 185.119 529.327 185.014 529.777 185.014C530.209 185.014 530.599 185.119 530.947 185.329C531.295 185.539 531.55 185.812 531.712 186.148V183.34H532.342V190H531.712V188.902C531.562 189.244 531.316 189.526 530.974 189.748C530.632 189.964 530.23 190.072 529.768 190.072C529.318 190.072 528.913 189.967 528.553 189.757C528.199 189.547 527.92 189.25 527.716 188.866C527.518 188.482 527.419 188.038 527.419 187.534ZM531.712 187.543C531.712 187.147 531.631 186.799 531.469 186.499C531.307 186.199 531.085 185.968 530.803 185.806C530.527 185.644 530.221 185.563 529.885 185.563C529.537 185.563 529.225 185.641 528.949 185.797C528.673 185.953 528.454 186.181 528.292 186.481C528.136 186.775 528.058 187.126 528.058 187.534C528.058 187.936 528.136 188.29 528.292 188.596C528.454 188.896 528.673 189.127 528.949 189.289C529.225 189.445 529.537 189.523 529.885 189.523C530.221 189.523 530.527 189.442 530.803 189.28C531.085 189.118 531.307 188.887 531.469 188.587C531.631 188.287 531.712 187.939 531.712 187.543ZM538.227 187.291C538.227 187.507 538.221 187.672 538.209 187.786H534.132C534.15 188.158 534.24 188.476 534.402 188.74C534.564 189.004 534.777 189.205 535.041 189.343C535.305 189.475 535.593 189.541 535.905 189.541C536.313 189.541 536.655 189.442 536.931 189.244C537.213 189.046 537.399 188.779 537.489 188.443H538.155C538.035 188.923 537.777 189.316 537.381 189.622C536.991 189.922 536.499 190.072 535.905 190.072C535.443 190.072 535.029 189.97 534.663 189.766C534.297 189.556 534.009 189.262 533.799 188.884C533.595 188.5 533.493 188.053 533.493 187.543C533.493 187.033 533.595 186.586 533.799 186.202C534.003 185.818 534.288 185.524 534.654 185.32C535.02 185.116 535.437 185.014 535.905 185.014C536.373 185.014 536.781 185.116 537.129 185.32C537.483 185.524 537.753 185.8 537.939 186.148C538.131 186.49 538.227 186.871 538.227 187.291ZM537.588 187.273C537.594 186.907 537.519 186.595 537.363 186.337C537.213 186.079 537.006 185.884 536.742 185.752C536.478 185.62 536.19 185.554 535.878 185.554C535.41 185.554 535.011 185.704 534.681 186.004C534.351 186.304 534.168 186.727 534.132 187.273H537.588ZM541.125 189.388L542.781 185.086H543.447L541.476 190H540.765L538.794 185.086H539.469L541.125 189.388ZM548.747 187.291C548.747 187.507 548.741 187.672 548.729 187.786H544.652C544.67 188.158 544.76 188.476 544.922 188.74C545.084 189.004 545.297 189.205 545.561 189.343C545.825 189.475 546.113 189.541 546.425 189.541C546.833 189.541 547.175 189.442 547.451 189.244C547.733 189.046 547.919 188.779 548.009 188.443H548.675C548.555 188.923 548.297 189.316 547.901 189.622C547.511 189.922 547.019 190.072 546.425 190.072C545.963 190.072 545.549 189.97 545.183 189.766C544.817 189.556 544.529 189.262 544.319 188.884C544.115 188.5 544.013 188.053 544.013 187.543C544.013 187.033 544.115 186.586 544.319 186.202C544.523 185.818 544.808 185.524 545.174 185.32C545.54 185.116 545.957 185.014 546.425 185.014C546.893 185.014 547.301 185.116 547.649 185.32C548.003 185.524 548.273 185.8 548.459 186.148C548.651 186.49 548.747 186.871 548.747 187.291ZM548.108 187.273C548.114 186.907 548.039 186.595 547.883 186.337C547.733 186.079 547.526 185.884 547.262 185.752C546.998 185.62 546.71 185.554 546.398 185.554C545.93 185.554 545.531 185.704 545.201 186.004C544.871 186.304 544.688 186.727 544.652 187.273H548.108ZM550.53 183.34V190H549.9V183.34H550.53ZM554.107 190.072C553.645 190.072 553.228 189.97 552.856 189.766C552.49 189.556 552.199 189.262 551.983 188.884C551.773 188.5 551.668 188.053 551.668 187.543C551.668 187.033 551.776 186.589 551.992 186.211C552.208 185.827 552.502 185.533 552.874 185.329C553.246 185.119 553.663 185.014 554.125 185.014C554.587 185.014 555.004 185.119 555.376 185.329C555.754 185.533 556.048 185.827 556.258 186.211C556.474 186.589 556.582 187.033 556.582 187.543C556.582 188.047 556.474 188.491 556.258 188.875C556.042 189.259 555.745 189.556 555.367 189.766C554.989 189.97 554.569 190.072 554.107 190.072ZM554.107 189.523C554.431 189.523 554.731 189.451 555.007 189.307C555.283 189.157 555.505 188.935 555.673 188.641C555.847 188.341 555.934 187.975 555.934 187.543C555.934 187.111 555.85 186.748 555.682 186.454C555.514 186.154 555.292 185.932 555.016 185.788C554.74 185.638 554.44 185.563 554.116 185.563C553.792 185.563 553.492 185.638 553.216 185.788C552.94 185.932 552.718 186.154 552.55 186.454C552.388 186.748 552.307 187.111 552.307 187.543C552.307 187.975 552.388 188.341 552.55 188.641C552.718 188.935 552.937 189.157 553.207 189.307C553.483 189.451 553.783 189.523 554.107 189.523ZM558.352 186.166C558.508 185.836 558.754 185.563 559.09 185.347C559.432 185.125 559.837 185.014 560.305 185.014C560.749 185.014 561.148 185.119 561.502 185.329C561.862 185.533 562.141 185.827 562.339 186.211C562.543 186.589 562.645 187.03 562.645 187.534C562.645 188.038 562.543 188.482 562.339 188.866C562.141 189.25 561.862 189.547 561.502 189.757C561.148 189.967 560.749 190.072 560.305 190.072C559.843 190.072 559.441 189.964 559.099 189.748C558.757 189.526 558.508 189.25 558.352 188.92V192.322H557.731V185.086H558.352V186.166ZM562.006 187.534C562.006 187.126 561.925 186.775 561.763 186.481C561.607 186.181 561.391 185.953 561.115 185.797C560.839 185.641 560.527 185.563 560.179 185.563C559.843 185.563 559.534 185.644 559.252 185.806C558.976 185.968 558.757 186.199 558.595 186.499C558.433 186.799 558.352 187.147 558.352 187.543C558.352 187.939 558.433 188.287 558.595 188.587C558.757 188.887 558.976 189.118 559.252 189.28C559.534 189.442 559.843 189.523 560.179 189.523C560.527 189.523 560.839 189.445 561.115 189.289C561.391 189.127 561.607 188.896 561.763 188.596C561.925 188.29 562.006 187.936 562.006 187.534ZM569.654 184.996C570.23 184.996 570.698 185.179 571.058 185.545C571.424 185.905 571.607 186.43 571.607 187.12V190H570.986V187.192C570.986 186.658 570.857 186.25 570.599 185.968C570.341 185.686 569.99 185.545 569.546 185.545C569.084 185.545 568.715 185.698 568.439 186.004C568.163 186.31 568.025 186.754 568.025 187.336V190H567.404V187.192C567.404 186.658 567.275 186.25 567.017 185.968C566.759 185.686 566.405 185.545 565.955 185.545C565.493 185.545 565.124 185.698 564.848 186.004C564.572 186.31 564.434 186.754 564.434 187.336V190H563.804V185.086H564.434V185.932C564.59 185.626 564.812 185.395 565.1 185.239C565.388 185.077 565.709 184.996 566.063 184.996C566.489 184.996 566.861 185.098 567.179 185.302C567.503 185.506 567.737 185.806 567.881 186.202C568.013 185.812 568.238 185.515 568.556 185.311C568.88 185.101 569.246 184.996 569.654 184.996ZM577.452 187.291C577.452 187.507 577.446 187.672 577.434 187.786H573.357C573.375 188.158 573.465 188.476 573.627 188.74C573.789 189.004 574.002 189.205 574.266 189.343C574.53 189.475 574.818 189.541 575.13 189.541C575.538 189.541 575.88 189.442 576.156 189.244C576.438 189.046 576.624 188.779 576.714 188.443H577.38C577.26 188.923 577.002 189.316 576.606 189.622C576.216 189.922 575.724 190.072 575.13 190.072C574.668 190.072 574.254 189.97 573.888 189.766C573.522 189.556 573.234 189.262 573.024 188.884C572.82 188.5 572.718 188.053 572.718 187.543C572.718 187.033 572.82 186.586 573.024 186.202C573.228 185.818 573.513 185.524 573.879 185.32C574.245 185.116 574.662 185.014 575.13 185.014C575.598 185.014 576.006 185.116 576.354 185.32C576.708 185.524 576.978 185.8 577.164 186.148C577.356 186.49 577.452 186.871 577.452 187.291ZM576.813 187.273C576.819 186.907 576.744 186.595 576.588 186.337C576.438 186.079 576.231 185.884 575.967 185.752C575.703 185.62 575.415 185.554 575.103 185.554C574.635 185.554 574.236 185.704 573.906 186.004C573.576 186.304 573.393 186.727 573.357 187.273H576.813ZM580.909 184.996C581.497 184.996 581.977 185.179 582.349 185.545C582.721 185.905 582.907 186.43 582.907 187.12V190H582.286V187.192C582.286 186.658 582.151 186.25 581.881 185.968C581.617 185.686 581.254 185.545 580.792 185.545C580.318 185.545 579.94 185.695 579.658 185.995C579.376 186.295 579.235 186.736 579.235 187.318V190H578.605V185.086H579.235V185.923C579.391 185.623 579.616 185.395 579.91 185.239C580.204 185.077 580.537 184.996 580.909 184.996ZM585.119 185.617V188.668C585.119 188.968 585.176 189.175 585.29 189.289C585.404 189.403 585.605 189.46 585.893 189.46H586.469V190H585.794C585.35 190 585.02 189.898 584.804 189.694C584.588 189.484 584.48 189.142 584.48 188.668V185.617H583.796V185.086H584.48V183.853H585.119V185.086H586.469V185.617H585.119Z" fill="white"/>
<rect width="98" height="29" transform="translate(473)" fill="#20243E"/>
<path d="M487.583 10.709C488.279 10.709 488.876 10.835 489.374 11.087C489.872 11.339 490.253 11.702 490.517 12.176C490.781 12.65 490.913 13.214 490.913 13.868C490.913 14.516 490.781 15.077 490.517 15.551C490.253 16.019 489.872 16.379 489.374 16.631C488.876 16.877 488.279 17 487.583 17H485.72V10.709H487.583ZM487.583 16.478C488.459 16.478 489.125 16.25 489.581 15.794C490.043 15.332 490.274 14.69 490.274 13.868C490.274 13.04 490.043 12.395 489.581 11.933C489.125 11.465 488.459 11.231 487.583 11.231H486.35V16.478H487.583ZM492.389 11.159C492.263 11.159 492.155 11.114 492.065 11.024C491.975 10.934 491.93 10.823 491.93 10.691C491.93 10.559 491.975 10.451 492.065 10.367C492.155 10.277 492.263 10.232 492.389 10.232C492.515 10.232 492.623 10.277 492.713 10.367C492.803 10.451 492.848 10.559 492.848 10.691C492.848 10.823 492.803 10.934 492.713 11.024C492.623 11.114 492.515 11.159 492.389 11.159ZM492.704 12.086V17H492.074V12.086H492.704ZM496.192 12.014C496.654 12.014 497.056 12.122 497.398 12.338C497.74 12.554 497.986 12.827 498.136 13.157V12.086H498.766V17.126C498.766 17.576 498.667 17.975 498.469 18.323C498.277 18.671 498.007 18.938 497.659 19.124C497.311 19.316 496.915 19.412 496.471 19.412C495.841 19.412 495.316 19.262 494.896 18.962C494.482 18.662 494.224 18.254 494.122 17.738H494.743C494.851 18.08 495.055 18.353 495.355 18.557C495.661 18.761 496.033 18.863 496.471 18.863C496.789 18.863 497.074 18.794 497.326 18.656C497.578 18.524 497.776 18.326 497.92 18.062C498.064 17.798 498.136 17.486 498.136 17.126V15.911C497.98 16.247 497.731 16.526 497.389 16.748C497.053 16.964 496.654 17.072 496.192 17.072C495.742 17.072 495.337 16.967 494.977 16.757C494.623 16.547 494.344 16.25 494.14 15.866C493.942 15.482 493.843 15.038 493.843 14.534C493.843 14.03 493.942 13.589 494.14 13.211C494.344 12.827 494.623 12.533 494.977 12.329C495.337 12.119 495.742 12.014 496.192 12.014ZM498.136 14.543C498.136 14.147 498.055 13.799 497.893 13.499C497.731 13.199 497.509 12.968 497.227 12.806C496.951 12.644 496.645 12.563 496.309 12.563C495.961 12.563 495.649 12.641 495.373 12.797C495.097 12.953 494.878 13.181 494.716 13.481C494.56 13.775 494.482 14.126 494.482 14.534C494.482 14.936 494.56 15.29 494.716 15.596C494.878 15.896 495.097 16.127 495.373 16.289C495.649 16.445 495.961 16.523 496.309 16.523C496.645 16.523 496.951 16.442 497.227 16.28C497.509 16.118 497.731 15.887 497.893 15.587C498.055 15.287 498.136 14.939 498.136 14.543ZM500.519 11.159C500.393 11.159 500.285 11.114 500.195 11.024C500.105 10.934 500.06 10.823 500.06 10.691C500.06 10.559 500.105 10.451 500.195 10.367C500.285 10.277 500.393 10.232 500.519 10.232C500.645 10.232 500.753 10.277 500.843 10.367C500.933 10.451 500.978 10.559 500.978 10.691C500.978 10.823 500.933 10.934 500.843 11.024C500.753 11.114 500.645 11.159 500.519 11.159ZM500.834 12.086V17H500.204V12.086H500.834ZM503.08 12.617V15.668C503.08 15.968 503.137 16.175 503.251 16.289C503.365 16.403 503.566 16.46 503.854 16.46H504.43V17H503.755C503.311 17 502.981 16.898 502.765 16.694C502.549 16.484 502.441 16.142 502.441 15.668V12.617H501.757V12.086H502.441V10.853H503.08V12.086H504.43V12.617H503.08ZM505.181 14.534C505.181 14.03 505.28 13.589 505.478 13.211C505.682 12.827 505.961 12.533 506.315 12.329C506.675 12.119 507.08 12.014 507.53 12.014C507.998 12.014 508.4 12.122 508.736 12.338C509.078 12.554 509.324 12.83 509.474 13.166V12.086H510.104V17H509.474V15.911C509.318 16.247 509.069 16.526 508.727 16.748C508.391 16.964 507.989 17.072 507.521 17.072C507.077 17.072 506.675 16.967 506.315 16.757C505.961 16.547 505.682 16.25 505.478 15.866C505.28 15.482 505.181 15.038 505.181 14.534ZM509.474 14.543C509.474 14.147 509.393 13.799 509.231 13.499C509.069 13.199 508.847 12.968 508.565 12.806C508.289 12.644 507.983 12.563 507.647 12.563C507.299 12.563 506.987 12.641 506.711 12.797C506.435 12.953 506.216 13.181 506.054 13.481C505.898 13.775 505.82 14.126 505.82 14.534C505.82 14.936 505.898 15.29 506.054 15.596C506.216 15.896 506.435 16.127 506.711 16.289C506.987 16.445 507.299 16.523 507.647 16.523C507.983 16.523 508.289 16.442 508.565 16.28C508.847 16.118 509.069 15.887 509.231 15.587C509.393 15.287 509.474 14.939 509.474 14.543ZM512.172 10.34V17H511.542V10.34H512.172ZM522.216 10.79V17H521.586V12.041L519.372 17H518.913L516.699 12.059V17H516.069V10.79H516.735L519.138 16.172L521.541 10.79H522.216ZM523.357 14.534C523.357 14.03 523.456 13.589 523.654 13.211C523.858 12.827 524.137 12.533 524.491 12.329C524.851 12.119 525.256 12.014 525.706 12.014C526.174 12.014 526.576 12.122 526.912 12.338C527.254 12.554 527.5 12.83 527.65 13.166V12.086H528.28V17H527.65V15.911C527.494 16.247 527.245 16.526 526.903 16.748C526.567 16.964 526.165 17.072 525.697 17.072C525.253 17.072 524.851 16.967 524.491 16.757C524.137 16.547 523.858 16.25 523.654 15.866C523.456 15.482 523.357 15.038 523.357 14.534ZM527.65 14.543C527.65 14.147 527.569 13.799 527.407 13.499C527.245 13.199 527.023 12.968 526.741 12.806C526.465 12.644 526.159 12.563 525.823 12.563C525.475 12.563 525.163 12.641 524.887 12.797C524.611 12.953 524.392 13.181 524.23 13.481C524.074 13.775 523.996 14.126 523.996 14.534C523.996 14.936 524.074 15.29 524.23 15.596C524.392 15.896 524.611 16.127 524.887 16.289C525.163 16.445 525.475 16.523 525.823 16.523C526.159 16.523 526.465 16.442 526.741 16.28C527.023 16.118 527.245 15.887 527.407 15.587C527.569 15.287 527.65 14.939 527.65 14.543ZM530.348 12.959C530.486 12.653 530.696 12.416 530.978 12.248C531.266 12.08 531.617 11.996 532.031 11.996V12.653H531.86C531.404 12.653 531.038 12.776 530.762 13.022C530.486 13.268 530.348 13.679 530.348 14.255V17H529.718V12.086H530.348V12.959ZM535.634 17L533.609 14.795V17H532.979V10.34H533.609V14.282L535.589 12.086H536.471L534.14 14.534L536.489 17H535.634ZM541.749 14.291C541.749 14.507 541.743 14.672 541.731 14.786H537.654C537.672 15.158 537.762 15.476 537.924 15.74C538.086 16.004 538.299 16.205 538.563 16.343C538.827 16.475 539.115 16.541 539.427 16.541C539.835 16.541 540.177 16.442 540.453 16.244C540.735 16.046 540.921 15.779 541.011 15.443H541.677C541.557 15.923 541.299 16.316 540.903 16.622C540.513 16.922 540.021 17.072 539.427 17.072C538.965 17.072 538.551 16.97 538.185 16.766C537.819 16.556 537.531 16.262 537.321 15.884C537.117 15.5 537.015 15.053 537.015 14.543C537.015 14.033 537.117 13.586 537.321 13.202C537.525 12.818 537.81 12.524 538.176 12.32C538.542 12.116 538.959 12.014 539.427 12.014C539.895 12.014 540.303 12.116 540.651 12.32C541.005 12.524 541.275 12.8 541.461 13.148C541.653 13.49 541.749 13.871 541.749 14.291ZM541.11 14.273C541.116 13.907 541.041 13.595 540.885 13.337C540.735 13.079 540.528 12.884 540.264 12.752C540 12.62 539.712 12.554 539.4 12.554C538.932 12.554 538.533 12.704 538.203 13.004C537.873 13.304 537.69 13.727 537.654 14.273H541.11ZM543.721 12.617V15.668C543.721 15.968 543.778 16.175 543.892 16.289C544.006 16.403 544.207 16.46 544.495 16.46H545.071V17H544.396C543.952 17 543.622 16.898 543.406 16.694C543.19 16.484 543.082 16.142 543.082 15.668V12.617H542.398V12.086H543.082V10.853H543.721V12.086H545.071V12.617H543.721ZM546.425 11.159C546.299 11.159 546.191 11.114 546.101 11.024C546.011 10.934 545.966 10.823 545.966 10.691C545.966 10.559 546.011 10.451 546.101 10.367C546.191 10.277 546.299 10.232 546.425 10.232C546.551 10.232 546.659 10.277 546.749 10.367C546.839 10.451 546.884 10.559 546.884 10.691C546.884 10.823 546.839 10.934 546.749 11.024C546.659 11.114 546.551 11.159 546.425 11.159ZM546.74 12.086V17H546.11V12.086H546.74ZM550.47 11.996C551.058 11.996 551.538 12.179 551.91 12.545C552.282 12.905 552.468 13.43 552.468 14.12V17H551.847V14.192C551.847 13.658 551.712 13.25 551.442 12.968C551.178 12.686 550.815 12.545 550.353 12.545C549.879 12.545 549.501 12.695 549.219 12.995C548.937 13.295 548.796 13.736 548.796 14.318V17H548.166V12.086H548.796V12.923C548.952 12.623 549.177 12.395 549.471 12.239C549.765 12.077 550.098 11.996 550.47 11.996ZM555.923 12.014C556.385 12.014 556.787 12.122 557.129 12.338C557.471 12.554 557.717 12.827 557.867 13.157V12.086H558.497V17.126C558.497 17.576 558.398 17.975 558.2 18.323C558.008 18.671 557.738 18.938 557.39 19.124C557.042 19.316 556.646 19.412 556.202 19.412C555.572 19.412 555.047 19.262 554.627 18.962C554.213 18.662 553.955 18.254 553.853 17.738H554.474C554.582 18.08 554.786 18.353 555.086 18.557C555.392 18.761 555.764 18.863 556.202 18.863C556.52 18.863 556.805 18.794 557.057 18.656C557.309 18.524 557.507 18.326 557.651 18.062C557.795 17.798 557.867 17.486 557.867 17.126V15.911C557.711 16.247 557.462 16.526 557.12 16.748C556.784 16.964 556.385 17.072 555.923 17.072C555.473 17.072 555.068 16.967 554.708 16.757C554.354 16.547 554.075 16.25 553.871 15.866C553.673 15.482 553.574 15.038 553.574 14.534C553.574 14.03 553.673 13.589 553.871 13.211C554.075 12.827 554.354 12.533 554.708 12.329C555.068 12.119 555.473 12.014 555.923 12.014ZM557.867 14.543C557.867 14.147 557.786 13.799 557.624 13.499C557.462 13.199 557.24 12.968 556.958 12.806C556.682 12.644 556.376 12.563 556.04 12.563C555.692 12.563 555.38 12.641 555.104 12.797C554.828 12.953 554.609 13.181 554.447 13.481C554.291 13.775 554.213 14.126 554.213 14.534C554.213 14.936 554.291 15.29 554.447 15.596C554.609 15.896 554.828 16.127 555.104 16.289C555.38 16.445 555.692 16.523 556.04 16.523C556.376 16.523 556.682 16.442 556.958 16.28C557.24 16.118 557.462 15.887 557.624 15.587C557.786 15.287 557.867 14.939 557.867 14.543Z" fill="white"/>
<rect width="70" height="29" transform="translate(260 510)" fill="#20243E"/>
<path d="M268.323 520.709V524.669C268.323 525.293 268.47 525.755 268.764 526.055C269.064 526.355 269.472 526.505 269.988 526.505C270.504 526.505 270.906 526.358 271.194 526.064C271.488 525.764 271.635 525.299 271.635 524.669V520.709H272.265V524.66C272.265 525.458 272.052 526.058 271.626 526.46C271.206 526.862 270.657 527.063 269.979 527.063C269.301 527.063 268.749 526.862 268.323 526.46C267.903 526.058 267.693 525.458 267.693 524.66V520.709H268.323ZM275.938 523.859L277.846 527H277.144L275.542 524.372L274.021 527H273.319L275.218 523.832L273.319 520.709H274.021L275.614 523.328L277.153 520.709H277.855L275.938 523.859ZM281.734 518.54L279.25 528.494H278.629L281.095 518.54H281.734ZM283.51 520.709V524.669C283.51 525.293 283.658 525.755 283.952 526.055C284.252 526.355 284.66 526.505 285.176 526.505C285.692 526.505 286.094 526.358 286.382 526.064C286.676 525.764 286.823 525.299 286.823 524.669V520.709H287.453V524.66C287.453 525.458 287.24 526.058 286.813 526.46C286.394 526.862 285.845 527.063 285.167 527.063C284.489 527.063 283.937 526.862 283.51 526.46C283.091 526.058 282.881 525.458 282.881 524.66V520.709H283.51ZM289.488 520.709V527H288.858V520.709H289.488ZM295.247 520.709C295.943 520.709 296.54 520.835 297.038 521.087C297.536 521.339 297.917 521.702 298.181 522.176C298.445 522.65 298.577 523.214 298.577 523.868C298.577 524.516 298.445 525.077 298.181 525.551C297.917 526.019 297.536 526.379 297.038 526.631C296.54 526.877 295.943 527 295.247 527H293.384V520.709H295.247ZM295.247 526.478C296.123 526.478 296.789 526.25 297.245 525.794C297.707 525.332 297.938 524.69 297.938 523.868C297.938 523.04 297.707 522.395 297.245 521.933C296.789 521.465 296.123 521.231 295.247 521.231H294.014V526.478H295.247ZM304.185 524.291C304.185 524.507 304.179 524.672 304.167 524.786H300.09C300.108 525.158 300.198 525.476 300.36 525.74C300.522 526.004 300.735 526.205 300.999 526.343C301.263 526.475 301.551 526.541 301.863 526.541C302.271 526.541 302.613 526.442 302.889 526.244C303.171 526.046 303.357 525.779 303.447 525.443H304.113C303.993 525.923 303.735 526.316 303.339 526.622C302.949 526.922 302.457 527.072 301.863 527.072C301.401 527.072 300.987 526.97 300.621 526.766C300.255 526.556 299.967 526.262 299.757 525.884C299.553 525.5 299.451 525.053 299.451 524.543C299.451 524.033 299.553 523.586 299.757 523.202C299.961 522.818 300.246 522.524 300.612 522.32C300.978 522.116 301.395 522.014 301.863 522.014C302.331 522.014 302.739 522.116 303.087 522.32C303.441 522.524 303.711 522.8 303.897 523.148C304.089 523.49 304.185 523.871 304.185 524.291ZM303.546 524.273C303.552 523.907 303.477 523.595 303.321 523.337C303.171 523.079 302.964 522.884 302.7 522.752C302.436 522.62 302.148 522.554 301.836 522.554C301.368 522.554 300.969 522.704 300.639 523.004C300.309 523.304 300.126 523.727 300.09 524.273H303.546ZM307.029 527.072C306.465 527.072 306.003 526.943 305.643 526.685C305.289 526.421 305.091 526.064 305.049 525.614H305.697C305.727 525.89 305.856 526.115 306.084 526.289C306.318 526.457 306.63 526.541 307.02 526.541C307.362 526.541 307.629 526.46 307.821 526.298C308.019 526.136 308.118 525.935 308.118 525.695C308.118 525.527 308.064 525.389 307.956 525.281C307.848 525.173 307.71 525.089 307.542 525.029C307.38 524.963 307.158 524.894 306.876 524.822C306.51 524.726 306.213 524.63 305.985 524.534C305.757 524.438 305.562 524.297 305.4 524.111C305.244 523.919 305.166 523.664 305.166 523.346C305.166 523.106 305.238 522.884 305.382 522.68C305.526 522.476 305.73 522.314 305.994 522.194C306.258 522.074 306.558 522.014 306.894 522.014C307.422 522.014 307.848 522.149 308.172 522.419C308.496 522.683 308.67 523.049 308.694 523.517H308.064C308.046 523.229 307.932 522.998 307.722 522.824C307.518 522.644 307.236 522.554 306.876 522.554C306.558 522.554 306.3 522.629 306.102 522.779C305.904 522.929 305.805 523.115 305.805 523.337C305.805 523.529 305.862 523.688 305.976 523.814C306.096 523.934 306.243 524.03 306.417 524.102C306.591 524.168 306.825 524.243 307.119 524.327C307.473 524.423 307.755 524.516 307.965 524.606C308.175 524.696 308.355 524.828 308.505 525.002C308.655 525.176 308.733 525.407 308.739 525.695C308.739 525.959 308.667 526.196 308.523 526.406C308.379 526.61 308.178 526.772 307.92 526.892C307.662 527.012 307.365 527.072 307.029 527.072ZM310.24 521.159C310.114 521.159 310.006 521.114 309.916 521.024C309.826 520.934 309.781 520.823 309.781 520.691C309.781 520.559 309.826 520.451 309.916 520.367C310.006 520.277 310.114 520.232 310.24 520.232C310.366 520.232 310.474 520.277 310.564 520.367C310.654 520.451 310.699 520.559 310.699 520.691C310.699 520.823 310.654 520.934 310.564 521.024C310.474 521.114 310.366 521.159 310.24 521.159ZM310.555 522.086V527H309.925V522.086H310.555ZM314.043 522.014C314.505 522.014 314.907 522.122 315.249 522.338C315.591 522.554 315.837 522.827 315.987 523.157V522.086H316.617V527.126C316.617 527.576 316.518 527.975 316.32 528.323C316.128 528.671 315.858 528.938 315.51 529.124C315.162 529.316 314.766 529.412 314.322 529.412C313.692 529.412 313.167 529.262 312.747 528.962C312.333 528.662 312.075 528.254 311.973 527.738H312.594C312.702 528.08 312.906 528.353 313.206 528.557C313.512 528.761 313.884 528.863 314.322 528.863C314.64 528.863 314.925 528.794 315.177 528.656C315.429 528.524 315.627 528.326 315.771 528.062C315.915 527.798 315.987 527.486 315.987 527.126V525.911C315.831 526.247 315.582 526.526 315.24 526.748C314.904 526.964 314.505 527.072 314.043 527.072C313.593 527.072 313.188 526.967 312.828 526.757C312.474 526.547 312.195 526.25 311.991 525.866C311.793 525.482 311.694 525.038 311.694 524.534C311.694 524.03 311.793 523.589 311.991 523.211C312.195 522.827 312.474 522.533 312.828 522.329C313.188 522.119 313.593 522.014 314.043 522.014ZM315.987 524.543C315.987 524.147 315.906 523.799 315.744 523.499C315.582 523.199 315.36 522.968 315.078 522.806C314.802 522.644 314.496 522.563 314.16 522.563C313.812 522.563 313.5 522.641 313.224 522.797C312.948 522.953 312.729 523.181 312.567 523.481C312.411 523.775 312.333 524.126 312.333 524.534C312.333 524.936 312.411 525.29 312.567 525.596C312.729 525.896 312.948 526.127 313.224 526.289C313.5 526.445 313.812 526.523 314.16 526.523C314.496 526.523 314.802 526.442 315.078 526.28C315.36 526.118 315.582 525.887 315.744 525.587C315.906 525.287 315.987 524.939 315.987 524.543ZM320.359 521.996C320.947 521.996 321.427 522.179 321.799 522.545C322.171 522.905 322.357 523.43 322.357 524.12V527H321.736V524.192C321.736 523.658 321.601 523.25 321.331 522.968C321.067 522.686 320.704 522.545 320.242 522.545C319.768 522.545 319.39 522.695 319.108 522.995C318.826 523.295 318.685 523.736 318.685 524.318V527H318.055V522.086H318.685V522.923C318.841 522.623 319.066 522.395 319.36 522.239C319.654 522.077 319.987 521.996 320.359 521.996Z" fill="white"/>
<path d="M552.627 221.849V269.603H517.17" stroke="white" stroke-width="0.956063" stroke-linecap="round" stroke-linejoin="round" stroke-dasharray="1.27 5.74"/>
<circle cx="552.5" cy="216.865" r="4.04693" transform="rotate(-180 552.5 216.865)" stroke="white" stroke-width="0.906148"/>
<circle cx="512.48" cy="268.374" r="4.04693" transform="rotate(-180 512.48 268.374)" stroke="white" stroke-width="0.906148"/>
<path d="M243.279 524.391H195.526V488.934" stroke="white" stroke-width="0.956063" stroke-linecap="round" stroke-linejoin="round" stroke-dasharray="1.27 5.74"/>
<circle cx="248.264" cy="524.264" r="4.04693" transform="rotate(-90 248.264 524.264)" stroke="white" stroke-width="0.906148"/>
<circle cx="196.755" cy="484.245" r="4.04693" transform="rotate(-90 196.755 484.245)" stroke="white" stroke-width="0.906148"/>
<path d="M418.118 54.6342V11.228L453.574 11.228" stroke="white" stroke-width="0.956063" stroke-linecap="round" stroke-linejoin="round" stroke-dasharray="1.27 5.74"/>
<path d="M422.292 59.165C422.292 61.1341 420.521 62.8023 418.245 62.8023C415.968 62.8023 414.198 61.1341 414.198 59.165C414.198 57.196 415.968 55.5278 418.245 55.5278C420.521 55.5278 422.292 57.196 422.292 59.165Z" stroke="white" stroke-width="0.906148"/>
<path d="M462.311 12.3457C462.311 14.3148 460.541 15.983 458.264 15.983C455.987 15.983 454.217 14.3148 454.217 12.3457C454.217 10.3766 455.987 8.70845 458.264 8.70845C460.541 8.70845 462.311 10.3766 462.311 12.3457Z" stroke="white" stroke-width="0.906148"/>
<path d="M44.493 292.77H96.5753C97.0212 292.77 97.4626 292.857 97.8745 293.028C98.2864 293.199 98.6607 293.45 98.9759 293.765C99.2912 294.081 99.5412 294.456 99.7118 294.868C99.8824 295.281 99.9702 295.723 99.9702 296.169C99.9702 296.615 99.8824 297.058 99.7118 297.47C99.5412 297.882 99.2912 298.257 98.9759 298.573C98.6607 298.889 98.2864 299.139 97.8745 299.31C97.4626 299.481 97.0212 299.569 96.5753 299.569H44.493C44.0472 299.569 43.6057 299.481 43.1939 299.31C42.782 299.139 42.4077 298.889 42.0925 298.573C41.7772 298.257 41.5272 297.882 41.3566 297.47C41.1859 297.058 41.0981 296.615 41.0981 296.169C41.0981 295.267 41.4558 294.403 42.0925 293.765C42.7291 293.128 43.5927 292.77 44.493 292.77Z" fill="#B0B0B0"/>
<path d="M52.9148 274.579L51.3643 284.827L55.6569 285.317L60.3412 274.481L52.9148 274.579Z" fill="#FCBDBA"/>
<path d="M56.9463 283.813C56.7379 283.646 56.5563 283.447 56.4077 283.225C56.1884 283.362 55.9417 283.449 55.685 283.48C55.4284 283.511 55.168 283.485 54.9224 283.404L52.768 283.045C52.3894 282.999 52.0204 282.895 51.6744 282.734H51.5275L51.0705 283.617C50.2889 285.194 49.8284 286.91 49.7158 288.667C53.7927 289.635 57.9831 290.036 62.1692 289.86C62.5042 289.906 62.8455 289.863 63.1581 289.733C63.4706 289.604 63.7433 289.394 63.9483 289.125C64.0288 288.942 64.0703 288.744 64.0703 288.545C64.0703 288.345 64.0288 288.147 63.9483 287.964C63.7508 287.55 63.473 287.179 63.1312 286.874C62.7893 286.568 62.3902 286.333 61.957 286.183C60.8472 285.725 59.721 285.333 58.6927 284.81C58.0681 284.559 57.4806 284.223 56.9463 283.813Z" fill="#473F47"/>
<path d="M81.706 277.701L80.3677 287.981L84.6766 288.373L89.1324 277.456L81.706 277.701Z" fill="#FCBDBA"/>
<path opacity="0.1" d="M226.062 128.481V160.204C226.062 164.374 224.408 168.373 221.463 171.321C218.519 174.27 214.525 175.926 210.361 175.926H118.421L81.1587 218.845V112.758H210.361C212.423 112.758 214.464 113.164 216.369 113.955C218.274 114.745 220.005 115.903 221.463 117.363C222.921 118.823 224.078 120.556 224.867 122.464C225.656 124.371 226.062 126.416 226.062 128.481Z" fill="#8E8E8E"/>
<path d="M208.574 105.258H104.605C95.9336 105.258 88.9038 112.297 88.9038 120.981V152.704C88.9038 161.387 95.9336 168.426 104.605 168.426H208.574C217.246 168.426 224.275 161.387 224.275 152.704V120.981C224.275 112.297 217.246 105.258 208.574 105.258Z" fill="#EEFAFF"/>
<path opacity="0.1" d="M107.152 160.598C106.624 160.645 106.093 160.566 105.601 160.369C104.806 159.814 104.261 158.969 104.083 158.015C101.521 150.089 96.2163 142.374 88.2514 140.037C86.1785 148.487 86.3254 157.312 86.4886 166.024C86.4886 168.345 86.7498 171.009 88.6104 172.381C89.8235 173.131 91.2345 173.495 92.6582 173.427C101.69 173.771 110.665 171.856 118.773 167.854C121.205 166.645 126.215 161.921 121.547 160.385C120.144 159.911 117.043 160.63 115.541 160.63L107.152 160.598Z" fill="#020202"/>
<path d="M52.5396 203.255L58.9376 238.868L52.5396 277.178L62.9038 277.978L78.0013 234.831L72.8926 200.64L52.5396 203.255Z" fill="#473F47"/>
<path d="M88.3165 200.64L99.8233 248.053L90.52 280.691L81.2982 280.217L82.5877 252.368L66.3477 207.341L88.3165 200.64Z" fill="#473F47"/>
<path d="M119.997 161.317C121.381 160.507 122.861 159.876 124.403 159.437C124.645 159.329 124.91 159.281 125.175 159.298C125.439 159.315 125.695 159.397 125.921 159.535C126.161 159.76 126.316 160.06 126.362 160.385C126.601 161.432 126.516 162.526 126.117 163.523C127.856 164.488 129.681 165.287 131.569 165.909C131.963 165.977 132.338 166.125 132.673 166.344C133.007 166.563 133.292 166.849 133.511 167.184C133.628 167.534 133.638 167.911 133.539 168.266C133.44 168.622 133.237 168.939 132.956 169.178C132.385 169.652 131.697 169.963 130.965 170.077C126.231 171.188 118.528 170.077 117.401 164.406C117.157 163.164 117.614 162.951 118.593 162.248C119.115 161.905 119.589 161.611 119.997 161.317Z" fill="#FCBDBA"/>
<path d="M84.4316 117.564C85.5074 119.727 86.1978 122.061 86.4718 124.461C86.5982 125.66 86.4102 126.871 85.9264 127.974C85.4427 129.078 84.68 130.036 83.7135 130.754C83.1244 131.026 82.5752 131.378 82.0813 131.8C80.3512 133.581 82.3261 136.801 81.3305 139.105C80.9466 139.864 80.2939 140.452 79.5 140.754C78.7062 141.057 77.8282 141.051 77.0379 140.74C76.2474 140.394 75.5442 139.875 74.9794 139.222C74.4147 138.569 74.0027 137.797 73.7736 136.964C73.3334 135.291 73.1356 133.563 73.1861 131.833L73.0065 121.536C72.7775 119.244 73.1371 116.932 74.0511 114.819C74.6736 113.742 75.5803 112.859 76.6715 112.265C77.7628 111.671 78.9965 111.39 80.237 111.452C82.8321 111.779 83.5666 115.538 84.4316 117.564Z" fill="#FCBDBA"/>
<path d="M120.307 168.982C120.307 168.982 100.59 186.617 99.1704 186.617C97.7505 186.617 88.9857 175.536 88.9857 175.536L88.3165 200.705C85.8824 202.143 83.3456 203.4 80.727 204.464C76.219 206.525 71.3016 207.531 66.3477 207.406C56.7669 206.54 52.5396 203.32 52.5396 203.32L58.448 144.205C58.448 144.205 69.612 136.164 73.4312 137.389C76.1624 137.88 78.9588 137.88 81.69 137.389C87.2067 136.654 92.8376 144.205 92.8376 144.205L100.166 168.312L117.353 162.199C118.472 162.899 119.353 163.921 119.88 165.132C120.408 166.342 120.556 167.685 120.307 168.982Z" fill="#A056FF"/>
<path d="M86.6025 106.467C86.7294 105.169 86.4253 103.865 85.7375 102.757C84.4154 100.91 81.7061 100.747 79.4863 101.237C77.9601 101.656 76.4828 102.237 75.0795 102.969C74.0474 103.395 72.9216 103.542 71.8151 103.394C68.885 103.342 66.0443 104.405 63.8665 106.369C60.8633 109.213 60.1615 113.413 59.8514 117.352C59.5249 121.814 61.4836 125.524 64.4378 128.923C66.935 131.882 71.4887 134.791 74.7367 131.048C76.1852 129.146 76.8457 126.757 76.5811 124.38C75.8031 124.3 75.0697 123.978 74.4841 123.459C73.8986 122.94 73.4902 122.25 73.3167 121.487C73.2048 121.007 73.2279 120.506 73.3835 120.038C73.5391 119.571 73.8211 119.156 74.1981 118.839C74.4296 118.7 74.6862 118.607 74.9534 118.567C75.2206 118.527 75.4931 118.539 75.7554 118.605C76.0176 118.67 76.2644 118.786 76.4817 118.947C76.699 119.108 76.8825 119.31 77.0218 119.542C77.1154 119.689 77.1869 119.848 77.2339 120.016C77.7046 119.068 78.0502 118.062 78.2622 117.025C78.6376 116.028 79.8944 115.162 80.7104 115.832C81.1838 116.208 81.4612 117.041 82.0651 116.911C82.2656 116.835 82.441 116.705 82.5711 116.535C83.7594 115.39 84.7617 114.067 85.5417 112.612C86.2721 110.896 86.6549 109.052 86.6678 107.186C86.6059 106.952 86.5838 106.709 86.6025 106.467Z" fill="#FC682D"/>
<path d="M47.8552 104.277C45.7796 104.03 43.6782 104.424 41.832 105.405C39.9858 106.386 38.4827 107.909 37.5236 109.768C35.2549 114.426 36.887 119.934 37.2624 125.115C37.6034 126.913 37.3238 128.774 36.4697 130.393C35.6157 132.011 34.2377 133.291 32.5618 134.022C28.9058 136.229 24.6948 137.716 21.7732 140.838C19.4727 143.404 18.1141 146.678 17.9213 150.121C17.7388 151.556 17.9889 153.013 18.6395 154.305C19.2778 155.26 20.1124 156.068 21.0877 156.675C23.7924 158.633 26.8603 160.03 30.1115 160.785C33.3626 161.54 36.7316 161.637 40.0208 161.071C43.3014 160.448 46.3372 158.903 48.7736 156.617C51.21 154.331 52.9463 151.397 53.7799 148.16C55.2162 141.263 51.7234 134.415 50.4014 127.485C50.1595 126.673 50.0825 125.821 50.175 124.979C50.2676 124.137 50.5277 123.322 50.94 122.582C52.0335 121.111 54.0574 120.768 55.6406 119.836C64.2095 114.786 54.139 105.127 47.8552 104.277Z" fill="#FC682D"/>
<path d="M60.0638 110.945H59.917C58.1231 110.945 56.6689 112.401 56.6689 114.198V114.345C56.6689 116.141 58.1231 117.597 59.917 117.597H60.0638C61.8577 117.597 63.3119 116.141 63.3119 114.345V114.198C63.3119 112.401 61.8577 110.945 60.0638 110.945Z" fill="#191C2F"/>
<path d="M85.917 286.853C85.7124 286.682 85.5313 286.484 85.3784 286.265C85.1625 286.409 84.9177 286.504 84.6611 286.544C84.4045 286.583 84.1424 286.566 83.8931 286.494L81.7387 286.167C81.3561 286.125 80.982 286.026 80.6288 285.873H80.4819L80.0412 286.771C79.3046 288.37 78.8834 290.096 78.8008 291.854C82.8967 292.724 87.0903 293.043 91.2705 292.802C91.6077 292.844 91.9498 292.792 92.2602 292.654C92.5707 292.516 92.8378 292.296 93.0332 292.018C93.1137 291.835 93.1553 291.637 93.1553 291.438C93.1553 291.238 93.1137 291.04 93.0332 290.857C92.8307 290.446 92.5468 290.081 92.1989 289.783C91.851 289.485 91.4463 289.261 91.0094 289.125C89.8832 288.684 88.7407 288.324 87.6471 287.801C87.0294 287.567 86.4472 287.248 85.917 286.853Z" fill="#473F47"/>
<path d="M86.831 299.568H80.2208L74.9489 313.853H47.7081L52.98 299.568H46.3697L0 425.023H6.61026L11.1966 412.618H38.3885L33.8021 425.023H40.4124L44.9987 412.618H45.1946V412.095L86.4393 300.533V425.023H93.0496V299.568H86.831ZM73.1535 318.723L66.2821 337.322H39.025L45.8964 318.723H73.1535ZM30.3419 360.874L37.2133 342.291H64.5031L57.599 360.874H30.3419ZM55.8036 365.777L48.9322 384.36H21.6751L28.5955 365.679L55.8036 365.777ZM12.992 407.846L19.8634 389.247H47.1205L40.2491 407.846H12.992Z" fill="#D6E2FF"/>
<path d="M136.714 85.1492V21H213.786" stroke="white" stroke-width="1.05508" stroke-linecap="round" stroke-linejoin="round" stroke-dasharray="1.41 6.33"/>
<circle cx="136.5" cy="90.2998" r="4" stroke="white"/>
<circle cx="220.143" cy="21.5" r="4" stroke="white"/>
<rect width="98" height="29" transform="translate(232 7)" fill="#20243E"/>
<path d="M248.352 17.709L246.57 24H245.868L244.284 18.636L242.664 24L241.98 24.009L240.234 17.709H240.909L242.349 23.226L243.96 17.709H244.662L246.228 23.226L247.677 17.709H248.352ZM253.762 21.291C253.762 21.507 253.756 21.672 253.744 21.786H249.667C249.685 22.158 249.775 22.476 249.937 22.74C250.099 23.004 250.312 23.205 250.576 23.343C250.84 23.475 251.128 23.541 251.44 23.541C251.848 23.541 252.19 23.442 252.466 23.244C252.748 23.046 252.934 22.779 253.024 22.443H253.69C253.57 22.923 253.312 23.316 252.916 23.622C252.526 23.922 252.034 24.072 251.44 24.072C250.978 24.072 250.564 23.97 250.198 23.766C249.832 23.556 249.544 23.262 249.334 22.884C249.13 22.5 249.028 22.053 249.028 21.543C249.028 21.033 249.13 20.586 249.334 20.202C249.538 19.818 249.823 19.524 250.189 19.32C250.555 19.116 250.972 19.014 251.44 19.014C251.908 19.014 252.316 19.116 252.664 19.32C253.018 19.524 253.288 19.8 253.474 20.148C253.666 20.49 253.762 20.871 253.762 21.291ZM253.123 21.273C253.129 20.907 253.054 20.595 252.898 20.337C252.748 20.079 252.541 19.884 252.277 19.752C252.013 19.62 251.725 19.554 251.413 19.554C250.945 19.554 250.546 19.704 250.216 20.004C249.886 20.304 249.703 20.727 249.667 21.273H253.123ZM255.535 20.175C255.697 19.833 255.946 19.554 256.282 19.338C256.624 19.122 257.026 19.014 257.488 19.014C257.938 19.014 258.34 19.119 258.694 19.329C259.048 19.533 259.324 19.827 259.522 20.211C259.726 20.589 259.828 21.03 259.828 21.534C259.828 22.038 259.726 22.482 259.522 22.866C259.324 23.25 259.045 23.547 258.685 23.757C258.331 23.967 257.932 24.072 257.488 24.072C257.02 24.072 256.615 23.967 256.273 23.757C255.937 23.541 255.691 23.262 255.535 22.92V24H254.914V17.34H255.535V20.175ZM259.189 21.534C259.189 21.126 259.108 20.775 258.946 20.481C258.79 20.181 258.574 19.953 258.298 19.797C258.022 19.641 257.71 19.563 257.362 19.563C257.026 19.563 256.717 19.644 256.435 19.806C256.159 19.968 255.94 20.199 255.778 20.499C255.616 20.799 255.535 21.147 255.535 21.543C255.535 21.939 255.616 22.287 255.778 22.587C255.94 22.887 256.159 23.118 256.435 23.28C256.717 23.442 257.026 23.523 257.362 23.523C257.71 23.523 258.022 23.445 258.298 23.289C258.574 23.127 258.79 22.896 258.946 22.596C259.108 22.29 259.189 21.936 259.189 21.534ZM263.169 21.534C263.169 21.03 263.271 20.589 263.475 20.211C263.679 19.827 263.958 19.533 264.312 19.329C264.672 19.119 265.077 19.014 265.527 19.014C265.959 19.014 266.349 19.119 266.697 19.329C267.045 19.539 267.3 19.812 267.462 20.148V17.34H268.092V24H267.462V22.902C267.312 23.244 267.066 23.526 266.724 23.748C266.382 23.964 265.98 24.072 265.518 24.072C265.068 24.072 264.663 23.967 264.303 23.757C263.949 23.547 263.67 23.25 263.466 22.866C263.268 22.482 263.169 22.038 263.169 21.534ZM267.462 21.543C267.462 21.147 267.381 20.799 267.219 20.499C267.057 20.199 266.835 19.968 266.553 19.806C266.277 19.644 265.971 19.563 265.635 19.563C265.287 19.563 264.975 19.641 264.699 19.797C264.423 19.953 264.204 20.181 264.042 20.481C263.886 20.775 263.808 21.126 263.808 21.534C263.808 21.936 263.886 22.29 264.042 22.596C264.204 22.896 264.423 23.127 264.699 23.289C264.975 23.445 265.287 23.523 265.635 23.523C265.971 23.523 266.277 23.442 266.553 23.28C266.835 23.118 267.057 22.887 267.219 22.587C267.381 22.287 267.462 21.939 267.462 21.543ZM273.977 21.291C273.977 21.507 273.971 21.672 273.959 21.786H269.882C269.9 22.158 269.99 22.476 270.152 22.74C270.314 23.004 270.527 23.205 270.791 23.343C271.055 23.475 271.343 23.541 271.655 23.541C272.063 23.541 272.405 23.442 272.681 23.244C272.963 23.046 273.149 22.779 273.239 22.443H273.905C273.785 22.923 273.527 23.316 273.131 23.622C272.741 23.922 272.249 24.072 271.655 24.072C271.193 24.072 270.779 23.97 270.413 23.766C270.047 23.556 269.759 23.262 269.549 22.884C269.345 22.5 269.243 22.053 269.243 21.543C269.243 21.033 269.345 20.586 269.549 20.202C269.753 19.818 270.038 19.524 270.404 19.32C270.77 19.116 271.187 19.014 271.655 19.014C272.123 19.014 272.531 19.116 272.879 19.32C273.233 19.524 273.503 19.8 273.689 20.148C273.881 20.49 273.977 20.871 273.977 21.291ZM273.338 21.273C273.344 20.907 273.269 20.595 273.113 20.337C272.963 20.079 272.756 19.884 272.492 19.752C272.228 19.62 271.94 19.554 271.628 19.554C271.16 19.554 270.761 19.704 270.431 20.004C270.101 20.304 269.918 20.727 269.882 21.273H273.338ZM276.875 23.388L278.531 19.086H279.197L277.226 24H276.515L274.544 19.086H275.219L276.875 23.388ZM284.497 21.291C284.497 21.507 284.491 21.672 284.479 21.786H280.402C280.42 22.158 280.51 22.476 280.672 22.74C280.834 23.004 281.047 23.205 281.311 23.343C281.575 23.475 281.863 23.541 282.175 23.541C282.583 23.541 282.925 23.442 283.201 23.244C283.483 23.046 283.669 22.779 283.759 22.443H284.425C284.305 22.923 284.047 23.316 283.651 23.622C283.261 23.922 282.769 24.072 282.175 24.072C281.713 24.072 281.299 23.97 280.933 23.766C280.567 23.556 280.279 23.262 280.069 22.884C279.865 22.5 279.763 22.053 279.763 21.543C279.763 21.033 279.865 20.586 280.069 20.202C280.273 19.818 280.558 19.524 280.924 19.32C281.29 19.116 281.707 19.014 282.175 19.014C282.643 19.014 283.051 19.116 283.399 19.32C283.753 19.524 284.023 19.8 284.209 20.148C284.401 20.49 284.497 20.871 284.497 21.291ZM283.858 21.273C283.864 20.907 283.789 20.595 283.633 20.337C283.483 20.079 283.276 19.884 283.012 19.752C282.748 19.62 282.46 19.554 282.148 19.554C281.68 19.554 281.281 19.704 280.951 20.004C280.621 20.304 280.438 20.727 280.402 21.273H283.858ZM286.28 17.34V24H285.65V17.34H286.28ZM289.857 24.072C289.395 24.072 288.978 23.97 288.606 23.766C288.24 23.556 287.949 23.262 287.733 22.884C287.523 22.5 287.418 22.053 287.418 21.543C287.418 21.033 287.526 20.589 287.742 20.211C287.958 19.827 288.252 19.533 288.624 19.329C288.996 19.119 289.413 19.014 289.875 19.014C290.337 19.014 290.754 19.119 291.126 19.329C291.504 19.533 291.798 19.827 292.008 20.211C292.224 20.589 292.332 21.033 292.332 21.543C292.332 22.047 292.224 22.491 292.008 22.875C291.792 23.259 291.495 23.556 291.117 23.766C290.739 23.97 290.319 24.072 289.857 24.072ZM289.857 23.523C290.181 23.523 290.481 23.451 290.757 23.307C291.033 23.157 291.255 22.935 291.423 22.641C291.597 22.341 291.684 21.975 291.684 21.543C291.684 21.111 291.6 20.748 291.432 20.454C291.264 20.154 291.042 19.932 290.766 19.788C290.49 19.638 290.19 19.563 289.866 19.563C289.542 19.563 289.242 19.638 288.966 19.788C288.69 19.932 288.468 20.154 288.3 20.454C288.138 20.748 288.057 21.111 288.057 21.543C288.057 21.975 288.138 22.341 288.3 22.641C288.468 22.935 288.687 23.157 288.957 23.307C289.233 23.451 289.533 23.523 289.857 23.523ZM294.102 20.166C294.258 19.836 294.504 19.563 294.84 19.347C295.182 19.125 295.587 19.014 296.055 19.014C296.499 19.014 296.898 19.119 297.252 19.329C297.612 19.533 297.891 19.827 298.089 20.211C298.293 20.589 298.395 21.03 298.395 21.534C298.395 22.038 298.293 22.482 298.089 22.866C297.891 23.25 297.612 23.547 297.252 23.757C296.898 23.967 296.499 24.072 296.055 24.072C295.593 24.072 295.191 23.964 294.849 23.748C294.507 23.526 294.258 23.25 294.102 22.92V26.322H293.481V19.086H294.102V20.166ZM297.756 21.534C297.756 21.126 297.675 20.775 297.513 20.481C297.357 20.181 297.141 19.953 296.865 19.797C296.589 19.641 296.277 19.563 295.929 19.563C295.593 19.563 295.284 19.644 295.002 19.806C294.726 19.968 294.507 20.199 294.345 20.499C294.183 20.799 294.102 21.147 294.102 21.543C294.102 21.939 294.183 22.287 294.345 22.587C294.507 22.887 294.726 23.118 295.002 23.28C295.284 23.442 295.593 23.523 295.929 23.523C296.277 23.523 296.589 23.445 296.865 23.289C297.141 23.127 297.357 22.896 297.513 22.596C297.675 22.29 297.756 21.936 297.756 21.534ZM305.404 18.996C305.98 18.996 306.448 19.179 306.808 19.545C307.174 19.905 307.357 20.43 307.357 21.12V24H306.736V21.192C306.736 20.658 306.607 20.25 306.349 19.968C306.091 19.686 305.74 19.545 305.296 19.545C304.834 19.545 304.465 19.698 304.189 20.004C303.913 20.31 303.775 20.754 303.775 21.336V24H303.154V21.192C303.154 20.658 303.025 20.25 302.767 19.968C302.509 19.686 302.155 19.545 301.705 19.545C301.243 19.545 300.874 19.698 300.598 20.004C300.322 20.31 300.184 20.754 300.184 21.336V24H299.554V19.086H300.184V19.932C300.34 19.626 300.562 19.395 300.85 19.239C301.138 19.077 301.459 18.996 301.813 18.996C302.239 18.996 302.611 19.098 302.929 19.302C303.253 19.506 303.487 19.806 303.631 20.202C303.763 19.812 303.988 19.515 304.306 19.311C304.63 19.101 304.996 18.996 305.404 18.996ZM313.202 21.291C313.202 21.507 313.196 21.672 313.184 21.786H309.107C309.125 22.158 309.215 22.476 309.377 22.74C309.539 23.004 309.752 23.205 310.016 23.343C310.28 23.475 310.568 23.541 310.88 23.541C311.288 23.541 311.63 23.442 311.906 23.244C312.188 23.046 312.374 22.779 312.464 22.443H313.13C313.01 22.923 312.752 23.316 312.356 23.622C311.966 23.922 311.474 24.072 310.88 24.072C310.418 24.072 310.004 23.97 309.638 23.766C309.272 23.556 308.984 23.262 308.774 22.884C308.57 22.5 308.468 22.053 308.468 21.543C308.468 21.033 308.57 20.586 308.774 20.202C308.978 19.818 309.263 19.524 309.629 19.32C309.995 19.116 310.412 19.014 310.88 19.014C311.348 19.014 311.756 19.116 312.104 19.32C312.458 19.524 312.728 19.8 312.914 20.148C313.106 20.49 313.202 20.871 313.202 21.291ZM312.563 21.273C312.569 20.907 312.494 20.595 312.338 20.337C312.188 20.079 311.981 19.884 311.717 19.752C311.453 19.62 311.165 19.554 310.853 19.554C310.385 19.554 309.986 19.704 309.656 20.004C309.326 20.304 309.143 20.727 309.107 21.273H312.563ZM316.659 18.996C317.247 18.996 317.727 19.179 318.099 19.545C318.471 19.905 318.657 20.43 318.657 21.12V24H318.036V21.192C318.036 20.658 317.901 20.25 317.631 19.968C317.367 19.686 317.004 19.545 316.542 19.545C316.068 19.545 315.69 19.695 315.408 19.995C315.126 20.295 314.985 20.736 314.985 21.318V24H314.355V19.086H314.985V19.923C315.141 19.623 315.366 19.395 315.66 19.239C315.954 19.077 316.287 18.996 316.659 18.996ZM320.869 19.617V22.668C320.869 22.968 320.926 23.175 321.04 23.289C321.154 23.403 321.355 23.46 321.643 23.46H322.219V24H321.544C321.1 24 320.77 23.898 320.554 23.694C320.338 23.484 320.23 23.142 320.23 22.668V19.617H319.546V19.086H320.23V17.853H320.869V19.086H322.219V19.617H320.869Z" fill="white"/>
<defs>
<filter id="filter0_i" x="329" y="215" width="69" height="60" filterUnits="userSpaceOnUse" color-interpolation-filters="sRGB">
<feFlood flood-opacity="0" result="BackgroundImageFix"/>
<feBlend mode="normal" in="SourceGraphic" in2="BackgroundImageFix" result="shape"/>
<feColorMatrix in="SourceAlpha" type="matrix" values="0 0 0 0 0 0 0 0 0 0 0 0 0 0 0 0 0 0 127 0" result="hardAlpha"/>
<feOffset dy="1"/>
<feGaussianBlur stdDeviation="1.5"/>
<feComposite in2="hardAlpha" operator="arithmetic" k2="-1" k3="1"/>
<feColorMatrix type="matrix" values="0 0 0 0 0 0 0 0 0 0 0 0 0 0 0 0 0 0 0.25 0"/>
<feBlend mode="normal" in2="shape" result="effect1_innerShadow"/>
</filter>
<linearGradient id="paint0_linear" x1="302.121" y1="306.644" x2="286.902" y2="594.1" gradientUnits="userSpaceOnUse">
<stop offset="0.01"/>
<stop offset="0.08" stop-opacity="0.69"/>
<stop offset="0.21" stop-opacity="0.32"/>
<stop offset="1" stop-opacity="0"/>
</linearGradient>
<linearGradient id="paint1_linear" x1="300.045" y1="332.059" x2="300.045" y2="403.664" gradientUnits="userSpaceOnUse">
<stop stop-color="#4F70F8"/>
<stop offset="1" stop-color="#17CCFF"/>
</linearGradient>
<linearGradient id="paint2_linear" x1="52325.2" y1="-10182.7" x2="51950.9" y2="-2253.07" gradientUnits="userSpaceOnUse">
<stop offset="0.01"/>
<stop offset="0.08" stop-opacity="0.69"/>
<stop offset="0.21" stop-opacity="0.32"/>
<stop offset="1" stop-opacity="0"/>
</linearGradient>
<linearGradient id="paint3_linear" x1="469" y1="326.333" x2="137" y2="323.667" gradientUnits="userSpaceOnUse">
<stop stop-color="#4F70F8"/>
<stop offset="1" stop-color="#17CCFF"/>
</linearGradient>
<linearGradient id="paint4_linear" x1="302.623" y1="125.207" x2="302.623" y2="297.246" gradientUnits="userSpaceOnUse">
<stop stop-color="#DBE6FF"/>
<stop offset="1" stop-color="#D6E2FF" stop-opacity="0"/>
</linearGradient>
<linearGradient id="paint5_linear" x1="6988.68" y1="21474.9" x2="18591.5" y2="8163.52" gradientUnits="userSpaceOnUse">
<stop stop-opacity="0.69"/>
<stop offset="0.161458" stop-opacity="0.32"/>
<stop offset="0.75" stop-opacity="0"/>
</linearGradient>
<linearGradient id="paint6_linear" x1="216" y1="397" x2="257" y2="275" gradientUnits="userSpaceOnUse">
<stop stop-color="#0066FF"/>
<stop offset="1" stop-color="#FF2121" stop-opacity="0.99"/>
</linearGradient>
<linearGradient id="paint7_linear" x1="19854.7" y1="-7016.34" x2="22388" y2="-4526.73" gradientUnits="userSpaceOnUse">
<stop offset="0.01"/>
<stop offset="0.08" stop-opacity="0.69"/>
<stop offset="0.21" stop-opacity="0.32"/>
<stop offset="1" stop-opacity="0"/>
</linearGradient>
<linearGradient id="paint8_linear" x1="206.221" y1="314.539" x2="186" y2="363" gradientUnits="userSpaceOnUse">
<stop stop-color="#0066FF"/>
<stop offset="1" stop-color="#FF2121" stop-opacity="0.99"/>
</linearGradient>
<linearGradient id="paint9_linear" x1="501.331" y1="374.14" x2="497.947" y2="485.347" gradientUnits="userSpaceOnUse">
<stop offset="0.01"/>
<stop offset="0.84" stop-opacity="0"/>
</linearGradient>
<linearGradient id="paint10_linear" x1="455.15" y1="248.387" x2="455.15" y2="438.882" gradientUnits="userSpaceOnUse">
<stop stop-color="#DCE6FF"/>
<stop offset="1" stop-color="#4483FA"/>
</linearGradient>
<linearGradient id="paint11_linear" x1="8909.76" y1="13679.9" x2="13842.5" y2="12894.4" gradientUnits="userSpaceOnUse">
<stop offset="0.01" stop-color="#473F47"/>
<stop offset="0.84" stop-opacity="0"/>
</linearGradient>
<linearGradient id="paint12_linear" x1="7535.23" y1="6310.35" x2="8220.44" y2="6310.35" gradientUnits="userSpaceOnUse">
<stop offset="0.01" stop-color="#473F47"/>
<stop offset="0.13" stop-opacity="0.69"/>
<stop offset="0.25" stop-opacity="0.32"/>
<stop offset="1" stop-opacity="0"/>
</linearGradient>
<linearGradient id="paint13_linear" x1="5470.7" y1="14114.8" x2="10051.2" y2="13492.3" gradientUnits="userSpaceOnUse">
<stop offset="0.01" stop-color="#473F47"/>
<stop offset="0.13" stop-opacity="0.69"/>
<stop offset="0.25" stop-opacity="0.32"/>
<stop offset="1" stop-opacity="0"/>
</linearGradient>
<linearGradient id="paint14_linear" x1="2735.29" y1="7395.9" x2="3085.06" y2="7372.94" gradientUnits="userSpaceOnUse">
<stop offset="0.01"/>
<stop offset="0.13" stop-opacity="0.69"/>
<stop offset="0.25" stop-opacity="0.32"/>
<stop offset="1" stop-opacity="0"/>
</linearGradient>
<linearGradient id="paint15_linear" x1="3965" y1="11379.6" x2="4850.99" y2="11389.1" gradientUnits="userSpaceOnUse">
<stop/>
<stop offset="0.13" stop-opacity="0.69"/>
<stop offset="0.25" stop-opacity="0.32"/>
<stop offset="1" stop-opacity="0"/>
</linearGradient>
<clipPath id="clip0">
<rect width="541.333" height="408" fill="white" transform="translate(41 57)"/>
</clipPath>
<clipPath id="clip1">
<rect width="69" height="59" fill="white" transform="translate(329 215)"/>
</clipPath>
</defs>
</svg>
