<svg width="826" height="131" viewBox="0 0 826 131" fill="none" xmlns="http://www.w3.org/2000/svg">
<path d="M20.172 111.49V120.508C20.172 121.624 19.83 122.506 19.146 123.154C18.474 123.802 17.586 124.126 16.482 124.126C15.378 124.126 14.484 123.802 13.8 123.154C13.128 122.506 12.792 121.624 12.792 120.508H14.862C14.874 121.06 15.012 121.498 15.276 121.822C15.552 122.146 15.954 122.308 16.482 122.308C17.01 122.308 17.412 122.146 17.688 121.822C17.964 121.486 18.102 121.048 18.102 120.508V111.49H20.172ZM22.8262 118.996C22.8262 118 23.0302 117.118 23.4382 116.35C23.8582 115.582 24.4222 114.988 25.1302 114.568C25.8502 114.136 26.6422 113.92 27.5062 113.92C28.2862 113.92 28.9642 114.076 29.5402 114.388C30.1282 114.688 30.5962 115.066 30.9442 115.522V114.082H33.0142V124H30.9442V122.524C30.5962 122.992 30.1222 123.382 29.5222 123.694C28.9222 124.006 28.2382 124.162 27.4702 124.162C26.6182 124.162 25.8382 123.946 25.1302 123.514C24.4222 123.07 23.8582 122.458 23.4382 121.678C23.0302 120.886 22.8262 119.992 22.8262 118.996ZM30.9442 119.032C30.9442 118.348 30.8002 117.754 30.5122 117.25C30.2362 116.746 29.8702 116.362 29.4142 116.098C28.9582 115.834 28.4662 115.702 27.9382 115.702C27.4102 115.702 26.9182 115.834 26.4622 116.098C26.0062 116.35 25.6342 116.728 25.3462 117.232C25.0702 117.724 24.9322 118.312 24.9322 118.996C24.9322 119.68 25.0702 120.28 25.3462 120.796C25.6342 121.312 26.0062 121.708 26.4622 121.984C26.9302 122.248 27.4222 122.38 27.9382 122.38C28.4662 122.38 28.9582 122.248 29.4142 121.984C29.8702 121.72 30.2362 121.336 30.5122 120.832C30.8002 120.316 30.9442 119.716 30.9442 119.032ZM39.5434 122.164L42.3514 114.082H44.5294L40.7494 124H38.3014L34.5394 114.082H36.7354L39.5434 122.164ZM45.3965 118.996C45.3965 118 45.6005 117.118 46.0085 116.35C46.4285 115.582 46.9925 114.988 47.7005 114.568C48.4205 114.136 49.2125 113.92 50.0765 113.92C50.8565 113.92 51.5345 114.076 52.1105 114.388C52.6985 114.688 53.1665 115.066 53.5145 115.522V114.082H55.5845V124H53.5145V122.524C53.1665 122.992 52.6925 123.382 52.0925 123.694C51.4925 124.006 50.8085 124.162 50.0405 124.162C49.1885 124.162 48.4085 123.946 47.7005 123.514C46.9925 123.07 46.4285 122.458 46.0085 121.678C45.6005 120.886 45.3965 119.992 45.3965 118.996ZM53.5145 119.032C53.5145 118.348 53.3705 117.754 53.0825 117.25C52.8065 116.746 52.4405 116.362 51.9845 116.098C51.5285 115.834 51.0365 115.702 50.5085 115.702C49.9805 115.702 49.4885 115.834 49.0325 116.098C48.5765 116.35 48.2045 116.728 47.9165 117.232C47.6405 117.724 47.5025 118.312 47.5025 118.996C47.5025 119.68 47.6405 120.28 47.9165 120.796C48.2045 121.312 48.5765 121.708 49.0325 121.984C49.5005 122.248 49.9925 122.38 50.5085 122.38C51.0365 122.38 51.5285 122.248 51.9845 121.984C52.4405 121.72 52.8065 121.336 53.0825 120.832C53.3705 120.316 53.5145 119.716 53.5145 119.032Z" fill="black"/>
<path d="M185.892 121.444H180.654L179.754 124H177.612L182.094 111.472H184.47L188.952 124H186.792L185.892 121.444ZM185.316 119.77L183.282 113.956L181.23 119.77H185.316ZM195.905 113.92C196.685 113.92 197.381 114.082 197.993 114.406C198.617 114.73 199.103 115.21 199.451 115.846C199.799 116.482 199.973 117.25 199.973 118.15V124H197.939V118.456C197.939 117.568 197.717 116.89 197.273 116.422C196.829 115.942 196.223 115.702 195.455 115.702C194.687 115.702 194.075 115.942 193.619 116.422C193.175 116.89 192.953 117.568 192.953 118.456V124H190.901V114.082H192.953V115.216C193.289 114.808 193.715 114.49 194.231 114.262C194.759 114.034 195.317 113.92 195.905 113.92ZM201.906 118.996C201.906 118 202.11 117.118 202.518 116.35C202.938 115.582 203.502 114.988 204.21 114.568C204.93 114.136 205.728 113.92 206.604 113.92C207.252 113.92 207.888 114.064 208.512 114.352C209.148 114.628 209.652 115 210.024 115.468V110.68H212.094V124H210.024V122.506C209.688 122.986 209.22 123.382 208.62 123.694C208.032 124.006 207.354 124.162 206.586 124.162C205.722 124.162 204.93 123.946 204.21 123.514C203.502 123.07 202.938 122.458 202.518 121.678C202.11 120.886 201.906 119.992 201.906 118.996ZM210.024 119.032C210.024 118.348 209.88 117.754 209.592 117.25C209.316 116.746 208.95 116.362 208.494 116.098C208.038 115.834 207.546 115.702 207.018 115.702C206.49 115.702 205.998 115.834 205.542 116.098C205.086 116.35 204.714 116.728 204.426 117.232C204.15 117.724 204.012 118.312 204.012 118.996C204.012 119.68 204.15 120.28 204.426 120.796C204.714 121.312 205.086 121.708 205.542 121.984C206.01 122.248 206.502 122.38 207.018 122.38C207.546 122.38 208.038 122.248 208.494 121.984C208.95 121.72 209.316 121.336 209.592 120.832C209.88 120.316 210.024 119.716 210.024 119.032ZM216.841 115.522C217.141 115.018 217.537 114.628 218.029 114.352C218.533 114.064 219.127 113.92 219.811 113.92V116.044H219.289C218.485 116.044 217.873 116.248 217.453 116.656C217.045 117.064 216.841 117.772 216.841 118.78V124H214.789V114.082H216.841V115.522ZM226 124.162C225.064 124.162 224.218 123.952 223.462 123.532C222.706 123.1 222.112 122.5 221.68 121.732C221.248 120.952 221.032 120.052 221.032 119.032C221.032 118.024 221.254 117.13 221.698 116.35C222.142 115.57 222.748 114.97 223.516 114.55C224.284 114.13 225.142 113.92 226.09 113.92C227.038 113.92 227.896 114.13 228.664 114.55C229.432 114.97 230.038 115.57 230.482 116.35C230.926 117.13 231.148 118.024 231.148 119.032C231.148 120.04 230.92 120.934 230.464 121.714C230.008 122.494 229.384 123.1 228.592 123.532C227.812 123.952 226.948 124.162 226 124.162ZM226 122.38C226.528 122.38 227.02 122.254 227.476 122.002C227.944 121.75 228.322 121.372 228.61 120.868C228.898 120.364 229.042 119.752 229.042 119.032C229.042 118.312 228.904 117.706 228.628 117.214C228.352 116.71 227.986 116.332 227.53 116.08C227.074 115.828 226.582 115.702 226.054 115.702C225.526 115.702 225.034 115.828 224.578 116.08C224.134 116.332 223.78 116.71 223.516 117.214C223.252 117.706 223.12 118.312 223.12 119.032C223.12 120.1 223.39 120.928 223.93 121.516C224.482 122.092 225.172 122.38 226 122.38ZM234.22 112.768C233.848 112.768 233.536 112.642 233.284 112.39C233.032 112.138 232.906 111.826 232.906 111.454C232.906 111.082 233.032 110.77 233.284 110.518C233.536 110.266 233.848 110.14 234.22 110.14C234.58 110.14 234.886 110.266 235.138 110.518C235.39 110.77 235.516 111.082 235.516 111.454C235.516 111.826 235.39 112.138 235.138 112.39C234.886 112.642 234.58 112.768 234.22 112.768ZM235.228 114.082V124H233.176V114.082H235.228ZM237.238 118.996C237.238 118 237.442 117.118 237.85 116.35C238.27 115.582 238.834 114.988 239.542 114.568C240.262 114.136 241.06 113.92 241.936 113.92C242.584 113.92 243.22 114.064 243.844 114.352C244.48 114.628 244.984 115 245.356 115.468V110.68H247.426V124H245.356V122.506C245.02 122.986 244.552 123.382 243.952 123.694C243.364 124.006 242.686 124.162 241.918 124.162C241.054 124.162 240.262 123.946 239.542 123.514C238.834 123.07 238.27 122.458 237.85 121.678C237.442 120.886 237.238 119.992 237.238 118.996ZM245.356 119.032C245.356 118.348 245.212 117.754 244.924 117.25C244.648 116.746 244.282 116.362 243.826 116.098C243.37 115.834 242.878 115.702 242.35 115.702C241.822 115.702 241.33 115.834 240.874 116.098C240.418 116.35 240.046 116.728 239.758 117.232C239.482 117.724 239.344 118.312 239.344 118.996C239.344 119.68 239.482 120.28 239.758 120.796C240.046 121.312 240.418 121.708 240.874 121.984C241.342 122.248 241.834 122.38 242.35 122.38C242.878 122.38 243.37 122.248 243.826 121.984C244.282 121.72 244.648 121.336 244.924 120.832C245.212 120.316 245.356 119.716 245.356 119.032Z" fill="black"/>
<path d="M388.34 111.49V124H386.288V118.528H380.402V124H378.35V111.49H380.402V116.854H386.288V111.49H388.34ZM399.123 111.49V113.164H395.793V124H393.741V113.164H390.393V111.49H399.123ZM414.378 111.49V124H412.326V115.432L408.51 124H407.088L403.254 115.432V124H401.202V111.49H403.416L407.808 121.3L412.182 111.49H414.378ZM419.127 122.344H423.357V124H417.075V111.49H419.127V122.344Z" fill="black"/>
<path d="M573.666 117.718C573.666 116.494 573.948 115.396 574.512 114.424C575.088 113.452 575.862 112.696 576.834 112.156C577.818 111.604 578.892 111.328 580.056 111.328C581.388 111.328 582.57 111.658 583.602 112.318C584.646 112.966 585.402 113.89 585.87 115.09H583.404C583.08 114.43 582.63 113.938 582.054 113.614C581.478 113.29 580.812 113.128 580.056 113.128C579.228 113.128 578.49 113.314 577.842 113.686C577.194 114.058 576.684 114.592 576.312 115.288C575.952 115.984 575.772 116.794 575.772 117.718C575.772 118.642 575.952 119.452 576.312 120.148C576.684 120.844 577.194 121.384 577.842 121.768C578.49 122.14 579.228 122.326 580.056 122.326C580.812 122.326 581.478 122.164 582.054 121.84C582.63 121.516 583.08 121.024 583.404 120.364H585.87C585.402 121.564 584.646 122.488 583.602 123.136C582.57 123.784 581.388 124.108 580.056 124.108C578.88 124.108 577.806 123.838 576.834 123.298C575.862 122.746 575.088 121.984 574.512 121.012C573.948 120.04 573.666 118.942 573.666 117.718ZM592.394 124.126C591.554 124.126 590.798 123.982 590.126 123.694C589.454 123.394 588.926 122.974 588.542 122.434C588.158 121.894 587.966 121.264 587.966 120.544H590.162C590.21 121.084 590.42 121.528 590.792 121.876C591.176 122.224 591.71 122.398 592.394 122.398C593.102 122.398 593.654 122.23 594.05 121.894C594.446 121.546 594.644 121.102 594.644 120.562C594.644 120.142 594.518 119.8 594.266 119.536C594.026 119.272 593.72 119.068 593.348 118.924C592.988 118.78 592.484 118.624 591.836 118.456C591.02 118.24 590.354 118.024 589.838 117.808C589.334 117.58 588.902 117.232 588.542 116.764C588.182 116.296 588.002 115.672 588.002 114.892C588.002 114.172 588.182 113.542 588.542 113.002C588.902 112.462 589.406 112.048 590.054 111.76C590.702 111.472 591.452 111.328 592.304 111.328C593.516 111.328 594.506 111.634 595.274 112.246C596.054 112.846 596.486 113.674 596.57 114.73H594.302C594.266 114.274 594.05 113.884 593.654 113.56C593.258 113.236 592.736 113.074 592.088 113.074C591.5 113.074 591.02 113.224 590.648 113.524C590.276 113.824 590.09 114.256 590.09 114.82C590.09 115.204 590.204 115.522 590.432 115.774C590.672 116.014 590.972 116.206 591.332 116.35C591.692 116.494 592.184 116.65 592.808 116.818C593.636 117.046 594.308 117.274 594.824 117.502C595.352 117.73 595.796 118.084 596.156 118.564C596.528 119.032 596.714 119.662 596.714 120.454C596.714 121.09 596.54 121.69 596.192 122.254C595.856 122.818 595.358 123.274 594.698 123.622C594.05 123.958 593.282 124.126 592.394 124.126ZM603.257 124.126C602.417 124.126 601.661 123.982 600.989 123.694C600.317 123.394 599.789 122.974 599.405 122.434C599.021 121.894 598.829 121.264 598.829 120.544H601.025C601.073 121.084 601.283 121.528 601.655 121.876C602.039 122.224 602.573 122.398 603.257 122.398C603.965 122.398 604.517 122.23 604.913 121.894C605.309 121.546 605.507 121.102 605.507 120.562C605.507 120.142 605.381 119.8 605.129 119.536C604.889 119.272 604.583 119.068 604.211 118.924C603.851 118.78 603.347 118.624 602.699 118.456C601.883 118.24 601.217 118.024 600.701 117.808C600.197 117.58 599.765 117.232 599.405 116.764C599.045 116.296 598.865 115.672 598.865 114.892C598.865 114.172 599.045 113.542 599.405 113.002C599.765 112.462 600.269 112.048 600.917 111.76C601.565 111.472 602.315 111.328 603.167 111.328C604.379 111.328 605.369 111.634 606.137 112.246C606.917 112.846 607.349 113.674 607.433 114.73H605.165C605.129 114.274 604.913 113.884 604.517 113.56C604.121 113.236 603.599 113.074 602.951 113.074C602.363 113.074 601.883 113.224 601.511 113.524C601.139 113.824 600.953 114.256 600.953 114.82C600.953 115.204 601.067 115.522 601.295 115.774C601.535 116.014 601.835 116.206 602.195 116.35C602.555 116.494 603.047 116.65 603.671 116.818C604.499 117.046 605.171 117.274 605.687 117.502C606.215 117.73 606.659 118.084 607.019 118.564C607.391 119.032 607.577 119.662 607.577 120.454C607.577 121.09 607.403 121.69 607.055 122.254C606.719 122.818 606.221 123.274 605.561 123.622C604.913 123.958 604.145 124.126 603.257 124.126Z" fill="black"/>
<path d="M757.712 111.49V113.164H752.402V116.854H756.542V118.528H752.402V124H750.35V111.49H757.712ZM760.658 112.768C760.286 112.768 759.974 112.642 759.722 112.39C759.47 112.138 759.344 111.826 759.344 111.454C759.344 111.082 759.47 110.77 759.722 110.518C759.974 110.266 760.286 110.14 760.658 110.14C761.018 110.14 761.324 110.266 761.576 110.518C761.828 110.77 761.954 111.082 761.954 111.454C761.954 111.826 761.828 112.138 761.576 112.39C761.324 112.642 761.018 112.768 760.658 112.768ZM761.666 114.082V124H759.614V114.082H761.666ZM768.356 113.92C769.124 113.92 769.802 114.076 770.39 114.388C770.99 114.688 771.458 115.066 771.794 115.522V114.082H773.864V124.162C773.864 125.074 773.672 125.884 773.288 126.592C772.904 127.312 772.346 127.876 771.614 128.284C770.894 128.692 770.03 128.896 769.022 128.896C767.678 128.896 766.562 128.578 765.674 127.942C764.786 127.318 764.282 126.466 764.162 125.386H766.196C766.352 125.902 766.682 126.316 767.186 126.628C767.702 126.952 768.314 127.114 769.022 127.114C769.85 127.114 770.516 126.862 771.02 126.358C771.536 125.854 771.794 125.122 771.794 124.162V122.506C771.446 122.974 770.972 123.37 770.372 123.694C769.784 124.006 769.112 124.162 768.356 124.162C767.492 124.162 766.7 123.946 765.98 123.514C765.272 123.07 764.708 122.458 764.288 121.678C763.88 120.886 763.676 119.992 763.676 118.996C763.676 118 763.88 117.118 764.288 116.35C764.708 115.582 765.272 114.988 765.98 114.568C766.7 114.136 767.492 113.92 768.356 113.92ZM771.794 119.032C771.794 118.348 771.65 117.754 771.362 117.25C771.086 116.746 770.72 116.362 770.264 116.098C769.808 115.834 769.316 115.702 768.788 115.702C768.26 115.702 767.768 115.834 767.312 116.098C766.856 116.35 766.484 116.728 766.196 117.232C765.92 117.724 765.782 118.312 765.782 118.996C765.782 119.68 765.92 120.28 766.196 120.796C766.484 121.312 766.856 121.708 767.312 121.984C767.78 122.248 768.272 122.38 768.788 122.38C769.316 122.38 769.808 122.248 770.264 121.984C770.72 121.72 771.086 121.336 771.362 120.832C771.65 120.316 771.794 119.716 771.794 119.032ZM788.565 113.92C789.345 113.92 790.041 114.082 790.653 114.406C791.277 114.73 791.763 115.21 792.111 115.846C792.471 116.482 792.651 117.25 792.651 118.15V124H790.617V118.456C790.617 117.568 790.395 116.89 789.951 116.422C789.507 115.942 788.901 115.702 788.133 115.702C787.365 115.702 786.753 115.942 786.297 116.422C785.853 116.89 785.631 117.568 785.631 118.456V124H783.597V118.456C783.597 117.568 783.375 116.89 782.931 116.422C782.487 115.942 781.881 115.702 781.113 115.702C780.345 115.702 779.733 115.942 779.277 116.422C778.833 116.89 778.611 117.568 778.611 118.456V124H776.559V114.082H778.611V115.216C778.947 114.808 779.373 114.49 779.889 114.262C780.405 114.034 780.957 113.92 781.545 113.92C782.337 113.92 783.045 114.088 783.669 114.424C784.293 114.76 784.773 115.246 785.109 115.882C785.409 115.282 785.877 114.808 786.513 114.46C787.149 114.1 787.833 113.92 788.565 113.92ZM794.578 118.996C794.578 118 794.782 117.118 795.19 116.35C795.61 115.582 796.174 114.988 796.882 114.568C797.602 114.136 798.394 113.92 799.258 113.92C800.038 113.92 800.716 114.076 801.292 114.388C801.88 114.688 802.348 115.066 802.696 115.522V114.082H804.766V124H802.696V122.524C802.348 122.992 801.874 123.382 801.274 123.694C800.674 124.006 799.99 124.162 799.222 124.162C798.37 124.162 797.59 123.946 796.882 123.514C796.174 123.07 795.61 122.458 795.19 121.678C794.782 120.886 794.578 119.992 794.578 118.996ZM802.696 119.032C802.696 118.348 802.552 117.754 802.264 117.25C801.988 116.746 801.622 116.362 801.166 116.098C800.71 115.834 800.218 115.702 799.69 115.702C799.162 115.702 798.67 115.834 798.214 116.098C797.758 116.35 797.386 116.728 797.098 117.232C796.822 117.724 796.684 118.312 796.684 118.996C796.684 119.68 796.822 120.28 797.098 120.796C797.386 121.312 797.758 121.708 798.214 121.984C798.682 122.248 799.174 122.38 799.69 122.38C800.218 122.38 800.71 122.248 801.166 121.984C801.622 121.72 801.988 121.336 802.264 120.832C802.552 120.316 802.696 119.716 802.696 119.032Z" fill="black"/>
<path d="M188.519 55.585C188.519 56.6017 188.115 57.5767 187.395 58.2956C186.675 59.0145 185.698 59.4184 184.68 59.4184C183.661 59.4184 182.685 59.0145 181.964 58.2956C181.244 57.5767 180.84 56.6017 180.84 55.585V38.335C180.84 37.3184 181.244 36.3434 181.964 35.6245C182.685 34.9056 183.661 34.5017 184.68 34.5017C185.698 34.5017 186.675 34.9056 187.395 35.6245C188.115 36.3434 188.519 37.3184 188.519 38.335V55.585Z" fill="#7CB342"/>
<path d="M242.277 55.585C242.277 56.6017 241.872 57.5767 241.152 58.2956C240.432 59.0145 239.455 59.4184 238.437 59.4184C237.419 59.4184 236.442 59.0145 235.722 58.2956C235.002 57.5767 234.597 56.6017 234.597 55.585V38.335C234.597 37.3184 235.002 36.3434 235.722 35.6245C236.442 34.9056 237.419 34.5017 238.437 34.5017C239.455 34.5017 240.432 34.9056 241.152 35.6245C241.872 36.3434 242.277 37.3184 242.277 38.335V55.585Z" fill="#7CB342"/>
<path d="M207.719 76.6666C207.719 77.6832 207.314 78.6582 206.594 79.3771C205.874 80.096 204.897 80.4999 203.879 80.4999C202.86 80.4999 201.884 80.096 201.164 79.3771C200.444 78.6582 200.039 77.6832 200.039 76.6666V59.4166C200.039 58.3999 200.444 57.4249 201.164 56.706C201.884 55.9871 202.86 55.5833 203.879 55.5833C204.897 55.5833 205.874 55.9871 206.594 56.706C207.314 57.4249 207.719 58.3999 207.719 59.4166V76.6666Z" fill="#7CB342"/>
<path d="M223.078 76.6666C223.078 77.6832 222.673 78.6582 221.953 79.3771C221.233 80.096 220.257 80.4999 219.238 80.4999C218.22 80.4999 217.243 80.096 216.523 79.3771C215.803 78.6582 215.398 77.6832 215.398 76.6666V59.4166C215.398 58.3999 215.803 57.4249 216.523 56.706C217.243 55.9871 218.22 55.5833 219.238 55.5833C220.257 55.5833 221.233 55.9871 221.953 56.706C222.673 57.4249 223.078 58.3999 223.078 59.4166V76.6666Z" fill="#7CB342"/>
<path d="M192.359 34.5017V63.2498C192.359 64.2664 192.764 65.2415 193.484 65.9603C194.204 66.6792 195.181 67.0831 196.199 67.0831H226.917C227.936 67.0831 228.912 66.6792 229.633 65.9603C230.353 65.2415 230.757 64.2664 230.757 63.2498V34.5017H192.359Z" fill="#7CB342"/>
<path d="M211.558 15.3333C200.039 15.3333 193.022 22.3195 192.359 30.6666H230.757C230.093 22.3195 223.078 15.3333 211.558 15.3333ZM203.879 26.0627C203.37 26.0627 202.881 25.8608 202.521 25.5014C202.161 25.1419 201.959 24.6544 201.959 24.1461C201.959 23.6377 202.161 23.1502 202.521 22.7908C202.881 22.4313 203.37 22.2294 203.879 22.2294C204.388 22.2294 204.876 22.4313 205.236 22.7908C205.596 23.1502 205.799 23.6377 205.799 24.1461C205.799 24.6544 205.596 25.1419 205.236 25.5014C204.876 25.8608 204.388 26.0627 203.879 26.0627ZM219.238 26.0627C218.729 26.0627 218.24 25.8608 217.88 25.5014C217.52 25.1419 217.318 24.6544 217.318 24.1461C217.318 23.6377 217.52 23.1502 217.88 22.7908C218.24 22.4313 218.729 22.2294 219.238 22.2294C219.747 22.2294 220.235 22.4313 220.595 22.7908C220.955 23.1502 221.158 23.6377 221.158 24.1461C221.158 24.6544 220.955 25.1419 220.595 25.5014C220.235 25.8608 219.747 26.0627 219.238 26.0627Z" fill="#7CB342"/>
<path d="M223.078 13.4165L219.879 18.2062" stroke="#7CB342" stroke-width="1.84309" stroke-linecap="round"/>
<path d="M200.039 13.4165L202.598 17.407" stroke="#7CB342" stroke-width="1.84309" stroke-linecap="round"/>
<path d="M371.599 78.2028L365.128 5.75H436.232L429.752 78.1913L400.637 86.2499L371.599 78.2028Z" fill="#E44F26"/>
<path d="M400.68 80.0916L424.208 73.5797L429.743 11.6753H400.68V80.0916Z" fill="#F1662A"/>
<path d="M400.68 38.5451H388.901L388.089 29.4457H400.68V20.5591H378.361L378.574 22.9453L380.76 47.4317H400.68V38.5451Z" fill="#EBEBEB"/>
<path d="M400.68 61.6225L400.639 61.634L390.727 58.9631L390.093 51.8762H381.157L382.404 65.8257L400.639 70.8799L400.68 70.8684V61.6225Z" fill="#EBEBEB"/>
<path d="M400.648 38.5449V47.4315H411.609L410.578 58.9574L400.648 61.6311V70.8771L418.898 65.8258L419.03 64.325L421.121 40.9312L421.34 38.5449H400.648Z" fill="white"/>
<path d="M400.648 20.5591V29.4457H422.149L422.328 27.4505L422.734 22.9453L422.947 20.5591H400.648Z" fill="white"/>
<g clip-path="url(#clip0)">
<path d="M794.437 61.3329C802.92 61.3329 809.796 54.4679 809.796 45.9996C809.796 37.5312 802.92 30.6663 794.437 30.6663C785.955 30.6663 779.078 37.5312 779.078 45.9996C779.078 54.4679 785.955 61.3329 794.437 61.3329Z" fill="#19BCFE"/>
<path fill-rule="evenodd" clip-rule="evenodd" d="M763.718 91.9996C767.792 91.9996 771.699 90.3842 774.579 87.5086C777.459 84.6331 779.078 80.733 779.078 76.6663V61.333H763.718C759.645 61.333 755.738 62.9485 752.858 65.824C749.978 68.6996 748.359 72.5997 748.359 76.6663C748.359 80.733 749.978 84.6331 752.858 87.5086C755.738 90.3842 759.645 91.9996 763.718 91.9996Z" fill="#09CF83"/>
<path fill-rule="evenodd" clip-rule="evenodd" d="M763.718 61.3329H779.078V30.6663H763.718C759.645 30.6663 755.738 32.2817 752.858 35.1573C749.978 38.0328 748.359 41.9329 748.359 45.9996C748.359 50.0662 749.978 53.9663 752.858 56.8419C755.738 59.7174 759.645 61.3329 763.718 61.3329Z" fill="#A259FF"/>
<path fill-rule="evenodd" clip-rule="evenodd" d="M763.719 30.6664H779.078V-0.000244141H763.719C759.645 -0.000244141 755.739 1.61523 752.858 4.49078C749.978 7.36633 748.36 11.2664 748.36 15.3331C748.36 19.3997 749.978 23.2998 752.858 26.1754C755.739 29.0509 759.645 30.6664 763.719 30.6664Z" fill="#F24E1E"/>
<path fill-rule="evenodd" clip-rule="evenodd" d="M794.437 30.6664H779.078V-0.000244141H794.437C798.511 -0.000244141 802.417 1.61523 805.298 4.49078C808.178 7.36633 809.796 11.2664 809.796 15.3331C809.796 19.3997 808.178 23.2998 805.298 26.1754C802.417 29.0509 798.511 30.6664 794.437 30.6664Z" fill="#FF7262"/>
</g>
<path d="M560.996 78.2028L554.528 5.75H625.626L619.149 78.1913L590.034 86.2499L560.996 78.2028Z" fill="#1572B6"/>
<path d="M590.078 80.0916L613.606 73.5797L619.141 11.6753H590.078V80.0916Z" fill="#33A9DC"/>
<path d="M590.078 37.924H601.856L602.668 28.8246H590.078V19.938H612.396L612.183 22.3214L609.997 46.8106H590.078V37.924Z" fill="white"/>
<path d="M590.132 61.0016L590.092 61.0131L580.18 58.3393L579.546 51.2524H570.61L571.857 65.2048L590.089 70.259L590.132 70.2476V61.0016Z" fill="#EBEBEB"/>
<path d="M601.098 46.4338L600.027 58.3335L590.1 61.0072V70.2532L608.347 65.2047L608.482 63.704L610.029 46.4338H601.098Z" fill="white"/>
<path d="M590.109 19.938V28.8246H568.608L568.43 26.8265L568.024 22.3214L567.811 19.938H590.109Z" fill="#EBEBEB"/>
<path d="M590.078 37.9238V46.8104H580.289L580.11 44.8123L579.707 40.3072L579.494 37.9238H590.078Z" fill="#EBEBEB"/>
<g clip-path="url(#clip1)">
<path d="M21.9874 71.1199C21.9874 71.1199 18.4722 73.1606 24.4892 73.8512C31.7787 74.6813 35.5041 74.5624 43.5373 73.0444C43.5373 73.0444 45.6494 74.3665 48.5986 75.5117C30.5909 83.2165 7.84302 75.0652 21.9874 71.1199Z" fill="#5382A1"/>
<path d="M19.7869 61.0652C19.7869 61.0652 15.8442 63.9789 21.8657 64.6005C29.6525 65.4025 35.8019 65.4681 46.4428 63.4226C46.4428 63.4226 47.9146 64.9122 50.2289 65.7269C28.4561 72.0828 4.20531 66.2281 19.7869 61.0652Z" fill="#5382A1"/>
<path d="M38.3384 44.0095C42.7757 49.1093 37.1726 53.6987 37.1726 53.6987C37.1726 53.6987 48.4392 47.8923 43.265 40.6212C38.4324 33.8408 34.7263 30.4714 54.7891 18.8555C54.7891 18.8555 23.2972 26.7074 38.3384 44.0092" fill="#E76F00"/>
<path d="M62.1545 78.5565C62.1545 78.5565 64.7558 80.6962 59.2894 82.3517C48.8951 85.4953 16.0268 86.4446 6.89599 82.4769C3.61384 81.0517 9.76903 79.0734 11.7051 78.6581C13.7242 78.221 14.8783 78.3026 14.8783 78.3026C11.2281 75.7354 -8.71519 83.3432 4.74819 85.5217C41.4644 91.466 71.6781 82.8452 62.1545 78.5565Z" fill="#5382A1"/>
<path d="M23.6781 50.6478C23.6781 50.6478 6.95952 54.6123 17.7579 56.0516C22.3171 56.661 31.4061 56.5233 39.8723 55.8149C46.7914 55.2326 53.739 53.9935 53.739 53.9935C53.739 53.9935 51.2993 55.0366 49.5342 56.2398C32.5564 60.6976 -0.241598 58.6239 9.20053 54.064C17.1858 50.2106 23.6784 50.6478 23.6784 50.6478" fill="#5382A1"/>
<path d="M53.6695 67.3837C70.9286 58.4305 62.9487 49.8266 57.3789 50.9859C56.0136 51.2694 55.405 51.5151 55.405 51.5151C55.405 51.5151 55.9119 50.7227 56.8798 50.3797C67.8984 46.5122 76.3726 61.7858 53.3228 67.8349C53.3228 67.8352 53.5899 67.597 53.6695 67.3837Z" fill="#5382A1"/>
<path d="M43.2648 0.0988987C43.2648 0.0988987 52.823 9.64455 34.1992 24.3223C19.2651 36.0966 30.7938 42.81 34.1931 50.4803C25.4757 42.6284 19.0782 35.7161 23.3703 29.2831C29.6695 19.8393 47.1211 15.2608 43.2648 0.0986328" fill="#E76F00"/>
<path d="M25.3739 91.6451C41.9402 92.7039 67.3794 91.0578 67.9819 83.2322C67.9819 83.2322 66.8238 86.199 54.2908 88.5549C40.1512 91.2112 22.7121 90.9011 12.3687 89.1986C12.3689 89.1986 14.4861 90.9482 25.3742 91.6451" fill="#5382A1"/>
</g>
<defs>
<clipPath id="clip0">
<rect width="92.1547" height="91.9999" fill="white" transform="translate(733)"/>
</clipPath>
<clipPath id="clip1">
<rect width="68.1838" height="91.9999" fill="white"/>
</clipPath>
</defs>
</svg>
