<svg width="31" height="31" viewBox="0 0 31 31" fill="none" xmlns="http://www.w3.org/2000/svg">
<g clip-path="url(#clip0)">
<path d="M19.3243 22.7148H12.126C12.2938 22.7148 12.4291 24.3649 12.4291 26.3974C12.4291 28.4314 12.2942 30.0815 12.126 30.0815H19.3243C19.157 30.0815 19.0212 28.4314 19.0212 26.3974C19.0222 24.3649 19.157 22.7148 19.3243 22.7148Z" fill="#BFBEBE"/>
<path d="M14.6469 22.7148H12.1265C12.2942 22.7148 12.4296 24.3649 12.4296 26.3974C12.4296 28.4314 12.2947 30.0815 12.1265 30.0815H14.6469C14.8146 30.0815 14.95 28.4314 14.95 26.3974C14.95 24.3649 14.8146 22.7148 14.6469 22.7148Z" fill="#AEAEAE"/>
<path d="M30.7047 22.6726C30.7047 24.5745 29.2713 26.1155 27.5061 26.1155H3.94703C2.17998 26.1155 0.74707 24.5745 0.74707 22.6726V5.22768C0.74707 3.32905 2.17998 1.78711 3.94703 1.78711H27.5061C29.2713 1.78711 30.7047 3.32764 30.7047 5.22768V22.6726Z" fill="#D1D2D2"/>
<path d="M6.80574 22.6726V5.22768C6.80574 3.32905 8.23864 1.78711 10.0052 1.78711H3.94556C2.17851 1.78711 0.745605 3.32764 0.745605 5.22768V22.6726C0.745605 24.5745 2.17851 26.1155 3.94556 26.1155H10.0052C8.23864 26.1155 6.80574 24.574 6.80574 22.6721" fill="#C6C5C5"/>
<path d="M30.7051 17.7995C30.7051 19.6981 29.2718 21.2396 27.5066 21.2396H3.94751C2.18047 21.2396 0.747559 19.6995 0.747559 17.7995V5.21492C0.747559 3.31299 2.18047 1.77246 3.94751 1.77246H27.5066C29.2718 1.77246 30.7051 3.31299 30.7051 5.21492V17.7995Z" fill="#243438"/>
<path d="M0.746094 16.9106H30.7056V22.2527H0.746094V16.9106Z" fill="#243438"/>
<path d="M28.339 3.37305H3.1111C2.90291 3.37305 2.72949 3.48819 2.72949 3.62683V20.0242C2.72949 20.1633 2.90291 20.278 3.1111 20.278H28.339C28.4523 20.278 28.5383 20.254 28.6008 20.2117L28.6102 20.2023C28.6102 20.2023 28.6177 20.1967 28.6196 20.1915C28.6504 20.1755 28.6763 20.1515 28.6948 20.1221C28.7132 20.0927 28.7234 20.0589 28.7244 20.0242V9.60048V3.63011C28.7225 3.49148 28.5472 3.37634 28.339 3.37634" fill="#58C5E8"/>
<path d="M16.0958 14.3302C20.3141 16.8576 24.4352 18.5786 28.7227 19.6196V3.62683C28.7227 3.48819 28.5474 3.37305 28.3392 3.37305H5.18896C7.56696 7.85411 11.6594 11.6725 16.0967 14.3302" fill="#28A6DE"/>
<path d="M16.1295 17.0139C11.0398 14.2416 5.94402 10.4016 2.72949 5.65967V20.0235C2.72949 20.1626 2.90291 20.2773 3.1111 20.2773H23.7014C21.1862 19.4666 18.678 18.404 16.1304 17.0158" fill="#28A6DE"/>
<path d="M21.2762 29.9176C21.2762 30.2475 21.1174 30.5159 20.9223 30.5159H10.5315C10.3346 30.5159 10.1758 30.2475 10.1758 29.9176C10.1758 29.5872 10.3346 29.3193 10.5315 29.3193H20.9223C21.1174 29.3179 21.2762 29.5868 21.2762 29.9176Z" fill="#D1D2D2"/>
<path d="M13.858 29.9176C13.858 29.5872 14.0168 29.3193 14.2119 29.3193H10.3934C10.1979 29.3193 10.0396 29.5872 10.0396 29.9176C10.0396 30.2475 10.1984 30.5159 10.3934 30.5159H14.2119C14.0168 30.5159 13.858 30.2475 13.858 29.9176Z" fill="#C6C5C5"/>
<path d="M16.8631 23.2854C16.817 23.2412 16.7498 23.2285 16.6582 23.2548L16.1304 23.3897C15.9659 23.4344 15.8827 23.5429 15.8827 23.7177L15.8809 24.2822C15.8809 24.3639 15.8992 24.4246 15.9358 24.4593C15.9513 24.4742 15.9697 24.4858 15.9898 24.4933C16.01 24.5008 16.0314 24.5041 16.0529 24.503C16.0811 24.503 16.1074 24.4969 16.1412 24.4904L16.6685 24.3559C16.833 24.3118 16.9166 24.2027 16.9185 24.0256V23.463C16.9171 23.3798 16.8988 23.3202 16.8631 23.2854ZM16.583 23.9278C16.583 23.9903 16.5538 24.0289 16.4942 24.0453L16.3071 24.0942C16.2969 24.0962 16.2865 24.0975 16.2761 24.0979C16.2607 24.0983 16.2457 24.0931 16.2338 24.0834C16.2216 24.0716 16.2136 24.0495 16.2159 24.0176V23.8169C16.2159 23.7544 16.2451 23.7159 16.3038 23.6999L16.4932 23.651C16.5256 23.6435 16.5501 23.6472 16.5642 23.6618C16.5783 23.6745 16.5844 23.6957 16.5844 23.7257V23.9283H16.583V23.9278Z" fill="#243438"/>
<path d="M15.5705 23.7155C15.5705 23.5406 15.4883 23.4316 15.3224 23.3874L14.7951 23.2525C14.7039 23.2262 14.6362 23.2403 14.5925 23.2831C14.554 23.3179 14.5356 23.3776 14.5356 23.4603L14.5375 24.0219C14.5394 24.199 14.6216 24.3085 14.7857 24.3523L15.3148 24.4871C15.3459 24.4965 15.375 24.4998 15.4004 24.4998C15.4219 24.501 15.4434 24.4977 15.4635 24.4901C15.4837 24.4824 15.502 24.4707 15.5174 24.4556C15.554 24.4213 15.5724 24.3612 15.5724 24.2785L15.5705 23.7155ZM15.2199 24.0811C15.2105 24.091 15.1964 24.0957 15.1781 24.0957C15.1781 24.0957 15.1579 24.0938 15.1471 24.0919L14.9591 24.043C14.9008 24.0266 14.8698 23.988 14.8698 23.9255V23.723C14.8698 23.6938 14.8773 23.6722 14.8895 23.6591C14.9041 23.6445 14.9281 23.6407 14.9624 23.6483L15.1504 23.6971C15.2086 23.7131 15.2396 23.7516 15.2396 23.8142V24.0167C15.2396 24.0458 15.2396 24.0679 15.2199 24.0811Z" fill="#243438"/>
<path d="M15.9409 25.1624C15.9503 25.1624 15.9593 25.1606 15.9719 25.1563L16.1599 25.1079C16.2182 25.0943 16.2492 25.0539 16.2492 24.9895V24.7893C16.25 24.7663 16.2436 24.7436 16.2309 24.7244C16.2144 24.7085 16.1886 24.7066 16.158 24.7146L15.9682 24.763C15.9099 24.7775 15.8803 24.8175 15.8803 24.8814L15.8784 25.083C15.8784 25.1121 15.8859 25.1319 15.8986 25.1446C15.908 25.1568 15.9226 25.1624 15.9409 25.1624Z" fill="#243438"/>
<path d="M15.5118 25.1624C15.5006 25.1623 15.4895 25.1602 15.4789 25.1563L15.2909 25.1079C15.2327 25.0943 15.2031 25.0539 15.2031 24.9895L15.2012 24.7893C15.2012 24.7597 15.2087 24.7399 15.2214 24.7244C15.2359 24.7085 15.2613 24.7066 15.2923 24.7146L15.4841 24.763C15.541 24.7775 15.572 24.8175 15.572 24.8814V25.083C15.572 25.1121 15.5645 25.1319 15.5536 25.1446C15.5484 25.1504 15.5419 25.1551 15.5347 25.1582C15.5275 25.1612 15.5197 25.1627 15.5118 25.1624Z" fill="#243438"/>
</g>
<defs>
<clipPath id="clip0">
<rect width="30.0774" height="30.0774" fill="white" transform="translate(0.729004 0.438477)"/>
</clipPath>
</defs>
</svg>
