<svg width="276" height="58" viewBox="0 0 276 58" fill="none" xmlns="http://www.w3.org/2000/svg">
<path fill-rule="evenodd" clip-rule="evenodd" d="M0.929275 32.3075C3.38656 38.0442 7.78732 41.3091 13.585 41.6972L16.0208 41.8602L18.7532 37.4847C20.2559 35.0781 21.5388 33.1619 21.6041 33.2262C21.6691 33.2909 21.1744 35.5338 20.5044 38.2105L19.2865 43.0777L18.2163 43.2764C15.6301 43.7568 10.0283 42.5478 7.57654 40.9801C6.30535 40.1672 6.31152 40.1804 7.87307 41.5978C11.1475 44.5701 15.8688 46.2232 19.8201 45.7804C21.3673 45.6071 21.8178 45.4261 22.0474 44.8842C22.2059 44.5109 22.8532 41.466 23.4859 38.1182C24.1185 34.7701 24.6837 31.984 24.7415 31.9268C24.7993 31.8692 25.5323 34.3192 26.3706 37.3709C27.2088 40.4225 28.1257 43.697 28.4086 44.6482L28.9227 46.377L30.9899 46.1673C33.8087 45.8814 37.0938 44.8399 39.2595 43.5452C40.8126 42.6169 44.7638 38.9607 44.7638 38.452C44.7638 38.3561 43.8505 38.9057 42.734 39.673C41.6177 40.4402 40.2585 41.2924 39.7135 41.5667C38.214 42.3214 34.7395 43.3349 32.847 43.5694L31.1611 43.7784L30.3024 40.937C29.4125 37.9928 27.6206 32.0265 27.3722 31.182C27.1939 30.5743 29.0588 32.6484 32.5047 36.8898C35.5982 40.6975 35.4316 40.6505 39.6716 38.9028C45.706 36.4155 49.4757 32.3525 50.1295 27.6313L50.3283 26.1978L49.251 28.1204C47.8554 30.6119 44.5816 34.0436 42.5628 35.1315C41.2887 35.818 37.63 36.9422 36.5943 36.9654C36.4189 36.9692 30.1328 29.8588 28.5576 27.8751C28.1364 27.3445 28.1676 27.3268 28.9847 27.6345C30.088 28.05 32.785 28.0821 32.1312 27.6725C31.8632 27.5043 31.7661 27.1602 31.8941 26.8306C32.0727 26.3695 32.368 26.3077 33.5992 26.475C35.2224 26.6952 36.5248 26.172 37.2617 25.0035C37.7697 24.1983 37.5394 23.9549 36.6934 24.4031C35.5849 24.9906 34.4677 24.8308 34.263 24.0555C33.861 22.5332 35.162 21.7142 36.6934 22.5258C37.7499 23.0857 37.809 22.5708 36.807 21.5354C35.656 20.3459 35.0295 20.1392 33.8837 20.5704C33.39 20.7562 32.7129 20.8225 32.3793 20.7177C31.6966 20.5032 31.5563 19.4243 32.1786 19.1754C32.9815 18.8548 30.1708 18.9703 29.3128 19.2931C28.8298 19.4748 28.3884 19.5777 28.3316 19.5214C28.2355 19.4266 34.7424 11.7505 35.9431 10.542C36.3959 10.0864 36.7405 10.0484 38.0987 10.3047C42.3276 11.1025 46.5975 14.3339 49.1146 18.641L50.3361 20.7312L50.1412 19.2841C49.4553 14.1973 44.4709 9.49728 37.3556 7.22832C35.2621 6.56107 35.7132 6.22631 31.1231 11.8518C29.2475 14.1503 27.62 16.0395 27.507 16.0498C27.3261 16.0662 27.9133 13.9696 30.4807 5.43334L31.1163 3.32001L33.1559 3.56311C36.5914 3.97278 39.3949 5.09408 42.9558 7.48332L44.8827 8.77633L44.1717 7.78784C41.4878 4.05543 36.5222 1.46586 30.7418 0.782855L28.899 0.565482L28.5505 1.80511C28.3585 2.48715 27.4462 5.75844 26.5229 9.07474C25.5999 12.3907 24.7925 15.0526 24.7288 14.9896C24.6652 14.9269 24.0526 11.9566 23.3673 8.38948C22.682 4.82236 22.0149 1.79869 21.885 1.67038C21.7551 1.54208 20.0903 1.43724 18.1855 1.43724C14.9711 1.43724 14.5655 1.51056 12.5548 2.45371C10.357 3.48465 7.31931 5.53334 6.44923 6.57103C6.18616 6.88488 6.69639 6.68519 7.58628 6.12631C10.0585 4.57315 12.8357 3.84898 16.3203 3.84898L19.3121 3.84898L20.4813 8.75286C21.1244 11.4498 21.6064 13.7001 21.5528 13.7535C21.4989 13.8066 20.2322 11.892 18.7379 9.49889C16.064 5.21693 16.002 5.14778 14.8471 5.14135C9.20012 5.11145 3.90718 8.44512 1.44892 13.5802C-0.00869012 16.6251 -0.366922 17.9522 0.776952 16.0685C2.32713 13.5159 4.67951 11.4093 7.36933 10.1655C10.6058 8.66861 13.6278 7.87402 13.9643 8.43129C14.0978 8.65221 15.6658 10.9282 17.4489 13.4889C19.2316 16.0492 20.6405 18.1937 20.5794 18.2545C20.518 18.3149 19.5154 18.0731 18.3508 17.7168C13.2206 16.1482 7.61064 15.6048 5.10789 16.4344C2.03612 17.4528 0.474907 19.8761 0.458993 23.6513C0.445352 26.8872 1.43431 28.7343 3.85586 29.9967C5.59311 30.9023 5.70743 30.9174 9.68761 30.7698C12.9396 30.6492 14.4255 30.4241 17.1549 29.6388C19.0292 29.0996 20.5944 28.6896 20.6333 28.7278C20.697 28.7912 14.1053 38.4915 13.7792 38.8147C13.5379 39.0536 9.58985 37.9372 7.78505 37.1194C5.12088 35.9123 3.07639 34.2691 1.70193 32.23C-0.394528 29.1202 -0.434475 29.1243 0.929275 32.3075Z" fill="url(#paint0_linear)"/>
<path d="M59.8148 37V8.85387H68.8811C71.3684 8.85387 73.6044 9.42091 75.589 10.555C77.5737 11.6762 79.1202 13.2678 80.2285 15.3298C81.3497 17.3789 81.9168 19.6793 81.9297 22.231V23.5262C81.9297 26.1037 81.3819 28.417 80.2865 30.4661C79.204 32.5023 77.6704 34.1003 75.6857 35.2602C73.7139 36.4072 71.5102 36.9871 69.0745 37H59.8148ZM66.6001 14.0926V31.7806H68.9585C70.9045 31.7806 72.3994 31.0911 73.4433 29.7122C74.4872 28.3203 75.0091 26.2583 75.0091 23.5262V22.3083C75.0091 19.5891 74.4872 17.54 73.4433 16.161C72.3994 14.7821 70.8787 14.0926 68.8811 14.0926H66.6001ZM95.2295 37.3866C92.0205 37.3866 89.4237 36.433 87.439 34.5256C85.4544 32.6054 84.462 30.1117 84.462 27.0445V26.5032C84.462 24.3639 84.8551 22.4759 85.6412 20.8392C86.4403 19.2025 87.6001 17.9395 89.1208 17.0503C90.6416 16.1481 92.4458 15.6971 94.5336 15.6971C97.4719 15.6971 99.7916 16.6121 101.493 18.4421C103.194 20.2592 104.044 22.7981 104.044 26.0586V28.591H91.0926C91.3246 29.7637 91.8336 30.6852 92.6198 31.3553C93.4059 32.0255 94.424 32.3605 95.6741 32.3605C97.7361 32.3605 99.347 31.6388 100.507 30.1954L103.484 33.7137C102.672 34.8349 101.519 35.7306 100.024 36.4007C98.5415 37.058 96.9435 37.3866 95.2295 37.3866ZM94.4949 20.7232C92.5876 20.7232 91.4535 21.9862 91.0926 24.5121H97.6652V24.0095C97.691 22.9656 97.4268 22.1601 96.8726 21.5931C96.3185 21.0132 95.5259 20.7232 94.4949 20.7232ZM117.634 31.1233C117.634 30.5692 117.344 30.1246 116.764 29.7895C116.184 29.4544 115.083 29.1065 113.459 28.7456C111.835 28.3848 110.495 27.9144 109.438 27.3344C108.381 26.7416 107.576 26.0264 107.021 25.1887C106.467 24.351 106.19 23.3909 106.19 22.3083C106.19 20.3881 106.983 18.8094 108.568 17.5722C110.153 16.3221 112.228 15.6971 114.793 15.6971C117.55 15.6971 119.767 16.3221 121.442 17.5722C123.118 18.8223 123.956 20.4654 123.956 22.5016H117.422C117.422 20.8263 116.539 19.9886 114.773 19.9886C114.09 19.9886 113.517 20.1819 113.053 20.5685C112.589 20.9423 112.357 21.4127 112.357 21.9797C112.357 22.5596 112.64 23.03 113.207 23.3909C113.774 23.7517 114.677 24.0481 115.914 24.2801C117.164 24.5121 118.259 24.7892 119.2 25.1114C122.345 26.1939 123.917 28.1335 123.917 30.93C123.917 32.8374 123.066 34.3903 121.365 35.5888C119.677 36.7874 117.486 37.3866 114.793 37.3866C113.001 37.3866 111.403 37.0644 109.998 36.4201C108.594 35.7757 107.498 34.8994 106.712 33.791C105.926 32.6827 105.533 31.5164 105.533 30.2921H111.622C111.648 31.2587 111.97 31.9675 112.589 32.4185C113.207 32.8567 114 33.0758 114.967 33.0758C115.856 33.0758 116.52 32.8954 116.958 32.5345C117.409 32.1737 117.634 31.7033 117.634 31.1233ZM136.076 26.3872C136.076 24.2737 136.424 22.405 137.12 20.7812C137.816 19.1574 138.815 17.9073 140.116 17.0309C141.418 16.1417 142.932 15.6971 144.659 15.6971C146.837 15.6971 148.538 16.4317 149.763 17.9008L149.995 16.0837H155.91V36.2074C155.91 38.0503 155.478 39.6484 154.615 41.0015C153.764 42.3676 152.527 43.4115 150.903 44.1332C149.279 44.8678 147.398 45.2351 145.258 45.2351C143.725 45.2351 142.236 44.9451 140.793 44.3652C139.362 43.7852 138.267 43.0313 137.507 42.1034L140.232 38.2759C141.444 39.7064 143.042 40.4216 145.026 40.4216C147.913 40.4216 149.357 38.9396 149.357 35.9754V35.3182C148.107 36.6971 146.528 37.3866 144.621 37.3866C142.069 37.3866 140.007 36.4136 138.435 34.4676C136.862 32.5087 136.076 29.8926 136.076 26.6192V26.3872ZM142.61 26.7932C142.61 28.5072 142.932 29.8668 143.577 30.872C144.221 31.8644 145.123 32.3605 146.283 32.3605C147.688 32.3605 148.712 31.8901 149.357 30.9494V22.1537C148.725 21.2 147.714 20.7232 146.322 20.7232C145.162 20.7232 144.253 21.2451 143.596 22.289C142.939 23.32 142.61 24.8214 142.61 26.7932ZM165.595 16.0837L165.807 18.5388C167.251 16.6443 169.242 15.6971 171.781 15.6971C173.959 15.6971 175.583 16.3479 176.652 17.6495C177.735 18.9512 178.295 20.9101 178.334 23.5262V37H171.8V23.7968C171.8 22.7401 171.587 21.9668 171.162 21.4771C170.737 20.9745 169.964 20.7232 168.842 20.7232C167.567 20.7232 166.619 21.2258 166.001 22.231V37H159.486V16.0837H165.595ZM205.03 27.4698C204.94 29.4286 204.412 31.162 203.445 32.6698C202.479 34.1648 201.119 35.3246 199.366 36.1494C197.627 36.9742 195.635 37.3866 193.393 37.3866C189.694 37.3866 186.782 36.1816 184.655 33.7717C182.529 31.3618 181.466 27.9595 181.466 23.5649V22.173C181.466 19.4151 181.943 17.0052 182.896 14.9432C183.863 12.8683 185.248 11.2703 187.052 10.1491C188.857 9.01496 190.944 8.44791 193.316 8.44791C196.731 8.44791 199.476 9.35003 201.551 11.1543C203.626 12.9456 204.805 15.42 205.088 18.5774H198.322C198.271 16.8634 197.839 15.6327 197.027 14.8852C196.215 14.1377 194.978 13.764 193.316 13.764C191.627 13.764 190.39 14.3955 189.604 15.6584C188.818 16.9214 188.406 18.9383 188.367 21.7091V23.7002C188.367 26.7029 188.741 28.8487 189.488 30.1374C190.248 31.4262 191.55 32.0706 193.393 32.0706C194.952 32.0706 196.144 31.7033 196.969 30.9687C197.794 30.2341 198.232 29.0678 198.284 27.4698H205.03Z" fill="#3FF81E"/>
<path d="M242.939 53.3276H235.176V42.2393H237.395V51.1084H242.939V53.3276ZM253.498 53.3276H252.988L252.168 52.191C251.967 52.3714 251.753 52.5415 251.526 52.7013C251.305 52.856 251.07 52.9926 250.823 53.1111C250.575 53.2245 250.32 53.3147 250.057 53.3818C249.799 53.4488 249.537 53.4823 249.268 53.4823C248.686 53.4823 248.137 53.3843 247.621 53.1885C247.111 52.9926 246.663 52.709 246.276 52.3379C245.895 51.9616 245.593 51.5028 245.371 50.9615C245.15 50.4202 245.039 49.8042 245.039 49.1134C245.039 48.4691 245.15 47.8788 245.371 47.3427C245.593 46.8014 245.895 46.3375 246.276 45.9509C246.663 45.5643 247.111 45.2653 247.621 45.0539C248.137 44.8374 248.686 44.7291 249.268 44.7291C249.537 44.7291 249.802 44.7627 250.065 44.8297C250.328 44.8967 250.583 44.9895 250.83 45.108C251.078 45.2266 251.312 45.3658 251.534 45.5256C251.761 45.6854 251.972 45.8581 252.168 46.0437L252.988 45.0616H253.498V53.3276ZM251.372 49.1134C251.372 48.8248 251.315 48.5464 251.202 48.2783C251.093 48.0051 250.944 47.7654 250.753 47.5592C250.562 47.3479 250.338 47.1803 250.08 47.0566C249.828 46.9277 249.557 46.8633 249.268 46.8633C248.98 46.8633 248.707 46.9123 248.449 47.0102C248.196 47.1082 247.975 47.2525 247.784 47.4432C247.598 47.634 247.451 47.8711 247.343 48.1546C247.235 48.433 247.181 48.7526 247.181 49.1134C247.181 49.4743 247.235 49.7965 247.343 50.08C247.451 50.3584 247.598 50.5929 247.784 50.7837C247.975 50.9744 248.196 51.1187 248.449 51.2167C248.707 51.3146 248.98 51.3636 249.268 51.3636C249.557 51.3636 249.828 51.3017 250.08 51.178C250.338 51.0491 250.562 50.8816 250.753 50.6754C250.944 50.4641 251.093 50.2243 251.202 49.9563C251.315 49.6831 251.372 49.4021 251.372 49.1134ZM265.225 49.1134C265.225 49.763 265.114 50.3558 264.892 50.8919C264.67 51.428 264.369 51.8894 263.987 52.276C263.606 52.6575 263.157 52.9539 262.642 53.1653C262.132 53.3766 261.583 53.4823 260.995 53.4823C260.412 53.4823 259.863 53.374 259.348 53.1575C258.838 52.941 258.389 52.6394 258.002 52.2528C257.621 51.8662 257.319 51.4074 257.098 50.8764C256.876 50.3403 256.765 49.7527 256.765 49.1134V41.7522H258.884V45.6184C258.997 45.474 259.134 45.3452 259.294 45.2318C259.459 45.1183 259.634 45.0256 259.82 44.9534C260.01 44.8812 260.206 44.8271 260.407 44.791C260.608 44.7498 260.804 44.7291 260.995 44.7291C261.583 44.7291 262.132 44.84 262.642 45.0616C263.157 45.2782 263.606 45.5823 263.987 45.9741C264.369 46.3659 264.67 46.8298 264.892 47.3659C265.114 47.8969 265.225 48.4794 265.225 49.1134ZM263.098 49.1134C263.098 48.7938 263.041 48.4974 262.928 48.2242C262.82 47.9458 262.67 47.7061 262.48 47.5051C262.289 47.3041 262.065 47.1468 261.807 47.0334C261.554 46.92 261.284 46.8633 260.995 46.8633C260.706 46.8633 260.433 46.9277 260.175 47.0566C259.923 47.1803 259.701 47.3479 259.51 47.5592C259.32 47.7654 259.17 48.0051 259.062 48.2783C258.954 48.5464 258.899 48.8248 258.899 49.1134C258.899 49.4331 258.954 49.7295 259.062 50.0027C259.17 50.2759 259.32 50.513 259.51 50.7141C259.701 50.9151 259.923 51.0749 260.175 51.1935C260.433 51.3069 260.706 51.3636 260.995 51.3636C261.284 51.3636 261.554 51.3069 261.807 51.1935C262.065 51.0749 262.289 50.9151 262.48 50.7141C262.67 50.513 262.82 50.2759 262.928 50.0027C263.041 49.7295 263.098 49.4331 263.098 49.1134ZM272.768 53.3276H267.943V51.2244H272.768C272.912 51.2244 273.036 51.1729 273.139 51.0698C273.242 50.9667 273.294 50.8429 273.294 50.6986C273.294 50.5491 273.242 50.4512 273.139 50.4048C273.036 50.3584 272.912 50.3352 272.768 50.3352H270.572C270.206 50.3352 269.863 50.2656 269.543 50.1264C269.224 49.9872 268.945 49.7991 268.708 49.5619C268.471 49.3196 268.283 49.0387 268.144 48.7191C268.01 48.3995 267.943 48.0567 267.943 47.6907C267.943 47.3247 268.01 46.9819 268.144 46.6623C268.283 46.3427 268.471 46.0643 268.708 45.8272C268.945 45.59 269.224 45.4044 269.543 45.2704C269.863 45.1312 270.206 45.0616 270.572 45.0616H274.848V47.1649H270.572C270.427 47.1649 270.304 47.2164 270.201 47.3195C270.097 47.4226 270.046 47.5463 270.046 47.6907C270.046 47.8402 270.097 47.969 270.201 48.0773C270.304 48.1804 270.427 48.232 270.572 48.232H272.768C273.129 48.232 273.469 48.2938 273.788 48.4175C274.108 48.5361 274.386 48.7036 274.624 48.9201C274.861 49.1366 275.049 49.397 275.188 49.7011C275.327 50.0053 275.397 50.3378 275.397 50.6986C275.397 51.0646 275.327 51.4074 275.188 51.727C275.049 52.0415 274.861 52.3198 274.624 52.5621C274.386 52.7993 274.108 52.9874 273.788 53.1266C273.469 53.2606 273.129 53.3276 272.768 53.3276Z" fill="#3FF81E"/>
<path d="M215.201 36.3852H216.238V34.3114H215.212C214.893 34.3052 212.09 34.132 212.09 30.1639C212.09 28.0973 211.401 26.7981 210.533 26.0163C211.401 25.2345 212.09 23.9353 212.09 21.8688C212.09 17.9006 214.893 17.7275 215.201 17.7212H216.238V15.6475H215.199C213.406 15.6516 210.016 16.9581 210.016 21.8688C210.016 24.7721 208.276 24.9691 207.928 24.9794L207.943 27.0532C208.028 27.0532 210.016 27.0885 210.016 30.1639C210.016 35.0745 213.406 36.381 215.201 36.3852ZM228.68 24.9794C228.595 24.9794 226.607 24.9442 226.607 21.8688C226.607 16.9581 223.217 15.6516 221.422 15.6475H220.385V17.7212H221.411C221.73 17.7275 224.533 17.9006 224.533 21.8688C224.533 23.9353 225.222 25.2345 226.09 26.0163C225.222 26.7981 224.533 28.0973 224.533 30.1639C224.533 34.132 221.73 34.3052 221.422 34.3114H220.385V36.3852H221.424C223.217 36.381 226.607 35.0745 226.607 30.1639C226.607 27.2606 228.346 27.0636 228.695 27.0532L228.68 24.9794Z" fill="#3FF81E"/>
<path fill-rule="evenodd" clip-rule="evenodd" d="M128.51 34.3394C128.439 33.2962 128.507 24.5361 129.171 20.4965L131.029 20.4777C132.242 24.4654 133.495 33.0803 133.567 34.1203C133.659 35.4781 132.656 37.5014 131.278 37.7137C129.47 37.9943 128.606 35.6982 128.51 34.3394Z" fill="#3FF81E"/>
<path fill-rule="evenodd" clip-rule="evenodd" d="M130.956 18.6921C130.956 18.6921 133.742 17.1291 132.868 13.5622C131.993 9.99634 134.016 9.54683 134.776 9.18917C135.535 8.8315 131.112 8.07279 130.224 8.93275C129.357 9.77319 124.364 12.1963 128.167 17.9863C128.252 18.1118 129.614 19.6326 130.956 18.6921Z" fill="#3FF81E"/>
<path d="M231.759 26.3872C231.759 23.0751 232.475 20.4654 233.905 18.5581C235.336 16.6508 237.333 15.6971 239.898 15.6971C241.766 15.6971 243.339 16.4317 244.615 17.9008V7.30738H251.148V37H245.291L244.962 34.7576C243.622 36.5103 241.921 37.3866 239.859 37.3866C237.372 37.3866 235.4 36.433 233.944 34.5256C232.487 32.6183 231.759 29.9055 231.759 26.3872ZM238.274 26.7932C238.274 30.5047 239.356 32.3605 241.522 32.3605C242.965 32.3605 243.996 31.7548 244.615 30.5434V22.579C244.022 21.3418 243.004 20.7232 241.56 20.7232C239.55 20.7232 238.461 22.347 238.293 25.5946L238.274 26.7932ZM264.97 37.3866C261.761 37.3866 259.164 36.433 257.18 34.5256C255.195 32.6054 254.203 30.1117 254.203 27.0445V26.5032C254.203 24.3639 254.596 22.4759 255.382 20.8392C256.181 19.2025 257.341 17.9395 258.862 17.0503C260.382 16.1481 262.187 15.6971 264.274 15.6971C267.213 15.6971 269.532 16.6121 271.233 18.4421C272.935 20.2592 273.785 22.7981 273.785 26.0586V28.591H260.833C261.065 29.7637 261.574 30.6852 262.36 31.3553C263.147 32.0255 264.165 32.3605 265.415 32.3605C267.477 32.3605 269.088 31.6388 270.248 30.1954L273.225 33.7137C272.413 34.8349 271.259 35.7306 269.764 36.4007C268.282 37.058 266.684 37.3866 264.97 37.3866ZM264.236 20.7232C262.328 20.7232 261.194 21.9862 260.833 24.5121H267.406V24.0095C267.432 22.9656 267.168 22.1601 266.613 21.5931C266.059 21.0132 265.267 20.7232 264.236 20.7232Z" fill="#3FF81E"/>
<defs>
<linearGradient id="paint0_linear" x1="4.18378" y1="7.95739" x2="39.617" y2="40.7516" gradientUnits="userSpaceOnUse">
<stop stop-color="#52FF00"/>
<stop offset="1" stop-color="#00DF81"/>
</linearGradient>
</defs>
</svg>
