<svg width="40" height="40" viewBox="0 0 40 40" fill="none" xmlns="http://www.w3.org/2000/svg">
<g clip-path="url(#clip0)">
<path d="M10.4499 34.2583L11.0962 34.5816C13.7897 36.1975 16.806 36.9516 19.8226 36.9516C29.3029 36.9516 37.0595 29.195 37.0595 19.7147C37.0595 15.1901 35.228 10.7731 31.9961 7.5411C28.7642 4.30913 24.4548 2.47778 19.8226 2.47778C10.3422 2.47778 2.58548 10.2344 2.69328 19.8225C2.69328 23.0543 3.66286 26.1786 5.27877 28.8718L5.70965 29.5182L3.9861 35.8744L10.4499 34.2583Z" fill="#00E676"/>
<path d="M33.8275 5.81745C30.1646 2.04695 25.1013 0 19.9302 0C8.94178 0 0.107799 8.94162 0.215444 19.8224C0.215444 23.2698 1.18502 26.6096 2.80108 29.6259L0 39.8604L10.4499 37.1671C13.3586 38.7832 16.5904 39.5373 19.8225 39.5373C30.7033 39.5373 39.5373 30.5955 39.5373 19.7149C39.5373 14.436 37.4903 9.48031 33.8276 5.81745H33.8275ZM19.9302 36.1977C17.0215 36.1977 14.1127 35.4437 11.6349 33.9354L10.9886 33.6122L4.74023 35.2281L6.35614 29.0876L5.92525 28.4411C1.18502 20.7923 3.44741 10.6653 11.204 5.9251C18.9606 1.18502 28.9796 3.44741 33.7198 11.204C38.4599 18.9606 36.1975 28.9796 28.4411 33.7198C25.9631 35.3358 22.9467 36.1975 19.9302 36.1975V36.1977ZM29.4105 24.2397L28.2255 23.701C28.2255 23.701 26.5019 22.9469 25.4246 22.4082C25.3168 22.4082 25.2091 22.3004 25.1013 22.3004C24.7781 22.3004 24.5626 22.4082 24.3472 22.516C24.3472 22.516 24.2395 22.6236 22.7313 24.3473C22.6235 24.5628 22.408 24.6706 22.1926 24.6706H22.0848C21.9771 24.6706 21.7617 24.5628 21.6539 24.4551L21.1152 24.2397C19.9302 23.701 18.853 23.0545 17.991 22.1927C17.7756 21.9773 17.4524 21.7619 17.2369 21.5464C16.4828 20.7923 15.7287 19.9303 15.1901 18.9608L15.0823 18.7453C14.9747 18.6375 14.9747 18.5299 14.8669 18.3144C14.8669 18.099 14.8669 17.8836 14.9747 17.7758C14.9747 17.7758 15.4056 17.2371 15.7287 16.914C15.9442 16.6984 16.0519 16.3753 16.2673 16.1598C16.4828 15.8366 16.5906 15.4057 16.4828 15.0825C16.3751 14.5438 15.0823 11.6351 14.7592 10.9887C14.5436 10.6655 14.3283 10.5578 14.0051 10.45H12.8201C12.6045 10.45 12.3892 10.5578 12.1736 10.5578L12.0658 10.6655C11.8503 10.7733 11.6349 10.9887 11.4195 11.0964C11.204 11.312 11.0962 11.5273 10.8808 11.7429C10.1266 12.7124 9.69575 13.8975 9.69575 15.0825C9.69575 15.9442 9.9112 16.8062 10.2344 17.5603L10.3422 17.8836C11.3118 19.9303 12.6045 21.7619 14.3283 23.3778L14.7592 23.8086C15.0823 24.1319 15.4056 24.3473 15.621 24.6704C17.8834 26.6097 20.4689 28.0102 23.3776 28.7643C23.7008 28.872 24.1317 28.872 24.455 28.9798H25.5322C26.0709 28.9798 26.7172 28.7643 27.1483 28.5489C27.4714 28.3334 27.6868 28.3334 27.9022 28.118L28.1178 27.9024C28.3333 27.687 28.5487 27.5793 28.7642 27.3639C28.9796 27.1484 29.1951 26.933 29.3029 26.7174C29.5183 26.2865 29.6259 25.7478 29.7337 25.2093V24.4551C29.7337 24.4551 29.6259 24.3473 29.4105 24.2397Z" fill="white"/>
</g>
<defs>
<clipPath id="clip0">
<rect width="39.5367" height="40" fill="white"/>
</clipPath>
</defs>
</svg>
